<?xml version="1.0" encoding="utf-8"?>
<!-- Generator: Adobe Illustrator 24.1.2, SVG Export Plug-In . SVG Version: 6.00 Build 0)  -->
<svg version="1.1" id="Layer_1" xmlns="http://www.w3.org/2000/svg" xmlns:xlink="http://www.w3.org/1999/xlink" x="0px" y="0px"
	 viewBox="0 0 598.1 379.2" enable-background="new 0 0 598.1 379.2" xml:space="preserve">
<path fill="#FFFFFF" d="M478.4,139.7c-4.8,0-9.6,0.3-14.3,0.9c-12.9-41.9-51.6-70.6-95.5-70.7c-10.9,0-21.8,1.8-32.1,5.4
	C311,20,250.5-10.1,191,3.1C131.6,16.2,89.3,68.9,89.3,129.7c0,10.5,1.3,21,3.9,31.2c-56.6,8.6-97.1,59.4-92.9,116.5
	c4.2,57.1,51.7,101.4,109,101.7h369.1c66.1,0,119.7-53.6,119.7-119.7S544.5,139.7,478.4,139.7z M478.4,359.2H109.3
	c-49.2,0.2-89.4-39.2-90.1-88.4c-0.7-49.2,38.3-89.8,87.4-91c3.2-0.1,6.1-1.7,7.9-4.3c1.8-2.6,2.2-6,1.2-9
	c-19.8-56.7,9.7-118.7,66.1-139.2c56.4-20.5,118.8,8.2,140,64.4c1,2.6,3,4.7,5.5,5.7c2.6,1.1,5.5,1,8-0.2
	c10.4-4.9,21.8-7.4,33.3-7.4c38,0.1,70.6,26.8,78.2,64c1.1,5.4,6.4,8.9,11.8,7.8c6.5-1.3,13.1-2,19.8-2c55.1,0,99.8,44.7,99.8,99.8
	C578.2,314.5,533.5,359.2,478.4,359.2z"/>
</svg>
