<?xml version="1.0" encoding="utf-8"?>
<!-- Generator: Adobe Illustrator 24.1.2, SVG Export Plug-In . SVG Version: 6.00 Build 0)  -->
<svg version="1.1" id="Layer_1" xmlns="http://www.w3.org/2000/svg" xmlns:xlink="http://www.w3.org/1999/xlink" x="0px" y="0px"
	 viewBox="0 0 128.4 119.8" enable-background="new 0 0 128.4 119.8" xml:space="preserve">
<defs>
	<filter id="Adobe_OpacityMaskFilter" filterUnits="userSpaceOnUse" x="0" y="104.4" width="128.4" height="15.4">
		<feColorMatrix  type="matrix" values="1 0 0 0 0  0 1 0 0 0  0 0 1 0 0  0 0 0 1 0"/>
	</filter>
</defs>
<mask maskUnits="userSpaceOnUse" x="0" y="104.4" width="128.4" height="15.4" id="path-1-inside-1_1_">
	<path fill="#FFFFFF" filter="url(#Adobe_OpacityMaskFilter)" d="M12.9,108.9c0,0.7-0.2,1.3-0.4,1.9c-0.3,0.5-0.7,0.9-1.2,1.3
		c-0.5,0.3-1.2,0.6-1.8,0.7C8.7,112.9,8,113,7.1,113h-1v3.6c0,0.2,0,0.4,0.1,0.6c0.1,0.2,0.2,0.3,0.5,0.4c0.1,0,0.3,0.1,0.6,0.2
		c0.3,0.1,0.5,0.1,0.7,0.1v0.7H1v-0.7c0.2,0,0.4,0,0.7-0.1c0.3,0,0.5-0.1,0.6-0.1c0.2-0.1,0.4-0.2,0.5-0.4c0.1-0.1,0.1-0.3,0.1-0.6
		v-9c0-0.2,0-0.4-0.1-0.5c-0.1-0.2-0.2-0.3-0.5-0.4c-0.2-0.1-0.4-0.1-0.7-0.2c-0.3-0.1-0.5-0.1-0.6-0.1v-0.7h7
		c1.6,0,2.9,0.3,3.7,0.8C12.5,107,12.9,107.8,12.9,108.9z M9.4,109.4c0-1-0.2-1.7-0.6-2.1c-0.4-0.5-1.1-0.7-2.1-0.7H6.1v5.6h0.4
		c1,0,1.7-0.2,2.2-0.7C9.2,111,9.4,110.3,9.4,109.4z M28.8,118.5h-6.9v-0.7c0.3,0,0.7-0.1,1.1-0.2c0.4-0.1,0.7-0.2,0.7-0.3
		c0,0,0-0.1,0-0.2c0-0.1,0-0.1-0.1-0.2l-1.1-2.6h-4.4c-0.1,0.2-0.2,0.5-0.3,0.9c-0.1,0.3-0.2,0.6-0.3,0.9c-0.1,0.3-0.2,0.6-0.2,0.7
		c0,0.1,0,0.3,0,0.3c0,0.2,0.1,0.4,0.4,0.5c0.3,0.1,0.8,0.2,1.5,0.3v0.7h-5.2v-0.7c0.2,0,0.4,0,0.7-0.1c0.3-0.1,0.4-0.1,0.6-0.2
		c0.2-0.1,0.5-0.3,0.6-0.5c0.2-0.2,0.3-0.5,0.4-0.7c0.7-1.7,1.4-3.4,2.1-5.1c0.7-1.7,1.5-3.6,2.3-5.6h1.8c1.2,2.9,2.1,5.2,2.8,6.8
		c0.7,1.7,1.2,3.1,1.7,4.2c0.1,0.2,0.2,0.3,0.3,0.5c0.1,0.1,0.3,0.3,0.5,0.4c0.2,0.1,0.4,0.2,0.6,0.2c0.2,0,0.4,0.1,0.6,0.1V118.5z
		 M22.1,113.3l-1.8-4.6l-1.8,4.6H22.1z M41.9,109.4h-0.7c-0.2-0.5-0.5-1.1-0.9-1.8c-0.4-0.6-0.8-1-1.1-1c-0.2,0-0.4,0-0.7-0.1
		c-0.3,0-0.5,0-0.7,0h-0.4v10c0,0.2,0,0.4,0.1,0.6c0.1,0.2,0.2,0.3,0.5,0.4c0.1,0.1,0.4,0.1,0.6,0.2c0.3,0.1,0.5,0.1,0.7,0.1v0.7
		h-7.1v-0.7c0.2,0,0.4,0,0.7-0.1c0.3,0,0.5-0.1,0.6-0.1c0.2-0.1,0.4-0.2,0.5-0.4c0.1-0.2,0.1-0.4,0.1-0.6v-10.1h-0.4
		c-0.2,0-0.4,0-0.7,0c-0.3,0-0.5,0-0.7,0.1c-0.3,0-0.7,0.4-1.1,1c-0.4,0.6-0.7,1.2-0.9,1.8h-0.7v-3.6h12.4V109.4z M58.7,118.5h-5
		c-0.8-1.2-1.4-2.1-2.1-2.9c-0.6-0.8-1.4-1.8-2.3-3h-0.5v4c0,0.2,0,0.4,0.1,0.5c0.1,0.1,0.2,0.3,0.5,0.4c0.1,0,0.3,0.1,0.5,0.1
		c0.2,0,0.4,0.1,0.6,0.1v0.7h-6.8v-0.7c0.2,0,0.4,0,0.7-0.1c0.3,0,0.5-0.1,0.6-0.1c0.2-0.1,0.4-0.2,0.4-0.4c0.1-0.1,0.1-0.3,0.1-0.6
		v-9c0-0.2,0-0.4-0.1-0.5c-0.1-0.1-0.2-0.3-0.5-0.4c-0.2-0.1-0.4-0.2-0.7-0.2c-0.3-0.1-0.5-0.1-0.6-0.1v-0.7h7v0.7
		c-0.2,0-0.4,0-0.7,0.1c-0.3,0-0.5,0.1-0.7,0.1c-0.2,0.1-0.4,0.2-0.5,0.4c-0.1,0.2-0.1,0.4-0.1,0.6v4.3h0.4c0.5-0.4,1-0.9,1.6-1.5
		c0.6-0.6,1.1-1.1,1.4-1.5c0.5-0.5,0.8-1,1.1-1.3c0.2-0.3,0.3-0.6,0.3-0.8c0-0.1-0.1-0.2-0.3-0.2c-0.2-0.1-0.5-0.1-1-0.1v-0.7h5.5
		v0.7c-0.7,0.1-1.2,0.2-1.7,0.4c-0.5,0.2-0.9,0.5-1.4,0.9c-0.6,0.6-1.2,1.1-1.6,1.5c-0.4,0.4-0.9,1-1.6,1.6c0.6,0.7,1.3,1.6,2.1,2.6
		c0.8,1,1.6,2,2.4,3c0.2,0.2,0.4,0.5,0.7,0.7c0.3,0.2,0.6,0.4,0.9,0.5c0.2,0.1,0.3,0.1,0.5,0.2s0.4,0.1,0.5,0.1V118.5z M71.7,107.1
		c0.6,0.6,1.1,1.3,1.5,2.1c0.4,0.8,0.6,1.7,0.6,2.8c0,0.9-0.2,1.8-0.5,2.6c-0.3,0.8-0.8,1.6-1.3,2.2c-0.6,0.6-1.3,1.1-2.2,1.5
		c-0.8,0.3-1.8,0.5-3,0.5c-0.9,0-1.8-0.2-2.6-0.5c-0.8-0.3-1.6-0.7-2.2-1.3c-0.6-0.6-1.1-1.3-1.5-2.1c-0.4-0.8-0.5-1.7-0.5-2.7
		c0-1,0.2-2,0.5-2.8c0.4-0.9,0.9-1.6,1.5-2.2c0.6-0.6,1.3-1,2.2-1.4c0.9-0.3,1.8-0.5,2.7-0.5c1,0,1.8,0.2,2.7,0.5
		C70.3,106.2,71.1,106.6,71.7,107.1z M69.4,116.3c0.3-0.5,0.5-1.2,0.6-1.8c0.1-0.7,0.2-1.5,0.2-2.3c0-0.7-0.1-1.5-0.2-2.1
		c-0.1-0.7-0.3-1.3-0.5-1.9c-0.3-0.5-0.6-1-1-1.3c-0.4-0.3-1-0.5-1.6-0.5c-1.1,0-1.9,0.5-2.5,1.5c-0.6,1-0.8,2.5-0.8,4.3
		c0,0.8,0.1,1.5,0.2,2.3c0.1,0.7,0.3,1.3,0.6,1.9c0.3,0.5,0.6,0.9,1,1.2c0.4,0.3,0.9,0.4,1.5,0.4c0.6,0,1.1-0.1,1.5-0.4
		C68.8,117.2,69.1,116.8,69.4,116.3z M89.9,106.4c-0.2,0-0.4,0.1-0.6,0.1c-0.2,0.1-0.4,0.1-0.6,0.3c-0.3,0.1-0.5,0.3-0.6,0.5
		c-0.1,0.2-0.3,0.4-0.4,0.7c-0.2,0.4-0.4,1-0.8,1.8c-0.3,0.8-0.7,1.7-1.1,2.7c-0.4,0.9-0.8,1.9-1.2,3c-0.4,1.1-0.9,2.1-1.3,3.1h-1.8
		c-0.8-2.1-1.7-4.1-2.6-6.3c-0.9-2.1-1.5-3.6-1.8-4.4c-0.1-0.3-0.3-0.5-0.4-0.7c-0.1-0.2-0.3-0.3-0.6-0.5c-0.2-0.1-0.4-0.2-0.5-0.2
		c-0.2,0-0.4-0.1-0.6-0.1v-0.7h6.9v0.7c-0.6,0.1-1.1,0.2-1.3,0.3c-0.2,0.1-0.3,0.2-0.3,0.3c0,0.1,0,0.1,0,0.2c0,0.1,0.1,0.2,0.1,0.3
		c0.2,0.5,0.5,1.4,1,2.6c0.5,1.2,1.2,3,2.2,5.5c0.6-1.5,1.1-2.8,1.5-3.8c0.4-1,0.8-1.9,1.1-2.7c0.1-0.4,0.3-0.7,0.4-1.1
		c0.1-0.3,0.2-0.6,0.2-0.8c0-0.2-0.1-0.3-0.4-0.5c-0.3-0.1-0.8-0.2-1.5-0.3v-0.7h5.2V106.4z M96.6,118.8c-0.8,0-1.5-0.1-2.2-0.3
		c-0.7-0.2-1.2-0.4-1.7-0.7l-0.6,0.6h-0.8l-0.1-4.6H92c0.2,0.4,0.4,0.9,0.7,1.4c0.3,0.5,0.6,0.9,0.9,1.3c0.4,0.4,0.8,0.7,1.2,1
		c0.5,0.3,1,0.4,1.6,0.4c0.8,0,1.4-0.2,1.9-0.6c0.4-0.4,0.7-0.9,0.7-1.5c0-0.5-0.2-0.9-0.6-1.2c-0.4-0.3-0.9-0.6-1.7-0.9
		c-0.5-0.2-1-0.3-1.4-0.4c-0.4-0.1-0.8-0.3-1.2-0.4c-0.9-0.3-1.5-0.8-1.9-1.5c-0.4-0.6-0.6-1.3-0.6-2.1c0-0.5,0.1-1,0.3-1.4
		c0.2-0.5,0.5-0.9,0.9-1.2c0.4-0.3,0.9-0.6,1.5-0.8c0.6-0.2,1.3-0.3,2-0.3c0.7,0,1.4,0.1,2,0.3c0.6,0.2,1.1,0.4,1.5,0.6l0.5-0.5h0.8
		l0.1,4.3h-0.8c-0.2-0.5-0.4-0.9-0.6-1.4c-0.2-0.5-0.5-0.9-0.8-1.2c-0.3-0.3-0.6-0.6-1-0.8c-0.4-0.2-0.8-0.3-1.3-0.3
		c-0.6,0-1.2,0.2-1.6,0.5c-0.4,0.4-0.6,0.8-0.6,1.4c0,0.5,0.2,0.9,0.5,1.2c0.4,0.3,0.9,0.6,1.7,0.9c0.4,0.1,0.9,0.3,1.4,0.4
		c0.5,0.1,0.9,0.3,1.2,0.4c0.9,0.3,1.5,0.8,2,1.4c0.5,0.6,0.7,1.3,0.7,2.2c0,0.6-0.1,1.1-0.4,1.6c-0.3,0.5-0.6,0.9-1,1.3
		c-0.5,0.4-1,0.7-1.7,0.9C98.1,118.7,97.4,118.8,96.6,118.8z M119.3,118.5h-5c-0.8-1.2-1.4-2.1-2.1-2.9c-0.6-0.8-1.4-1.8-2.3-3h-0.5
		v4c0,0.2,0,0.4,0.1,0.5c0.1,0.1,0.2,0.3,0.5,0.4c0.1,0,0.3,0.1,0.5,0.1c0.2,0,0.4,0.1,0.6,0.1v0.7h-6.8v-0.7c0.2,0,0.4,0,0.7-0.1
		c0.3,0,0.5-0.1,0.6-0.1c0.2-0.1,0.4-0.2,0.4-0.4c0.1-0.1,0.1-0.3,0.1-0.6v-9c0-0.2,0-0.4-0.1-0.5c-0.1-0.1-0.2-0.3-0.5-0.4
		c-0.2-0.1-0.4-0.2-0.7-0.2c-0.3-0.1-0.5-0.1-0.6-0.1v-0.7h7v0.7c-0.2,0-0.4,0-0.7,0.1c-0.3,0-0.5,0.1-0.7,0.1
		c-0.2,0.1-0.4,0.2-0.5,0.4c-0.1,0.2-0.1,0.4-0.1,0.6v4.3h0.4c0.5-0.4,1-0.9,1.6-1.5c0.6-0.6,1.1-1.1,1.4-1.5c0.5-0.5,0.8-1,1.1-1.3
		c0.2-0.3,0.3-0.6,0.3-0.8c0-0.1-0.1-0.2-0.3-0.2c-0.2-0.1-0.5-0.1-1-0.1v-0.7h5.5v0.7c-0.7,0.1-1.2,0.2-1.7,0.4
		c-0.5,0.2-0.9,0.5-1.4,0.9c-0.6,0.6-1.2,1.1-1.6,1.5c-0.4,0.4-0.9,1-1.6,1.6c0.6,0.7,1.3,1.6,2.1,2.6c0.8,1,1.6,2,2.4,3
		c0.2,0.2,0.4,0.5,0.7,0.7c0.3,0.2,0.6,0.4,0.9,0.5c0.1,0.1,0.3,0.1,0.5,0.2c0.2,0,0.4,0.1,0.5,0.1V118.5z M127.4,118.5h-7.1v-0.7
		c0.2,0,0.4,0,0.7-0.1c0.3,0,0.5-0.1,0.7-0.1c0.2-0.1,0.4-0.2,0.4-0.4c0.1-0.1,0.1-0.3,0.1-0.6v-9c0-0.2,0-0.4-0.1-0.5
		c-0.1-0.2-0.2-0.3-0.5-0.4c-0.1-0.1-0.4-0.1-0.6-0.2c-0.3-0.1-0.5-0.1-0.7-0.1v-0.7h7.1v0.7c-0.2,0-0.4,0-0.7,0.1
		c-0.3,0-0.5,0.1-0.7,0.1c-0.2,0.1-0.4,0.2-0.5,0.4c-0.1,0.2-0.1,0.3-0.1,0.6v9c0,0.2,0,0.4,0.1,0.6c0.1,0.1,0.2,0.3,0.5,0.4
		c0.1,0.1,0.3,0.1,0.6,0.2c0.3,0,0.5,0.1,0.7,0.1V118.5z"/>
</mask>
<path mask="url(#path-1-inside-1_1_)" fill="#C9A96A" stroke="#C9A96A" stroke-width="2" d="M12.9,108.9c0,0.7-0.2,1.3-0.4,1.9
	c-0.3,0.5-0.7,0.9-1.2,1.3c-0.5,0.3-1.2,0.6-1.8,0.7C8.7,112.9,8,113,7.1,113h-1v3.6c0,0.2,0,0.4,0.1,0.6c0.1,0.2,0.2,0.3,0.5,0.4
	c0.1,0,0.3,0.1,0.6,0.2c0.3,0.1,0.5,0.1,0.7,0.1v0.7H1v-0.7c0.2,0,0.4,0,0.7-0.1c0.3,0,0.5-0.1,0.6-0.1c0.2-0.1,0.4-0.2,0.5-0.4
	c0.1-0.1,0.1-0.3,0.1-0.6v-9c0-0.2,0-0.4-0.1-0.5c-0.1-0.2-0.2-0.3-0.5-0.4c-0.2-0.1-0.4-0.1-0.7-0.2c-0.3-0.1-0.5-0.1-0.6-0.1v-0.7
	h7c1.6,0,2.9,0.3,3.7,0.8C12.5,107,12.9,107.8,12.9,108.9z M9.4,109.4c0-1-0.2-1.7-0.6-2.1c-0.4-0.5-1.1-0.7-2.1-0.7H6.1v5.6h0.4
	c1,0,1.7-0.2,2.2-0.7C9.2,111,9.4,110.3,9.4,109.4z M28.8,118.5h-6.9v-0.7c0.3,0,0.7-0.1,1.1-0.2c0.4-0.1,0.7-0.2,0.7-0.3
	c0,0,0-0.1,0-0.2c0-0.1,0-0.1-0.1-0.2l-1.1-2.6h-4.4c-0.1,0.2-0.2,0.5-0.3,0.9c-0.1,0.3-0.2,0.6-0.3,0.9c-0.1,0.3-0.2,0.6-0.2,0.7
	c0,0.1,0,0.3,0,0.3c0,0.2,0.1,0.4,0.4,0.5c0.3,0.1,0.8,0.2,1.5,0.3v0.7h-5.2v-0.7c0.2,0,0.4,0,0.7-0.1c0.3-0.1,0.4-0.1,0.6-0.2
	c0.2-0.1,0.5-0.3,0.6-0.5c0.2-0.2,0.3-0.5,0.4-0.7c0.7-1.7,1.4-3.4,2.1-5.1c0.7-1.7,1.5-3.6,2.3-5.6h1.8c1.2,2.9,2.1,5.2,2.8,6.8
	c0.7,1.7,1.2,3.1,1.7,4.2c0.1,0.2,0.2,0.3,0.3,0.5c0.1,0.1,0.3,0.3,0.5,0.4c0.2,0.1,0.4,0.2,0.6,0.2c0.2,0,0.4,0.1,0.6,0.1V118.5z
	 M22.1,113.3l-1.8-4.6l-1.8,4.6H22.1z M41.9,109.4h-0.7c-0.2-0.5-0.5-1.1-0.9-1.8c-0.4-0.6-0.8-1-1.1-1c-0.2,0-0.4,0-0.7-0.1
	c-0.3,0-0.5,0-0.7,0h-0.4v10c0,0.2,0,0.4,0.1,0.6c0.1,0.2,0.2,0.3,0.5,0.4c0.1,0.1,0.4,0.1,0.6,0.2c0.3,0.1,0.5,0.1,0.7,0.1v0.7
	h-7.1v-0.7c0.2,0,0.4,0,0.7-0.1c0.3,0,0.5-0.1,0.6-0.1c0.2-0.1,0.4-0.2,0.5-0.4c0.1-0.2,0.1-0.4,0.1-0.6v-10.1h-0.4
	c-0.2,0-0.4,0-0.7,0c-0.3,0-0.5,0-0.7,0.1c-0.3,0-0.7,0.4-1.1,1c-0.4,0.6-0.7,1.2-0.9,1.8h-0.7v-3.6h12.4V109.4z M58.7,118.5h-5
	c-0.8-1.2-1.4-2.1-2.1-2.9c-0.6-0.8-1.4-1.8-2.3-3h-0.5v4c0,0.2,0,0.4,0.1,0.5c0.1,0.1,0.2,0.3,0.5,0.4c0.1,0,0.3,0.1,0.5,0.1
	c0.2,0,0.4,0.1,0.6,0.1v0.7h-6.8v-0.7c0.2,0,0.4,0,0.7-0.1c0.3,0,0.5-0.1,0.6-0.1c0.2-0.1,0.4-0.2,0.4-0.4c0.1-0.1,0.1-0.3,0.1-0.6
	v-9c0-0.2,0-0.4-0.1-0.5c-0.1-0.1-0.2-0.3-0.5-0.4c-0.2-0.1-0.4-0.2-0.7-0.2c-0.3-0.1-0.5-0.1-0.6-0.1v-0.7h7v0.7
	c-0.2,0-0.4,0-0.7,0.1c-0.3,0-0.5,0.1-0.7,0.1c-0.2,0.1-0.4,0.2-0.5,0.4c-0.1,0.2-0.1,0.4-0.1,0.6v4.3h0.4c0.5-0.4,1-0.9,1.6-1.5
	c0.6-0.6,1.1-1.1,1.4-1.5c0.5-0.5,0.8-1,1.1-1.3c0.2-0.3,0.3-0.6,0.3-0.8c0-0.1-0.1-0.2-0.3-0.2c-0.2-0.1-0.5-0.1-1-0.1v-0.7h5.5
	v0.7c-0.7,0.1-1.2,0.2-1.7,0.4c-0.5,0.2-0.9,0.5-1.4,0.9c-0.6,0.6-1.2,1.1-1.6,1.5c-0.4,0.4-0.9,1-1.6,1.6c0.6,0.7,1.3,1.6,2.1,2.6
	c0.8,1,1.6,2,2.4,3c0.2,0.2,0.4,0.5,0.7,0.7c0.3,0.2,0.6,0.4,0.9,0.5c0.2,0.1,0.3,0.1,0.5,0.2s0.4,0.1,0.5,0.1V118.5z M71.7,107.1
	c0.6,0.6,1.1,1.3,1.5,2.1c0.4,0.8,0.6,1.7,0.6,2.8c0,0.9-0.2,1.8-0.5,2.6c-0.3,0.8-0.8,1.6-1.3,2.2c-0.6,0.6-1.3,1.1-2.2,1.5
	c-0.8,0.3-1.8,0.5-3,0.5c-0.9,0-1.8-0.2-2.6-0.5c-0.8-0.3-1.6-0.7-2.2-1.3c-0.6-0.6-1.1-1.3-1.5-2.1c-0.4-0.8-0.5-1.7-0.5-2.7
	c0-1,0.2-2,0.5-2.8c0.4-0.9,0.9-1.6,1.5-2.2c0.6-0.6,1.3-1,2.2-1.4c0.9-0.3,1.8-0.5,2.7-0.5c1,0,1.8,0.2,2.7,0.5
	C70.3,106.2,71.1,106.6,71.7,107.1z M69.4,116.3c0.3-0.5,0.5-1.2,0.6-1.8c0.1-0.7,0.2-1.5,0.2-2.3c0-0.7-0.1-1.5-0.2-2.1
	c-0.1-0.7-0.3-1.3-0.5-1.9c-0.3-0.5-0.6-1-1-1.3c-0.4-0.3-1-0.5-1.6-0.5c-1.1,0-1.9,0.5-2.5,1.5c-0.6,1-0.8,2.5-0.8,4.3
	c0,0.8,0.1,1.5,0.2,2.3c0.1,0.7,0.3,1.3,0.6,1.9c0.3,0.5,0.6,0.9,1,1.2c0.4,0.3,0.9,0.4,1.5,0.4c0.6,0,1.1-0.1,1.5-0.4
	C68.8,117.2,69.1,116.8,69.4,116.3z M89.9,106.4c-0.2,0-0.4,0.1-0.6,0.1c-0.2,0.1-0.4,0.1-0.6,0.3c-0.3,0.1-0.5,0.3-0.6,0.5
	c-0.1,0.2-0.3,0.4-0.4,0.7c-0.2,0.4-0.4,1-0.8,1.8c-0.3,0.8-0.7,1.7-1.1,2.7c-0.4,0.9-0.8,1.9-1.2,3c-0.4,1.1-0.9,2.1-1.3,3.1h-1.8
	c-0.8-2.1-1.7-4.1-2.6-6.3c-0.9-2.1-1.5-3.6-1.8-4.4c-0.1-0.3-0.3-0.5-0.4-0.7c-0.1-0.2-0.3-0.3-0.6-0.5c-0.2-0.1-0.4-0.2-0.5-0.2
	c-0.2,0-0.4-0.1-0.6-0.1v-0.7h6.9v0.7c-0.6,0.1-1.1,0.2-1.3,0.3c-0.2,0.1-0.3,0.2-0.3,0.3c0,0.1,0,0.1,0,0.2c0,0.1,0.1,0.2,0.1,0.3
	c0.2,0.5,0.5,1.4,1,2.6c0.5,1.2,1.2,3,2.2,5.5c0.6-1.5,1.1-2.8,1.5-3.8c0.4-1,0.8-1.9,1.1-2.7c0.1-0.4,0.3-0.7,0.4-1.1
	c0.1-0.3,0.2-0.6,0.2-0.8c0-0.2-0.1-0.3-0.4-0.5c-0.3-0.1-0.8-0.2-1.5-0.3v-0.7h5.2V106.4z M96.6,118.8c-0.8,0-1.5-0.1-2.2-0.3
	c-0.7-0.2-1.2-0.4-1.7-0.7l-0.6,0.6h-0.8l-0.1-4.6H92c0.2,0.4,0.4,0.9,0.7,1.4c0.3,0.5,0.6,0.9,0.9,1.3c0.4,0.4,0.8,0.7,1.2,1
	c0.5,0.3,1,0.4,1.6,0.4c0.8,0,1.4-0.2,1.9-0.6c0.4-0.4,0.7-0.9,0.7-1.5c0-0.5-0.2-0.9-0.6-1.2c-0.4-0.3-0.9-0.6-1.7-0.9
	c-0.5-0.2-1-0.3-1.4-0.4c-0.4-0.1-0.8-0.3-1.2-0.4c-0.9-0.3-1.5-0.8-1.9-1.5c-0.4-0.6-0.6-1.3-0.6-2.1c0-0.5,0.1-1,0.3-1.4
	c0.2-0.5,0.5-0.9,0.9-1.2c0.4-0.3,0.9-0.6,1.5-0.8c0.6-0.2,1.3-0.3,2-0.3c0.7,0,1.4,0.1,2,0.3c0.6,0.2,1.1,0.4,1.5,0.6l0.5-0.5h0.8
	l0.1,4.3h-0.8c-0.2-0.5-0.4-0.9-0.6-1.4c-0.2-0.5-0.5-0.9-0.8-1.2c-0.3-0.3-0.6-0.6-1-0.8c-0.4-0.2-0.8-0.3-1.3-0.3
	c-0.6,0-1.2,0.2-1.6,0.5c-0.4,0.4-0.6,0.8-0.6,1.4c0,0.5,0.2,0.9,0.5,1.2c0.4,0.3,0.9,0.6,1.7,0.9c0.4,0.1,0.9,0.3,1.4,0.4
	c0.5,0.1,0.9,0.3,1.2,0.4c0.9,0.3,1.5,0.8,2,1.4c0.5,0.6,0.7,1.3,0.7,2.2c0,0.6-0.1,1.1-0.4,1.6c-0.3,0.5-0.6,0.9-1,1.3
	c-0.5,0.4-1,0.7-1.7,0.9C98.1,118.7,97.4,118.8,96.6,118.8z M119.3,118.5h-5c-0.8-1.2-1.4-2.1-2.1-2.9c-0.6-0.8-1.4-1.8-2.3-3h-0.5
	v4c0,0.2,0,0.4,0.1,0.5c0.1,0.1,0.2,0.3,0.5,0.4c0.1,0,0.3,0.1,0.5,0.1c0.2,0,0.4,0.1,0.6,0.1v0.7h-6.8v-0.7c0.2,0,0.4,0,0.7-0.1
	c0.3,0,0.5-0.1,0.6-0.1c0.2-0.1,0.4-0.2,0.4-0.4c0.1-0.1,0.1-0.3,0.1-0.6v-9c0-0.2,0-0.4-0.1-0.5c-0.1-0.1-0.2-0.3-0.5-0.4
	c-0.2-0.1-0.4-0.2-0.7-0.2c-0.3-0.1-0.5-0.1-0.6-0.1v-0.7h7v0.7c-0.2,0-0.4,0-0.7,0.1c-0.3,0-0.5,0.1-0.7,0.1
	c-0.2,0.1-0.4,0.2-0.5,0.4c-0.1,0.2-0.1,0.4-0.1,0.6v4.3h0.4c0.5-0.4,1-0.9,1.6-1.5c0.6-0.6,1.1-1.1,1.4-1.5c0.5-0.5,0.8-1,1.1-1.3
	c0.2-0.3,0.3-0.6,0.3-0.8c0-0.1-0.1-0.2-0.3-0.2c-0.2-0.1-0.5-0.1-1-0.1v-0.7h5.5v0.7c-0.7,0.1-1.2,0.2-1.7,0.4
	c-0.5,0.2-0.9,0.5-1.4,0.9c-0.6,0.6-1.2,1.1-1.6,1.5c-0.4,0.4-0.9,1-1.6,1.6c0.6,0.7,1.3,1.6,2.1,2.6c0.8,1,1.6,2,2.4,3
	c0.2,0.2,0.4,0.5,0.7,0.7c0.3,0.2,0.6,0.4,0.9,0.5c0.1,0.1,0.3,0.1,0.5,0.2c0.2,0,0.4,0.1,0.5,0.1V118.5z M127.4,118.5h-7.1v-0.7
	c0.2,0,0.4,0,0.7-0.1c0.3,0,0.5-0.1,0.7-0.1c0.2-0.1,0.4-0.2,0.4-0.4c0.1-0.1,0.1-0.3,0.1-0.6v-9c0-0.2,0-0.4-0.1-0.5
	c-0.1-0.2-0.2-0.3-0.5-0.4c-0.1-0.1-0.4-0.1-0.6-0.2c-0.3-0.1-0.5-0.1-0.7-0.1v-0.7h7.1v0.7c-0.2,0-0.4,0-0.7,0.1
	c-0.3,0-0.5,0.1-0.7,0.1c-0.2,0.1-0.4,0.2-0.5,0.4c-0.1,0.2-0.1,0.3-0.1,0.6v9c0,0.2,0,0.4,0.1,0.6c0.1,0.1,0.2,0.3,0.5,0.4
	c0.1,0.1,0.3,0.1,0.6,0.2c0.3,0,0.5,0.1,0.7,0.1V118.5z"/>
<defs>
	<filter id="Adobe_OpacityMaskFilter_1_" filterUnits="userSpaceOnUse" x="16.1" y="0" width="95.7" height="19.4">
		<feColorMatrix  type="matrix" values="1 0 0 0 0  0 1 0 0 0  0 0 1 0 0  0 0 0 1 0"/>
	</filter>
</defs>
<mask maskUnits="userSpaceOnUse" x="16.1" y="0" width="95.7" height="19.4" id="path-2-inside-2_1_">
	<path fill="#FFFFFF" filter="url(#Adobe_OpacityMaskFilter_1_)" d="M36.8,17.9h-8.7V17c0.2,0,0.5,0,0.8-0.1c0.4,0,0.6-0.1,0.7-0.1
		c0.3-0.1,0.5-0.3,0.6-0.5c0.1-0.2,0.2-0.4,0.2-0.7V9.9h-6.9v5.5c0,0.3,0.1,0.5,0.2,0.7c0.1,0.2,0.3,0.4,0.6,0.5
		c0.1,0.1,0.4,0.1,0.7,0.2s0.6,0.1,0.9,0.1v0.9h-8.7V17c0.2,0,0.5,0,0.8-0.1c0.4,0,0.6-0.1,0.8-0.2c0.3-0.1,0.5-0.3,0.6-0.5
		c0.1-0.2,0.2-0.5,0.2-0.7V3.9c0-0.3,0-0.5-0.1-0.7c-0.1-0.2-0.3-0.3-0.6-0.5c-0.2-0.1-0.5-0.2-0.9-0.3c-0.4-0.1-0.6-0.1-0.8-0.2
		V1.5h8.7v0.9c-0.2,0-0.5,0.1-0.8,0.1c-0.3,0.1-0.6,0.1-0.7,0.2c-0.3,0.1-0.5,0.3-0.6,0.5c-0.1,0.2-0.1,0.4-0.1,0.7v4.9h6.9V3.9
		c0-0.3,0-0.5-0.1-0.7c-0.1-0.2-0.3-0.3-0.6-0.5c-0.2-0.1-0.5-0.2-0.8-0.3c-0.3-0.1-0.6-0.1-0.8-0.2V1.5h8.7v0.9
		c-0.2,0-0.5,0.1-0.8,0.1c-0.3,0-0.6,0.1-0.8,0.2c-0.3,0.1-0.5,0.3-0.6,0.5c-0.1,0.2-0.1,0.5-0.1,0.7v11.7c0,0.3,0,0.5,0.1,0.7
		c0.1,0.2,0.3,0.4,0.6,0.5c0.2,0.1,0.4,0.1,0.8,0.2c0.3,0.1,0.6,0.1,0.8,0.1V17.9z M54.6,3.3C55.4,4,56,4.9,56.5,6
		c0.5,1.1,0.7,2.3,0.7,3.6c0,1.2-0.2,2.3-0.6,3.4c-0.4,1.1-1,2-1.7,2.8c-0.8,0.8-1.7,1.4-2.7,1.9c-1.1,0.4-2.3,0.7-3.8,0.7
		c-1.2,0-2.3-0.2-3.3-0.6c-1-0.4-2-1-2.8-1.7c-0.8-0.7-1.4-1.6-1.9-2.7c-0.5-1.1-0.7-2.2-0.7-3.5c0-1.3,0.2-2.6,0.7-3.7
		c0.5-1.1,1.1-2,1.9-2.8C43.1,2.6,44,2,45,1.6C46.1,1.2,47.3,1,48.5,1c1.2,0,2.3,0.2,3.4,0.6C52.9,2,53.8,2.6,54.6,3.3z M51.7,15.1
		c0.3-0.7,0.6-1.5,0.7-2.4c0.2-0.9,0.2-1.9,0.2-3c0-1-0.1-1.9-0.2-2.8c-0.1-0.9-0.4-1.7-0.7-2.4c-0.3-0.7-0.8-1.3-1.3-1.7
		c-0.5-0.4-1.2-0.6-2-0.6c-1.4,0-2.4,0.7-3.1,2c-0.7,1.3-1.1,3.2-1.1,5.6c0,1,0.1,2,0.2,2.9c0.2,0.9,0.4,1.7,0.7,2.4
		c0.3,0.7,0.8,1.2,1.3,1.6c0.5,0.4,1.2,0.6,1.9,0.6c0.7,0,1.4-0.2,1.9-0.6C50.9,16.3,51.4,15.7,51.7,15.1z M75.1,6.2h-0.9
		c-0.2-0.7-0.6-1.5-1.1-2.3c-0.5-0.8-1-1.2-1.4-1.3c-0.2,0-0.5-0.1-0.9-0.1c-0.4,0-0.7,0-0.9,0h-0.5v12.9c0,0.3,0,0.5,0.1,0.7
		c0.1,0.2,0.3,0.4,0.6,0.5c0.2,0.1,0.4,0.1,0.8,0.2c0.4,0.1,0.7,0.1,0.9,0.2v0.9h-9V17c0.2,0,0.5-0.1,0.9-0.1c0.4,0,0.7-0.1,0.8-0.2
		c0.3-0.1,0.5-0.3,0.6-0.5c0.1-0.2,0.1-0.5,0.1-0.7v-13h-0.5c-0.3,0-0.6,0-0.9,0c-0.4,0-0.7,0.1-0.9,0.1c-0.4,0.1-0.9,0.5-1.4,1.3
		c-0.5,0.8-0.9,1.6-1.1,2.3h-0.9V1.5h15.6V6.2z M91.7,5.7h-0.9c-0.2-0.6-0.6-1.3-1.1-1.9s-1.1-1-1.6-1.1c-0.2-0.1-0.5-0.1-1-0.1
		c-0.4,0-0.7,0-1,0h-2.3v6.4h1.7c0.4,0,0.8-0.1,1.1-0.2c0.3-0.1,0.6-0.3,0.9-0.6c0.2-0.2,0.3-0.5,0.5-0.9c0.2-0.4,0.3-0.8,0.4-1.2
		h0.9v6.9h-0.9c0-0.3-0.2-0.7-0.4-1.2c-0.2-0.5-0.4-0.8-0.5-1c-0.3-0.3-0.5-0.5-0.9-0.6C86.3,10,86,9.9,85.5,9.9h-1.7v4.7
		c0,0.5,0,0.9,0.1,1.2c0.1,0.3,0.2,0.5,0.4,0.7c0.2,0.1,0.4,0.2,0.8,0.3c0.3,0,0.8,0.1,1.3,0.1c0.3,0,0.6,0,1,0c0.4,0,0.7,0,1-0.1
		c0.3,0,0.6-0.1,0.9-0.2c0.3-0.1,0.5-0.2,0.6-0.3c0.4-0.4,0.8-1,1.2-1.7c0.5-0.8,0.8-1.4,0.9-1.8h0.8l-0.3,5.1H77.5V17
		c0.2,0,0.5,0,0.9-0.1c0.4,0,0.6-0.1,0.8-0.2c0.3-0.1,0.5-0.3,0.6-0.5c0.1-0.2,0.1-0.4,0.1-0.7V3.9c0-0.3,0-0.5-0.1-0.7
		c-0.1-0.2-0.3-0.4-0.6-0.5c-0.2-0.1-0.5-0.2-0.8-0.3c-0.4-0.1-0.6-0.1-0.8-0.2V1.5h14.3V5.7z M110.8,12.6l-0.3,5.3H95.6V17
		c0.3,0,0.6-0.1,0.9-0.1c0.4-0.1,0.6-0.1,0.7-0.2c0.3-0.1,0.5-0.3,0.6-0.5c0.1-0.2,0.2-0.4,0.2-0.7V3.9c0-0.3,0-0.5-0.1-0.7
		c-0.1-0.2-0.3-0.4-0.6-0.5c-0.2-0.1-0.5-0.2-0.9-0.3c-0.3-0.1-0.6-0.1-0.8-0.2V1.5h8.8v0.9c-0.2,0-0.5,0.1-0.9,0.1
		c-0.3,0-0.6,0.1-0.9,0.2c-0.3,0.1-0.5,0.3-0.6,0.5c-0.1,0.2-0.1,0.4-0.1,0.7v10.8c0,0.5,0,0.9,0.1,1.2c0.1,0.3,0.2,0.5,0.4,0.6
		c0.2,0.1,0.5,0.2,0.8,0.3c0.4,0,0.8,0.1,1.5,0.1c0.6,0,1.2,0,1.8-0.1c0.6-0.1,1-0.2,1.2-0.5c0.4-0.4,0.8-0.9,1.2-1.7
		c0.4-0.7,0.7-1.4,1-2H110.8z"/>
</mask>
<path mask="url(#path-2-inside-2_1_)" fill="#C9A96A" stroke="#C9A96A" stroke-width="2" d="M36.8,17.9h-8.7V17c0.2,0,0.5,0,0.8-0.1
	c0.4,0,0.6-0.1,0.7-0.1c0.3-0.1,0.5-0.3,0.6-0.5c0.1-0.2,0.2-0.4,0.2-0.7V9.9h-6.9v5.5c0,0.3,0.1,0.5,0.2,0.7
	c0.1,0.2,0.3,0.4,0.6,0.5c0.1,0.1,0.4,0.1,0.7,0.2s0.6,0.1,0.9,0.1v0.9h-8.7V17c0.2,0,0.5,0,0.8-0.1c0.4,0,0.6-0.1,0.8-0.2
	c0.3-0.1,0.5-0.3,0.6-0.5c0.1-0.2,0.2-0.5,0.2-0.7V3.9c0-0.3,0-0.5-0.1-0.7c-0.1-0.2-0.3-0.3-0.6-0.5c-0.2-0.1-0.5-0.2-0.9-0.3
	c-0.4-0.1-0.6-0.1-0.8-0.2V1.5h8.7v0.9c-0.2,0-0.5,0.1-0.8,0.1c-0.3,0.1-0.6,0.1-0.7,0.2c-0.3,0.1-0.5,0.3-0.6,0.5
	c-0.1,0.2-0.1,0.4-0.1,0.7v4.9h6.9V3.9c0-0.3,0-0.5-0.1-0.7c-0.1-0.2-0.3-0.3-0.6-0.5c-0.2-0.1-0.5-0.2-0.8-0.3
	c-0.3-0.1-0.6-0.1-0.8-0.2V1.5h8.7v0.9c-0.2,0-0.5,0.1-0.8,0.1c-0.3,0-0.6,0.1-0.8,0.2c-0.3,0.1-0.5,0.3-0.6,0.5
	c-0.1,0.2-0.1,0.5-0.1,0.7v11.7c0,0.3,0,0.5,0.1,0.7c0.1,0.2,0.3,0.4,0.6,0.5c0.2,0.1,0.4,0.1,0.8,0.2c0.3,0.1,0.6,0.1,0.8,0.1V17.9
	z M54.6,3.3C55.4,4,56,4.9,56.5,6c0.5,1.1,0.7,2.3,0.7,3.6c0,1.2-0.2,2.3-0.6,3.4c-0.4,1.1-1,2-1.7,2.8c-0.8,0.8-1.7,1.4-2.7,1.9
	c-1.1,0.4-2.3,0.7-3.8,0.7c-1.2,0-2.3-0.2-3.3-0.6c-1-0.4-2-1-2.8-1.7c-0.8-0.7-1.4-1.6-1.9-2.7c-0.5-1.1-0.7-2.2-0.7-3.5
	c0-1.3,0.2-2.6,0.7-3.7c0.5-1.1,1.1-2,1.9-2.8C43.1,2.6,44,2,45,1.6C46.1,1.2,47.3,1,48.5,1c1.2,0,2.3,0.2,3.4,0.6
	C52.9,2,53.8,2.6,54.6,3.3z M51.7,15.1c0.3-0.7,0.6-1.5,0.7-2.4c0.2-0.9,0.2-1.9,0.2-3c0-1-0.1-1.9-0.2-2.8
	c-0.1-0.9-0.4-1.7-0.7-2.4c-0.3-0.7-0.8-1.3-1.3-1.7c-0.5-0.4-1.2-0.6-2-0.6c-1.4,0-2.4,0.7-3.1,2c-0.7,1.3-1.1,3.2-1.1,5.6
	c0,1,0.1,2,0.2,2.9c0.2,0.9,0.4,1.7,0.7,2.4c0.3,0.7,0.8,1.2,1.3,1.6c0.5,0.4,1.2,0.6,1.9,0.6c0.7,0,1.4-0.2,1.9-0.6
	C50.9,16.3,51.4,15.7,51.7,15.1z M75.1,6.2h-0.9c-0.2-0.7-0.6-1.5-1.1-2.3c-0.5-0.8-1-1.2-1.4-1.3c-0.2,0-0.5-0.1-0.9-0.1
	c-0.4,0-0.7,0-0.9,0h-0.5v12.9c0,0.3,0,0.5,0.1,0.7c0.1,0.2,0.3,0.4,0.6,0.5c0.2,0.1,0.4,0.1,0.8,0.2c0.4,0.1,0.7,0.1,0.9,0.2v0.9
	h-9V17c0.2,0,0.5-0.1,0.9-0.1c0.4,0,0.7-0.1,0.8-0.2c0.3-0.1,0.5-0.3,0.6-0.5c0.1-0.2,0.1-0.5,0.1-0.7v-13h-0.5c-0.3,0-0.6,0-0.9,0
	c-0.4,0-0.7,0.1-0.9,0.1c-0.4,0.1-0.9,0.5-1.4,1.3c-0.5,0.8-0.9,1.6-1.1,2.3h-0.9V1.5h15.6V6.2z M91.7,5.7h-0.9
	c-0.2-0.6-0.6-1.3-1.1-1.9s-1.1-1-1.6-1.1c-0.2-0.1-0.5-0.1-1-0.1c-0.4,0-0.7,0-1,0h-2.3v6.4h1.7c0.4,0,0.8-0.1,1.1-0.2
	c0.3-0.1,0.6-0.3,0.9-0.6c0.2-0.2,0.3-0.5,0.5-0.9c0.2-0.4,0.3-0.8,0.4-1.2h0.9v6.9h-0.9c0-0.3-0.2-0.7-0.4-1.2
	c-0.2-0.5-0.4-0.8-0.5-1c-0.3-0.3-0.5-0.5-0.9-0.6C86.3,10,86,9.9,85.5,9.9h-1.7v4.7c0,0.5,0,0.9,0.1,1.2c0.1,0.3,0.2,0.5,0.4,0.7
	c0.2,0.1,0.4,0.2,0.8,0.3c0.3,0,0.8,0.1,1.3,0.1c0.3,0,0.6,0,1,0c0.4,0,0.7,0,1-0.1c0.3,0,0.6-0.1,0.9-0.2c0.3-0.1,0.5-0.2,0.6-0.3
	c0.4-0.4,0.8-1,1.2-1.7c0.5-0.8,0.8-1.4,0.9-1.8h0.8l-0.3,5.1H77.5V17c0.2,0,0.5,0,0.9-0.1c0.4,0,0.6-0.1,0.8-0.2
	c0.3-0.1,0.5-0.3,0.6-0.5c0.1-0.2,0.1-0.4,0.1-0.7V3.9c0-0.3,0-0.5-0.1-0.7c-0.1-0.2-0.3-0.4-0.6-0.5c-0.2-0.1-0.5-0.2-0.8-0.3
	c-0.4-0.1-0.6-0.1-0.8-0.2V1.5h14.3V5.7z M110.8,12.6l-0.3,5.3H95.6V17c0.3,0,0.6-0.1,0.9-0.1c0.4-0.1,0.6-0.1,0.7-0.2
	c0.3-0.1,0.5-0.3,0.6-0.5c0.1-0.2,0.2-0.4,0.2-0.7V3.9c0-0.3,0-0.5-0.1-0.7c-0.1-0.2-0.3-0.4-0.6-0.5c-0.2-0.1-0.5-0.2-0.9-0.3
	c-0.3-0.1-0.6-0.1-0.8-0.2V1.5h8.8v0.9c-0.2,0-0.5,0.1-0.9,0.1c-0.3,0-0.6,0.1-0.9,0.2c-0.3,0.1-0.5,0.3-0.6,0.5
	c-0.1,0.2-0.1,0.4-0.1,0.7v10.8c0,0.5,0,0.9,0.1,1.2c0.1,0.3,0.2,0.5,0.4,0.6c0.2,0.1,0.5,0.2,0.8,0.3c0.4,0,0.8,0.1,1.5,0.1
	c0.6,0,1.2,0,1.8-0.1c0.6-0.1,1-0.2,1.2-0.5c0.4-0.4,0.8-0.9,1.2-1.7c0.4-0.7,0.7-1.4,1-2H110.8z"/>
<path fill="#C9A96A" stroke="#C9A96A" d="M111,47L98.8,61.8l-0.2-0.2L111,47z M116.1,40.3l0.7-2.2l3.5-2.3l-1.7,3.8l-2,1.1
	L116.1,40.3z"/>
<path fill-rule="evenodd" clip-rule="evenodd" fill="#C9A96A" d="M45.6,43.7L45.6,43.7c0,0,0.1,0,0.1,0
	C45.7,43.7,45.6,43.7,45.6,43.7z"/>
<path fill-rule="evenodd" clip-rule="evenodd" fill="#C9A96A" d="M45.2,77.9C45.2,77.9,45.2,77.9,45.2,77.9
	C45.2,77.9,45.2,77.9,45.2,77.9C45.2,77.9,45.2,77.9,45.2,77.9C45.2,77.9,45.2,77.9,45.2,77.9C45.2,77.9,45.2,77.9,45.2,77.9
	C45.2,77.9,45.2,77.9,45.2,77.9z"/>
<path fill-rule="evenodd" clip-rule="evenodd" fill="#C9A96A" d="M45.2,77.9C45.2,77.9,45.2,77.9,45.2,77.9
	C45.2,77.9,45.2,77.9,45.2,77.9C45.2,77.9,45.2,77.9,45.2,77.9C45.2,77.9,45.2,77.9,45.2,77.9C45.2,77.9,45.2,77.9,45.2,77.9
	L45.2,77.9z"/>
<path fill-rule="evenodd" clip-rule="evenodd" fill="#C9A96A" d="M45.2,77.9C45.2,77.9,45.2,77.9,45.2,77.9
	C45.2,77.9,45.2,77.9,45.2,77.9L45.2,77.9L45.2,77.9L45.2,77.9C45.2,77.9,45.2,77.9,45.2,77.9z"/>
<path fill-rule="evenodd" clip-rule="evenodd" fill="#C9A96A" d="M45.2,77.9C45.2,77.9,45.2,77.9,45.2,77.9
	C45.2,77.9,45.2,77.9,45.2,77.9L45.2,77.9L45.2,77.9L45.2,77.9C45.2,77.9,45.2,77.9,45.2,77.9z"/>
<path fill-rule="evenodd" clip-rule="evenodd" fill="#C9A96A" d="M45.2,77.9C45.2,77.9,45.2,77.9,45.2,77.9
	C45.2,77.9,45.2,77.9,45.2,77.9L45.2,77.9L45.2,77.9L45.2,77.9C45.2,77.9,45.2,77.9,45.2,77.9z"/>
<path fill-rule="evenodd" clip-rule="evenodd" fill="#C9A96A" d="M45.2,77.9C45.2,77.9,45.2,77.9,45.2,77.9
	C45.2,77.9,45.2,77.9,45.2,77.9L45.2,77.9L45.2,77.9L45.2,77.9C45.2,77.9,45.2,77.9,45.2,77.9z"/>
<path fill-rule="evenodd" clip-rule="evenodd" fill="#C9A96A" d="M41.3,54.4C41.3,54.4,41.3,54.4,41.3,54.4L41.3,54.4
	C41.3,54.4,41.3,54.4,41.3,54.4z"/>
<path fill-rule="evenodd" clip-rule="evenodd" fill="#C9A96A" d="M37.1,72.9C37.1,72.9,37.1,72.9,37.1,72.9
	C37,72.9,37,72.9,37.1,72.9L37.1,72.9z M38.1,71.4C38.1,71.4,38.1,71.4,38.1,71.4L38.1,71.4z"/>
<path fill-rule="evenodd" clip-rule="evenodd" fill="#C9A96A" d="M83.8,43.7L83.8,43.7c0,0-0.1,0-0.1,0
	C83.7,43.7,83.8,43.7,83.8,43.7z"/>
<path fill-rule="evenodd" clip-rule="evenodd" fill="#C9A96A" d="M84.1,77.9C84.1,77.9,84.1,77.9,84.1,77.9
	C84.2,77.9,84.2,77.9,84.1,77.9C84.2,77.9,84.2,77.9,84.1,77.9C84.2,77.9,84.2,77.9,84.1,77.9C84.2,77.9,84.1,77.9,84.1,77.9
	C84.1,77.9,84.1,77.9,84.1,77.9z"/>
<path fill-rule="evenodd" clip-rule="evenodd" fill="#C9A96A" d="M84.1,77.9C84.1,77.9,84.1,77.9,84.1,77.9
	C84.1,77.9,84.2,77.9,84.1,77.9C84.2,77.9,84.2,77.9,84.1,77.9C84.2,77.9,84.2,77.9,84.1,77.9C84.2,77.9,84.2,77.9,84.1,77.9
	L84.1,77.9z"/>
<path fill-rule="evenodd" clip-rule="evenodd" fill="#C9A96A" d="M84.1,77.9C84.1,77.9,84.2,77.9,84.1,77.9
	C84.2,77.9,84.2,77.9,84.1,77.9L84.1,77.9L84.1,77.9L84.1,77.9C84.1,77.9,84.1,77.9,84.1,77.9z"/>
<path fill-rule="evenodd" clip-rule="evenodd" fill="#C9A96A" d="M84.1,77.9C84.1,77.9,84.2,77.9,84.1,77.9
	C84.2,77.9,84.2,77.9,84.1,77.9L84.1,77.9L84.1,77.9L84.1,77.9C84.1,77.9,84.1,77.9,84.1,77.9z"/>
<path fill-rule="evenodd" clip-rule="evenodd" fill="#C9A96A" d="M84.1,77.9C84.1,77.9,84.2,77.9,84.1,77.9
	C84.2,77.9,84.2,77.9,84.1,77.9L84.1,77.9L84.1,77.9L84.1,77.9C84.1,77.9,84.1,77.9,84.1,77.9z"/>
<path fill-rule="evenodd" clip-rule="evenodd" fill="#C9A96A" d="M84.1,77.9C84.1,77.9,84.2,77.9,84.1,77.9
	C84.2,77.9,84.2,77.9,84.1,77.9L84.1,77.9L84.1,77.9L84.1,77.9C84.1,77.9,84.1,77.9,84.1,77.9z"/>
<path fill-rule="evenodd" clip-rule="evenodd" fill="#C9A96A" d="M88,54.4C88,54.4,88,54.4,88,54.4L88,54.4C88,54.4,88,54.4,88,54.4
	z"/>
<path fill-rule="evenodd" clip-rule="evenodd" fill="#C9A96A" d="M92.3,72.9C92.3,72.9,92.3,72.9,92.3,72.9
	C92.3,72.9,92.3,72.9,92.3,72.9L92.3,72.9z M91.3,71.4C91.3,71.4,91.3,71.4,91.3,71.4L91.3,71.4z"/>
<path fill="#C9A96A" d="M76.2,42.7c0.3-0.1,0.9-0.3,1.5-0.5c1.1-0.5,2.3-1.1,2.3-1.1c1.1,0.3,1.8,0.8,2.3,1.5c0.3,0.3,0.5,0.6,0.6,1
	c0.1,0.3,0.2,0.5,0.2,0.9c-0.5-0.4-1-0.7-1.6-0.8c-0.1,0-0.1,0.1,0,0.1c0.5,0.1,0.9,0.4,1.3,0.8c-0.7-0.2-1.5,0-2.2,0.1
	c-0.1,0-0.1,0-0.2,0c-1.2,0.3-2.4,0.2-3.6,0c-0.4-0.1-0.8-0.2-1.2-0.3c-0.7-0.2-1.4-0.4-2.3-0.4c0.1,0,0.3-0.1,0.4-0.1
	c0.4-0.1,0.9-0.1,1.3-0.2c0.9-0.1,1.4,0,2.3,0.1c0,0,0,0,0,0c0,0,0,0,0,0c0,0,0,0,0,0c0,0,0,0,0,0l0,0c-0.9-0.2-1.4-0.3-2.3-0.3
	c-0.1,0-0.2,0-0.3,0c0.5-0.1,1-0.2,1.4-0.3c0,0,0.1,0,0.1,0c0.1,0,0.2,0,0.3,0c0.6-0.1,1-0.1,1.7-0.1c0.4,0,0.9,0,1.3,0
	c0.1,0,0.2,0,0.3,0c0.3,0,0.5,0.1,0.8,0.1c0,0,0,0,0,0s0,0,0,0c0,0,0,0,0,0c0,0,0,0,0,0c-0.3-0.1-0.7-0.2-1.1-0.2c0,0-0.1,0-0.1,0
	c0,0-0.1,0-0.1,0c-0.4,0-0.8-0.1-1.2-0.1C77.4,42.6,77.1,42.6,76.2,42.7z"/>
<path fill="#C9A96A" d="M73.8,84.7c0.7-1.2,1-1.8,1.9-2.5c0.6-0.5,1.5-0.7,2.2-0.4c0,0,0,0,0-0.1c0,0,0,0,0,0c-0.1,0-0.1,0-0.2-0.1
	c-0.2,0-0.3-0.1-0.5-0.1c-0.2,0-0.5,0-0.7,0.1c0,0,0,0,0,0c0.3-0.2,0.7-0.2,1-0.2c-0.1,0-0.2,0-0.4,0c-0.4,0-0.7,0-1.1,0.2
	c0,0,0,0,0,0c0.6-0.3,1.3-0.5,1.9-0.3c0-0.1,0.1-0.1,0.1-0.2c0.1-0.2,0.3-0.3,0.5-0.3c0,0,0.1,0,0,0.1c-0.4,0.3-0.5,1-0.3,1.4
	c0.1,0.1,0.1,0.2,0.2,0.3c0.5,0.3,1.1,0,1.4-0.6c0.3-0.7-0.2-1.5-0.7-1.9c0,0,0,0,0,0c0.8,0.4,1.3,1.3,0.9,2.2
	c-0.1,0.2-0.2,0.3-0.3,0.4c0.4-0.2,0.6-0.6,0.7-1c0.1-0.6-0.2-1.1-0.6-1.4c-0.9-0.8-2.3-0.7-3.3-0.2c-1,0.5-1.8,1.3-2.3,2.3
	C73.8,83.1,73.7,83.5,73.8,84.7z"/>
<path fill="#C9A96A" d="M85.2,50.7c-0.1,0-0.2,0-0.3,0c-0.4,0-0.9-0.1-1.3-0.3c-0.7-0.3-1.3-1-1.4-1.8c0,0,0,0-0.1,0c0,0,0,0,0,0
	c0,0.1,0,0.1,0.1,0.2v0l0,0c0,0.2,0.1,0.3,0.1,0.5c0.1,0.2,0.2,0.4,0.4,0.6c0,0,0,0,0,0c-0.3-0.2-0.5-0.5-0.7-0.8
	c0,0.1,0.1,0.2,0.1,0.3c0.2,0.3,0.4,0.6,0.7,0.8c0,0,0,0,0,0c-0.5-0.4-1.1-0.9-1.2-1.6c-0.1,0-0.2,0-0.2,0c-0.2,0-0.4-0.1-0.5-0.2
	c0,0,0-0.1,0-0.1c0.5,0.2,1.1,0,1.4-0.4c0.1-0.1,0.1-0.2,0.1-0.3c0-0.6-0.5-1-1.1-1c-0.8,0.1-1.2,0.8-1.3,1.6c0,0,0,0,0,0
	c0-0.9,0.5-1.8,1.5-1.8c0.2,0,0.4,0,0.5,0.1c-0.4-0.3-0.8-0.3-1.2-0.1c-0.5,0.2-0.9,0.7-1,1.2c-0.3,1.2,0.5,2.3,1.4,3
	c0.9,0.7,2,1,3.2,1c0.2,0,0.5-0.1,0.8-0.1C85.1,51.3,85.1,51,85.2,50.7z"/>
<path fill="#C9A96A" d="M78.1,41.6c1.3-0.6,2.1-1.1,2.6-1.4c-0.4,0.1-0.5,0.1-1.1,0.2c-0.4,0.1-0.9,0.2-1.5,0.2c-0.5,0-0.9,0-1.3,0
	c-0.8,0-1.6-0.4-2-1.1c0,0,0,0,0,0c0,0,0,0,0,0c0,0.1,0.1,0.1,0.1,0.2c0.1,0.1,0.2,0.3,0.3,0.4c0.2,0.2,0.4,0.3,0.6,0.4c0,0,0,0,0,0
	c-0.3-0.1-0.7-0.3-0.9-0.5c0.1,0.1,0.2,0.2,0.2,0.3c0.3,0.2,0.6,0.4,0.9,0.5c0,0,0,0,0,0c-0.6-0.1-1.4-0.5-1.7-1.1
	c-0.1,0-0.1,0.1-0.2,0.1c-0.2,0-0.4,0-0.6,0c0,0,0-0.1,0-0.1c0.5,0.1,1-0.4,1.1-0.9c0-0.1,0-0.2,0-0.3c-0.2-0.5-0.9-0.7-1.4-0.5
	c-0.7,0.3-0.9,1.2-0.7,1.9c0,0,0,0,0,0c-0.3-0.8-0.1-1.8,0.7-2.3c0.2-0.1,0.3-0.1,0.5-0.1c-0.4-0.1-0.9,0.1-1.2,0.3
	c-0.4,0.4-0.6,0.9-0.5,1.5c0.1,1.2,1.3,2,2.4,2.3c1.1,0.3,2.3,0.4,3.3-0.1C77.9,41.6,78,41.6,78.1,41.6z"/>
<path fill="#C9A96A" d="M91.9,40.6c-0.1,1.2-0.4,2.3-0.8,3.4c0.3,0.1,0.6,0.3,0.8,0.4c0.9,0.5,1.7,1.1,2.3,1.7
	c0.6-0.1,1.1-0.2,1.5-0.6c0.4-0.4,0.7-0.9,0.8-1.4c-0.2,0.1-0.4,0.1-0.5,0.2c-0.2,0.1-0.3,0.1-0.5,0.2c-0.3,0.1-0.6,0.3-0.8,0.4
	c-0.1,0.1-0.3,0.2-0.4,0.2c0,0,0,0,0,0c0.2-0.2,0.5-0.4,0.8-0.6c0.1-0.1,0.2-0.1,0.3-0.2c0.3-0.2,0.6-0.4,1-0.5
	c-0.2,0-0.4-0.1-0.6-0.1c-0.4,0-0.7,0.1-1,0.2c-0.6,0.2-1.1,0.6-1.6,1.1c0,0-0.1,0,0,0c0.3-0.7,0.8-1.2,1.5-1.5c0,0,0,0,0,0l0,0
	c0,0,0,0,0,0c0,0,0,0,0,0c0.7-0.5,1.2-1.1,1.4-1.9c0.1-0.6,0.1-1.2-0.1-1.7c-0.1,0.4-0.3,0.8-0.5,1.2c-0.2,0.3-0.4,0.5-0.7,0.8
	c-0.2,0.2-0.5,0.3-0.8,0.3c0,0-0.1,0-0.1,0c0,0,0,0,0,0c0.2-0.1,0.3-0.3,0.5-0.5c0-0.1,0.1-0.1,0.1-0.2c0,0,0,0,0-0.1
	c0.1-0.2,0.3-0.3,0.4-0.5c0.2-0.6,0-1.2-0.2-1.9c-0.1-0.4-0.2-0.7-0.3-1.1c-0.1-0.4,0-0.9,0.2-1.2c-0.5,0.3-0.7,1.1-0.7,1.7
	c0,0.3,0,0.6,0.1,0.8c0.1,0.7,0.2,1.3-0.1,2l0,0l0,0c0,0,0,0,0,0l0,0c0,0,0,0,0,0c0,0,0,0,0,0c0.1-0.6,0-1.3-0.1-1.9
	c-0.1-0.5-0.2-1-0.2-1.6c0-0.6,0.4-1.2,0.9-1.5c-0.3,0.1-0.6,0.2-0.9,0.4c-0.7,0.6-1.3,1.4-1.2,2.2c0,0.7-0.1,1-0.3,1.3
	C92,40.5,92,40.5,91.9,40.6z"/>
<path fill="#C9A96A" d="M89.6,46.5c0.7,0.3,1.4,0.9,1.8,2c0.2,0.6,0.2,1.2,0.1,1.8c0.3,0.5,0.4,1.1,0.4,1.6c0,0,0,0,0,0c0,0,0,0,0,0
	l0,0l0,0c0,0,0,0,0,0c0,0,0,0,0,0c-0.1-0.3-0.2-0.5-0.3-0.8c0,0.4,0,0.9-0.1,1.3c-0.1,0.4-0.3,0.8-0.6,1.1c0,0,0,0,0,0
	c0.4-0.8,0.6-1.6,0.4-2.5l0,0c-0.1,0.5-0.2,0.9-0.3,1.3c0,0-0.1,0-0.1,0c0-0.3,0-0.6,0.1-0.8c-0.2,0.3-0.5,0.5-0.8,0.7
	c-0.3,0.2-0.6,0.3-1,0.3c-0.6,0.1-1.1-0.2-1.5-0.6c-0.3-0.3-0.6-0.9-0.5-1.3c-0.2,0-0.4,0-0.6-0.1c-0.2,0.6-0.2,1.1,0.1,1.7
	c0.3,0.5,0.8,0.8,1.3,0.9c0,0,0,0,0,0c-1.3-0.2-2.3-1.5-1.7-2.7c-0.1,0-0.2-0.1-0.3-0.1c-0.1,0.2-0.2,0.4-0.3,0.6
	c-0.1,0.3-0.1,0.6-0.1,0.9c0,0.6,0.3,1.1,0.7,1.5c0.4,0.4,1,0.6,1.6,0.6c0.3,0,0.6-0.1,0.8-0.2c0.2-0.1,0.5-0.3,0.7-0.4
	c0.1-0.3,0.3-0.6,0.7-0.7c0,0,0,0,0,0h0c0,0,0,0,0,0c0,0,0,0,0,0c0,0,0,0,0,0c0,0,0,0,0,0c-0.5,0.3-0.3,0.9-0.1,1.3
	c0.2,0.3,0.4,0.7,0.5,1c0.8-0.5,1.4-1.2,1.8-2.1c0.2-0.5,0.3-1,0.3-1.6c0-0.5-0.2-1.1-0.4-1.5c0,0,0,0,0-0.1
	c-0.3-0.3-0.4-0.8-0.2-1.2c0,0,0.1,0,0.1,0c0.1,0.6,0.6,0.9,1.1,1.1c0.3,0.1,0.6,0.3,0.8,0.5c0.1-0.4,0.1-0.7,0.1-1.1
	c-0.5-0.8-1.1-1.4-1.9-1.9c0,0,0,0,0,0c0,0,0,0,0,0c0,0,0,0,0,0c0,0,0,0,0,0c1.7,0.4,2.8,1.9,3,3.6c0.1,0.9-0.1,1.9-0.5,2.7
	c-0.2,0.4-0.6,0.8-0.8,1.3c-0.1,0.4,0,1,0.5,0.9c0,0,0,0,0,0c0,0,0.1,0,0.1,0c0,0,0.1,0,0.1,0c0.3-0.1,0.6-0.2,0.9-0.3
	c0.3-0.2,0.5-0.6,0.7-0.9c0,0,0.1,0,0.1,0c0,0.8-0.7,1.5-1.4,1.8c0,0,0,0,0,0c-0.2,0.1-0.4,0.2-0.6,0.2c-0.2,0-0.5,0.1-0.7,0.1
	c-0.3,0.1-0.5,0.2-0.7,0.5c-0.3,0.4-0.6,0.7-1.1,0.7c-0.3,0-0.5-0.1-0.7-0.3c0,0.6,0.4,1.1,0.9,1.3c0,0,0.1,0,0.1,0
	c1.5,0.3,3.3-0.2,4.2-1.6c0,0,0,0,0,0c0,0,0,0,0,0c0,0,0,0,0,0c0,0,0,0,0,0c-0.3,0.8-0.8,1.4-1.6,1.8c0,0-0.1,0.1-0.1,0.1
	c-0.1,0-0.2,0-0.2,0.1c-0.2,0.1-0.4,0.1-0.5,0.1c0.3,0.3,0.8,0.3,1.2,0.2c0.6-0.2,1.1-0.6,1.5-1c0,0,0,0,0,0c0,0,0,0,0,0
	c0,0,0,0,0,0c0,0,0,0,0,0c-0.4,0.6-1,1.2-1.7,1.4c-0.1,0-0.1,0-0.2,0c-0.2,0.4-0.4,0.7-0.7,1c-0.4,0.3-0.8,0.6-1.3,0.7
	c-1,0.3-2.1,0.2-3-0.2c-0.5-0.2-0.9-0.6-1.3-1c-0.4-0.3-1-0.7-1.5-0.3c-0.2,0.2-0.3,0.5-0.2,0.8c0.1,0.3,0.3,0.6,0.5,0.9
	c0.2,0.2,0.3,0.3,0.5,0.4c0.2,0.1,0.4,0.3,0.7,0.4c0.9,0.5,1.9,0.7,3,0.8c0,0,0,0,0,0c-0.8,0.2-1.7,0.1-2.6-0.1
	c-0.4,0-0.8,0-1.1-0.1c-0.6-0.1-1.2-0.2-1.7-0.5c-1-0.4-1.8-1.1-2.2-2.1c-0.4-0.9-0.2-2,0.4-2.7c0.3-0.4,0.8-0.6,1.3-0.6
	c-0.3-0.1-0.7-0.1-1,0c-0.7,0.2-1.3,0.8-1.5,1.5c0,0-0.1,0-0.1,0c0-0.4,0.2-0.8,0.5-1.1c0.3-0.3,0.6-0.6,1-0.8
	c0.2-0.1,0.4-0.1,0.6-0.1c0.4-0.2,0.9-0.3,1.3-0.2c0.3,0,0.6,0.1,0.9,0.2c0.3,0.1,0.6,0.2,0.8-0.1c0,0,0-0.1,0-0.1c0,0,0-0.1,0-0.1
	c0,0,0.1-0.1,0.1-0.1c0,0,0.1,0,0.1,0c0.4,0.1,0.7,0.3,1,0.6c0.3,0.3,0.4,0.6,0.4,1c0,0,0,0,0,0.1c0.1-0.2,0.1-0.4,0.1-0.7
	c0-0.9-0.5-1.8-1.3-2.3c-0.8-0.6-1.9-0.7-2.9-0.5c0,0,0,0,0,0c0,0-0.1,0-0.1,0c0,0-0.1,0-0.1,0c-0.4,0.1-0.9,0.3-1.3,0.5
	c-0.6,0.4-1.1,0.9-1.4,1.6c0.3-0.4,0.6-0.7,1.1-0.9c0,0,0,0,0,0c0,0,0,0,0,0c0,0,0,0,0,0c0,0,0,0,0,0c-0.5,0.4-0.8,0.8-1.1,1.4
	c0.1-0.2,0.3-0.4,0.5-0.5c0.5-0.5,1.2-0.9,1.9-1c0.7-0.2,1.4-0.2,2.1,0c0,0,0,0.1,0,0.1c-1.4-0.2-2.8,0.2-3.8,1.2
	c-0.6,0.6-1,1.5-1.1,2.3c0.1,1.1,0.5,2.1,1.2,2.9c0.9,1.1,2.2,1.9,3.6,2.3c1.4,0.4,2.8,0.3,4.2-0.1c0,0,0,0,0,0l0,0
	c0.1,0,0.2-0.1,0.4-0.1c0.9-0.3,1.7-0.8,2.4-1.4c-0.5,0.3-1,0.4-1.6,0.5c0,0,0,0,0,0c0.9-0.2,1.7-0.7,2.4-1.2
	c-0.3,0.2-0.6,0.4-1,0.5c-1.4,0.6-3,0.4-4.4-0.2c0,0,0-0.1,0-0.1c1.3,0.5,2.8,0.6,4.2,0c0.4-0.2,0.8-0.4,1.2-0.6
	c-0.3,0.2-0.6,0.3-1,0.4c0,0,0,0,0,0c0.8-0.4,1.5-0.8,2.1-1.5c0,0,0,0,0-0.1c0.7-1.1,1.1-2.3,1.4-3.6c0.1-0.6,0.2-1.3,0.2-1.9
	c-0.2,0.6-0.5,1.1-0.8,1.7c0,0,0,0,0,0c0,0,0,0,0,0c0,0,0,0,0,0c0,0,0,0,0,0c0.3-0.5,0.5-1,0.6-1.6c-0.1,0.1-0.1,0.3-0.2,0.4
	c-0.5,0.9-1.3,1.6-2.1,2.1c0,0,0,0,0,0c0,0,0,0,0,0s0,0,0,0c0,0,0,0,0,0c0,0,0,0,0,0c0.9-0.5,1.5-1.2,1.9-2.1
	c0.4-0.9,0.5-1.7,0.5-2.7c-0.2-0.9-0.4-1.7-0.8-2.6c0.1,0.8,0.1,1.6-0.1,2.2c0,0-0.1,0-0.1,0c0.1-0.6,0.1-1.2,0-1.8
	c0-0.1,0-0.1,0-0.2c0.1,1.4-0.2,2.8-1,4c0,0,0,0,0,0c0,0,0,0,0,0c0,0,0,0,0,0c0,0,0,0,0,0c1.5-2.8,0.8-6.4-1.7-8.3
	c-0.7-0.6-1.5-1.1-2.4-1.5C90.5,45.2,90.1,45.9,89.6,46.5z"/>
<path fill="#C9A96A" d="M95.4,62.1c-1.7,1-2.7,1.6-3.3,2.5c-0.2,0.4-0.4,0.8-0.4,1.3c0,0,0,0-0.1,0c0-0.4,0-0.8,0.1-1.2
	c-0.2,0.5-0.3,1.1-0.2,1.7c0.2,0.8,0.7,1.6,1.5,1.8c0.8,0.2,1.7-0.1,2.1-0.7c0,0,0.1,0,0.1,0c-0.2,0.4-0.5,0.7-0.9,0.9
	c-0.4,0.2-0.8,0.2-1.3,0.2c-0.9-0.2-1.6-1-1.9-1.9c-0.1-0.3-0.1-0.5-0.1-0.8c0,0,0,0.1,0,0.1c-0.1,0.9,0.3,1.7,0.8,2.4c0,0,0,0,0,0
	c-0.7-0.5-1.1-1.4-1.1-2.2c0,0.4,0,0.8,0.2,1.2c0.4,1.1,1.4,2,2.7,1.8c1.2-0.2,2.4-1.2,2.3-2.5c0-0.6-0.4-1.2-0.9-1.5
	c-0.5-0.3-1.2-0.2-1.6,0.3c-0.4,0.4-0.4,1.2,0,1.6c0.1,0.1,0.3,0.2,0.5,0.3c0.2,0,0.4,0,0.6-0.1c0.3-0.2,0.6-0.6,0.3-0.9
	c0,0,0-0.1,0,0c0.4,0.2,0.5,0.7,0.2,1c-0.3,0.4-0.8,0.5-1.3,0.4c-0.2,0-0.4-0.2-0.6-0.3c-0.2-0.2-0.3-0.4-0.4-0.6
	c-0.3-0.6-0.3-1.3,0-1.8c0.2-0.3,0.8-0.9,0.8-0.9s0.6-0.7,1.7-0.9c2.6-0.2,3.7,2,3.2,4.5c-0.2,1.2-1.4,2.6-2.6,3.1
	c-0.3,0.1-0.7,0.2-1,0.3c-0.9,0.2-1.9,0.1-2.7-0.4c0,0,0,0,0,0c0,0,0,0,0,0c0,0,0,0,0,0c0,0,0,0,0,0c0.5,0.2,1,0.3,1.5,0.3
	c-0.3-0.1-0.6-0.2-0.8-0.4c-0.1-0.1-0.2-0.2-0.3-0.2c0,0-0.1-0.1-0.1-0.1c-0.2-0.2-0.5-0.3-0.7-0.3c-0.7,0-0.7,0.8-0.3,1.1
	c0.4,0.4,0.8,0.4,1.3,0.4l0,0c0.1,0,0.2,0,0.4,0c0.1,0,0.1,0,0.2-0.1l0,0l0,0l0,0c0,0,0,0,0,0c0,0,0,0,0,0l0,0c0,0,0,0,0,0
	c-0.4,0.5-1,0.6-1.6,0.5c-0.6-0.1-1.1-0.3-1.6-0.5c-0.1,0-0.1-0.1-0.2-0.1l0,0l-0.2-0.1c-0.7-0.3-1.4-0.5-2.1-0.4
	c-0.4,0.1-0.8,0.3-1.2,0.5c1,0,1.8,0.6,2.7,1l0.1,0.1c0.8,0.5,1.9,1,2.8,0.8c0.2-0.1,0.3-0.1,0.4-0.2c0,0,0,0,0,0l0,0l0,0l0,0
	c0,0,0,0,0.1,0c0.1,0,0.1-0.1,0.2-0.1c0.2-0.1,0.4-0.1,0.6-0.2c0,0,0,0,0,0c0,0-0.1,0-0.1,0.1c0,0-0.1,0.1-0.1,0.1
	c-0.5,0.4-1.1,0.7-1.7,0.9c0.2,0,0.4,0,0.6-0.1l0,0c0.3,0,0.7-0.1,1-0.1c0.3-0.1,0.5-0.1,0.8-0.2c0.3-0.1,0.7-0.2,1-0.3
	c1.3-0.5,2.3-0.8,3.1-1.7c0.3-0.4,0.8-1.2,1-1.7c-0.3,0.5-0.7,1-1,1.5c0,0-0.1,0,0,0c0.3-0.3,0.5-0.7,0.7-1.1
	c-0.5,0.6-1.1,1.1-1.7,1.6c0,0,0,0,0,0c0.5-0.4,0.9-0.8,1.3-1.4c-1.2,1.3-2.8,1.9-4.5,1.9c0,0,0,0,0,0c0,0,0,0,0,0c0,0,0,0,0,0
	c0,0,0,0,0,0c1.7,0,3.2-1,4.5-2.3c0.5-0.5,0.9-0.9,1.1-1.7C100.4,64.3,98.5,61.5,95.4,62.1z"/>
<path fill="#C9A96A" d="M91.1,69.2c-0.2,0-0.4,0-0.5,0c-0.4,0-0.9-0.1-1.3-0.3c-0.7-0.3-1.3-1-1.4-1.8c0,0,0,0,0,0c0,0,0,0,0,0
	c0,0,0,0,0,0c0,0,0,0,0,0c0,0.1,0,0.1,0.1,0.2l0,0c0,0.2,0.1,0.3,0.1,0.5c0.1,0.2,0.2,0.4,0.4,0.6c0,0,0,0,0,0
	c-0.3-0.2-0.5-0.5-0.7-0.8c0,0.1,0.1,0.2,0.1,0.3c0.2,0.3,0.4,0.6,0.7,0.8c0,0,0,0,0,0c-0.5-0.4-1.1-0.9-1.2-1.6c-0.1,0-0.2,0-0.2,0
	c-0.2,0-0.4-0.1-0.5-0.2c0,0,0-0.1,0-0.1c0.5,0.2,1.1,0,1.4-0.4c0.1-0.1,0.1-0.2,0.1-0.3c0-0.6-0.5-1-1.1-1
	c-0.8,0.1-1.2,0.8-1.3,1.6c0,0,0,0,0,0c0-0.9,0.5-1.8,1.4-2c-0.1,0-0.4,0-0.4,0c-0.1,0-0.2,0-0.2,0.1c-0.5,0.2-0.9,0.7-1,1.2
	c-0.3,1.2,0.5,2.3,1.4,3c0.9,0.7,2,1,3.2,1c0.2,0,0.4,0,0.7-0.1c0-0.2,0.1-0.4,0.3-0.5c0.6-0.5,1.3-0.2,1.8,0.2l0,0
	c0.1,0,0.1,0,0.1,0.1c0.3,0.3,0.7,0.5,1.1,0.6c1.2,0.3,2.4-0.4,3-1.5c1.3-1.9,0.5-5.1-1.7-5.1c-0.8,0-1.3,0.4-1.5,0.7
	c0.1,0,0.1,0,0.2,0c1.2-0.2,2.3,0.8,2.3,2c0.1,1.3-0.8,2.4-1.9,2.9c-0.5,0.2-1.1,0.3-1.7,0.1C92.2,69.5,91.9,69.1,91.1,69.2z"/>
<path fill="#C9A96A" d="M84,73.6C83.9,73.6,84,73.6,84,73.6c0.4-0.1,0.9-0.1,1.2-0.1c-1.3-0.2-2.5-1-3.4-2.1c0,0,0-0.1,0,0
	c0.7,0.8,1.7,1.4,2.7,1.7c0,0,0,0-0.1,0l0,0c-0.4-0.1-0.8-0.4-1.1-0.7c-0.4-0.3-0.7-0.8-1-1.2c0,0,0,0,0,0c0.3,0.4,0.7,0.8,1.1,1.1
	c0.1,0,0.1,0.1,0.2,0.1c-0.6-0.6-1-1.4-1.3-2.2c-1.2-0.6-1.8-2.1-1.9-3.4c0,0,0.1-0.1,0.1,0c0.1,0.7,0.4,1.3,0.7,1.9
	c0.3,0.4,0.7,0.8,1,1.2c-0.3-1-0.3-2-0.1-3c0,0,0.1,0,0.1,0c-0.3,1.9,0.5,4,1.9,5.4c0.7,0.7,1.5,1.2,2.5,1.5c0.1,0,0.1,0,0.2,0.1
	c-0.5-0.2-0.9-0.5-1.2-0.9c-0.8-0.9-1.3-2.2-1-3.4c0-0.1,0.1-0.2,0.1-0.3l0,0c0.1-0.2,0.2-0.5,0.2-0.7c0-0.2,0-0.6-0.3-0.7
	c-0.7-0.4-1.1,0.6-1.2,1.1c0,0,0,0.1,0,0.1c0,0.3,0.1,0.6,0.1,0.9c0,0.2,0.1,0.3,0.1,0.5l0,0c0,0.1,0.1,0.3,0.1,0.4c0,0,0,0,0,0
	c0,0,0,0,0,0l0,0c0,0,0,0,0,0c0,0,0,0,0,0c-0.2-0.3-0.4-0.6-0.5-1c-0.1-0.3-0.3-0.7-0.3-1c-0.1-0.7-0.2-1.3-0.2-2
	c0-0.3,0.1-1.2,0.7-1.4c0.4-0.1,0.9,0,1.3,0.2c-0.2-0.5-0.5-0.8-1-0.9c-0.7-0.1-1.1,0.3-1.4,0.9c-0.1,0.2-0.1,0.8-0.1,1
	c0,0.1-0.1,0.1-0.1,0c0-0.1,0-0.2-0.1-0.3l0,0c0-0.1-0.1-0.2-0.1-0.3c0,0,0,0,0,0c-0.2-0.6-0.5-1.2-0.4-1.8c0.1-0.4,0.1-0.6,0.1-1
	c0-0.1-0.2-0.7-0.6-0.4c-0.4,0.3-0.4,0.8-0.3,1.3c0.1,0.2,0.2,0.5,0.3,0.7l0,0c0.1,0.3,0.2,0.5,0.3,0.8c0.1,0.2,0.1,0.5,0,0.7
	c0,0.2-0.1,0.4-0.2,0.6l0,0c0,0.1-0.1,0-0.1,0c0.1-0.4,0-0.9-0.2-1.3c0,0-0.1,0-0.1,0c-0.2,0-0.4,0-0.6,0.1
	c-0.2,0.1-0.4,0.4-0.5,0.6c-0.2,0.6-0.1,1.2,0.1,1.7c0.4,1.1,1.2,1.9,2.2,2.4c0,0,0,0,0,0c0,0,0,0,0,0c0,0,0,0,0,0s0,0,0,0
	c-0.4-0.1-0.7-0.2-1-0.4c-0.8,1-0.2,2.3,0.7,3c0.5,0.4,1.1,0.6,1.7,0.7C83.5,73.6,83.8,73.6,84,73.6z"/>
<path fill="#C9A96A" d="M80.7,83.7c-0.4-0.2-0.8-0.5-1.1-0.8c-0.2,0-0.3,0-0.5,0c-0.5,0-0.9-0.3-1.1-0.7c0-0.1-0.1-0.2-0.1-0.2
	c-0.7-0.2-1.5,0-2.1,0.5c0.8,0.6,1.3,1.5,1.9,2.3c0.3,0.5,0.6,1,1.1,1.4c0,0,0,0,0,0c-0.4-0.6-0.7-1.3-1-2c0,0,0.1-0.1,0.1,0
	c0.3,0.6,0.6,1.1,1,1.7c-0.1-0.8-0.1-0.9-0.3-1.4l-0.2-0.9c0.7,0.3,1.7,0.6,1.7,0.6c0.1,0,0.2,0.1,0.4,0.1c0.7,0.2,1.5,0.4,2.2,0.4
	c1.7,0,3.3-0.4,4.7-1.3c0,0,0,0,0,0c-1.4,1.1-3.1,1.7-4.9,1.6c-0.7,0-1.5-0.2-2.2-0.4c0.3,0.1,0.6,0.2,0.9,0.3c1,0.3,2,0.3,3,0.2
	c0,0,0,0,0,0c0,0,0,0,0,0c0,0,0,0,0,0c0,0,0,0,0,0c-1,0.3-2.1,0.3-3.1,0.2c-0.1,0-0.3-0.1-0.4-0.1c0.8,0.3,1.7,0.4,2.5,0.3
	c1.6-0.2,3.1-0.8,4.4-1.7c1.2-0.9,2.2-2.2,2.6-3.6c0.3-1.1,0.3-2.3-0.1-3.3c-0.1,0.7-0.2,1.3-0.4,2c0,0,0,0,0,0c0,0,0,0,0,0
	c0,0,0,0,0,0c0,0,0,0,0,0c0.2-0.8,0.2-1.7,0.1-2.5l0,0c-0.7,0.4-1,1.3-0.8,2c0,0,0,0,0,0c0,0,0,0,0,0c0,0,0,0,0,0c0,0,0,0,0,0
	c-0.4-0.6-0.3-1.3,0-1.8c-1-2-2.3-2.8-4.6-2.4c-0.6,0.2-1.2,0.5-1.6,1c-0.3,0.5-0.5,1.1-0.3,1.7c0.1,0.3,0.3,0.5,0.5,0.7
	c0,0,0.1,0.1,0.1,0.1c0.2,0.1,0.6,0,0.6,0s-0.4-0.3-0.5-0.4c-0.1-0.2-0.2-0.4-0.3-0.6c-0.1-0.5,0-1,0.4-1.4c0.3-0.3,0.8-0.5,1.3-0.5
	c0,0,0,0,0,0c-0.9,0.1-1.6,0.9-1.4,1.8c0.2,0.7,1.1,1.6,1.7,1.1c0.1,0,0.1-0.1,0.1-0.1c0,0,0.1-0.1,0.1-0.1s-0.4,0.1-0.6,0
	c-0.2,0-0.4-0.2-0.5-0.3c-0.5-0.6-0.1-1.6,0.6-1.8c1.3-0.4,2.7,0.3,3.3,1.4c0.6,0.8,0.9,1.9,0.8,2.9c-0.1,1.4-0.8,2.7-1.9,3.5
	c-1.1,0.9-2.6,1.3-4,1.1C82,84.2,81.3,84,80.7,83.7z"/>
<path fill="#C9A96A" d="M90.9,76.4C90.9,76.4,90.9,76.4,90.9,76.4C90.9,76.4,90.9,76.4,90.9,76.4L90.9,76.4c0.1-0.4,0.3-1,0.5-1.3
	c0.4-0.5,0.8-0.9,1.4-1.1c0.1,0,1.5-0.3,1.5-0.3c0.6-0.2,2.5-1,3.1-1.3c-1.6,2.5-3.6,3-4.6,3C91.7,75.5,90.9,76.2,90.9,76.4z"/>
<path fill="#C9A96A" d="M81.8,81.9c-0.3,0.1-0.7,0.2-1.1,0.1c-0.1,0.2-0.3,0.4-0.5,0.6l-0.4,0.2c0,0-0.1,0-0.1,0
	c0.4,0.2,0.8,0.4,1.4,0.4c1.2,0.1,2.1-0.2,2.9-0.9c0.8-0.7,1.3-1.7,1-2.7c-0.2-0.9-1-1.7-2-1.7c-0.4,0-0.9,0.2-1.2,0.5
	c0.4-0.3,0.9-0.4,1.4-0.2c0.3,0.1,0.6,0.3,0.8,0.6c0.2,0.3,0.4,0.6,0.4,0.9c0,0.4,0,0.7-0.1,1c-0.1,0.3-0.3,0.6-0.6,0.9
	c-0.6,0.6-1.4,0.8-2.3,0.7c0,0,0,0,0,0c0,0,0,0,0,0c0,0,0,0,0,0c0,0,0,0,0,0c1.2-0.1,2.6-1,2.6-2.3c0-0.6-0.3-1.2-0.9-1.4
	c-0.2-0.1-0.5-0.1-0.7-0.1c0.8,0.1,1.4,0.9,1.2,1.8C83.5,81.3,82.6,81.7,81.8,81.9z"/>
<path fill="#C9A96A" d="M80.6,40.8c0.8,0.3,1.4,0.6,2.2,1.5c-0.1-0.3,0-0.7,0.2-1c0.2-0.5,0.7-0.9,1.2-1c0.3-0.1,0.7-0.1,1,0
	c0.3,0.1,0.6,0.2,0.9,0.4c-0.1-0.2-0.2-0.5-0.3-0.7c0,0,0-0.1,0.1,0c0.3,0.4,0.5,0.7,0.7,1.1l0,0c-0.1-0.8-0.5-1.6-1.2-2.1
	c0,0,0,0,0,0c0.4,0.2,0.7,0.5,0.9,0.8c0.2,0.3,0.4,0.7,0.5,1.1c0-0.3,0-0.5,0-0.8c0,0,0,0,0,0c0,0,0,0,0,0c0,0,0,0,0,0c0,0,0,0,0,0
	c0.2,0.5,0.3,1.1,0.2,1.6c0.3,0.5,0.5,1.1,0.5,1.7c0,0.6-0.1,1.2-0.3,1.7c0,0-0.3,2.6-1.1,3.3c-0.1,0.1-0.3,0.2-0.4,0.4
	c0.8-0.5,1.5-1.2,2.1-1.9c0.4-0.5,0.8-1,1.1-1.6c0.3-0.5,0.5-1,0.8-1.5c0,0,0,0,0,0c0,0,0,0,0,0c0,0,0,0,0,0c0,0,0,0,0,0
	c-0.1,0.6-0.4,1.2-0.7,1.7c-0.3,0.5-0.6,1-1,1.5c-0.4,0.4-0.8,0.9-1.2,1.2c1.2-0.8,2.2-1.9,3-3.1c0,0,0-0.1,0-0.1
	c1.7-2.6,1.2-6.1-1.1-8.2c0,0,0,0,0,0c0,0,0,0,0,0c0,0,0,0,0,0c0,0,0,0,0,0c1.1,0.9,1.9,2,2.2,3.4c0-0.1,0-0.1,0-0.2
	c-0.1-0.6-0.3-1.1-0.6-1.7c0,0,0,0,0,0c0.4,0.5,0.7,1.3,0.8,2c0.1-0.9,0-1.7-0.1-2.6c-0.3-0.9-0.7-1.6-1.3-2.3
	c-0.7-0.7-1.5-1.2-2.4-1.3c0,0,0,0,0,0c0,0,0,0,0,0c0,0,0,0,0,0c0,0,0,0,0,0c0.9,0.2,1.9,0.6,2.6,1.3c0.1,0.1,0.2,0.2,0.3,0.3
	c-0.3-0.5-0.7-0.9-1.1-1.3c0,0,0,0,0,0c0,0,0,0,0,0c0,0,0,0,0,0c0,0,0,0,0,0c0.5,0.4,0.9,0.8,1.3,1.3c-0.2-0.6-0.5-1.1-0.8-1.7
	c-0.6-1.1-1.4-2-2.4-2.8c0,0,0,0-0.1,0c-0.7-0.4-1.6-0.6-2.4-0.7c0,0,0,0,0,0c0.3,0,0.7,0,1,0c-0.4-0.1-0.8-0.2-1.3-0.2
	c-1.4,0-2.8,0.4-3.8,1.4c0,0-0.1,0,0,0c1-1,2.5-1.7,3.9-1.6c0.4,0,0.7,0.1,1.1,0.2c-0.8-0.3-1.7-0.4-2.6-0.4c0,0,0,0,0,0
	c0.5-0.1,1.1-0.1,1.6-0.1c-0.8-0.3-1.7-0.5-2.6-0.5c-1.5,0-3,0.3-4.2,1.2c-1.1,0.8-2,2-2.5,3.3c-0.3,1-0.4,2-0.2,3.1
	c0.4,0.8,1,1.4,1.8,1.8c1.2,0.6,2.7,0.5,3.8-0.1c0,0,0.1,0,0,0.1c-0.6,0.4-1.3,0.6-2,0.7c-0.7,0.1-1.4-0.1-2-0.4
	c-0.2-0.1-0.4-0.2-0.6-0.3c0.4,0.4,0.8,0.8,1.4,0.9c0,0,0,0,0,0c0,0,0,0,0,0c0,0,0,0,0,0c0,0,0,0,0,0c-0.5,0-0.9-0.2-1.3-0.5
	c0.5,0.5,1.1,0.8,1.8,1c0.4,0.1,0.9,0.1,1.3,0c0,0,0,0,0.1,0c0,0,0.1,0,0.1,0c0,0,0,0,0,0c0.9-0.1,1.9-0.6,2.4-1.3
	c0.5-0.7,0.8-1.7,0.4-2.5c-0.1-0.2-0.2-0.4-0.3-0.6c0,0,0,0,0,0.1c0.1,0.4,0.1,0.7-0.1,1.1c-0.1,0.3-0.4,0.6-0.7,0.8
	c0,0-0.1,0-0.1,0c0,0-0.1,0-0.1,0c0,0-0.1-0.1-0.1-0.1c0,0,0-0.1,0-0.1c-0.3-0.2-0.5,0-0.8,0.2c-0.2,0.2-0.5,0.4-0.8,0.5
	c-0.4,0.2-0.8,0.2-1.3,0.2c-0.2,0-0.4,0.1-0.6,0.1c-0.4,0-0.8-0.2-1.1-0.4c-0.3-0.2-0.6-0.5-0.8-0.9c0,0,0-0.1,0.1,0
	c0.4,0.6,1.1,1,1.9,0.9c0.3,0,0.7-0.1,1-0.3c-0.5,0.1-1,0-1.4-0.2c-0.8-0.5-1.3-1.4-1.3-2.4c0-1,0.5-1.9,1.3-2.6
	c0.4-0.4,0.9-0.7,1.4-1c0.3-0.2,0.7-0.3,1-0.4c0.7-0.5,1.5-0.8,2.3-0.9c0,0,0,0,0,0c-0.9,0.4-1.8,0.9-2.4,1.7
	c-0.2,0.2-0.3,0.4-0.5,0.6c-0.1,0.2-0.2,0.4-0.3,0.6C79,32.9,79,33.2,79,33.5c0,0.3,0.2,0.6,0.5,0.7c0.6,0.2,1-0.4,1.3-0.8
	c0.3-0.5,0.5-0.9,0.9-1.3c0.7-0.7,1.7-1.2,2.7-1.2c0.5,0,0.9,0.1,1.4,0.3c0.4,0.2,0.7,0.4,1,0.7c0.1,0,0.1,0,0.2,0
	c0.7,0,1.5,0.3,2,0.8c0,0,0,0,0,0c0,0,0,0,0,0c0,0,0,0,0,0c0,0,0,0,0,0c-0.5-0.2-1.1-0.4-1.7-0.4c-0.4,0-0.9,0.1-1.1,0.5
	c0.2,0,0.4,0,0.5,0c0.1,0,0.2,0,0.2,0c0,0,0.1,0,0.1,0c0.8,0.1,1.5,0.5,2,1.1c0,0,0,0,0,0c0,0,0,0,0,0c0,0,0,0,0,0c0,0,0,0,0,0
	c-1.2-1-3-0.9-4.3-0.1c0,0-0.1,0-0.1,0.1c-0.4,0.4-0.7,1-0.4,1.5c0.1-0.2,0.3-0.4,0.6-0.5c0.5-0.2,0.9,0,1.2,0.3
	c0.2,0.2,0.5,0.3,0.8,0.2c0.2,0,0.5-0.1,0.7-0.1c0.2,0,0.4,0,0.6,0c0,0,0,0,0,0c0.8,0,1.6,0.4,1.9,1.2c0,0,0,0.1-0.1,0
	c-0.3-0.3-0.6-0.5-0.9-0.7c-0.3,0-0.6,0-0.9,0c0,0-0.1,0-0.1,0c0,0-0.1,0-0.1,0c0,0,0,0,0,0c-0.5,0.1-0.3,0.7-0.1,1
	c0.3,0.4,0.8,0.6,1.1,0.9c0.6,0.6,1.1,1.4,1.3,2.3c0.3,1.6-0.2,3.3-1.6,4.2c0,0,0,0,0,0c0,0,0,0,0,0c0,0,0,0,0,0c0,0,0,0,0,0
	c0.6-0.7,1-1.5,1.1-2.3c-0.1-0.4-0.2-0.7-0.4-1c-0.1,0.3-0.3,0.5-0.6,0.7c-0.4,0.3-0.7,0.8-0.6,1.4c0,0,0,0.1-0.1,0
	c-0.3-0.4-0.4-0.8-0.2-1.2c0,0,0,0,0-0.1c0.1-0.5,0.1-1-0.1-1.5c-0.2-0.5-0.4-1-0.8-1.3c-0.6-0.7-1.4-1.1-2.3-1.4
	c0,0.4-0.1,0.7-0.1,1.1c-0.1,0.5-0.1,1.1,0.5,1.2c0,0,0,0,0,0c0,0,0,0,0,0c0,0,0,0,0,0c0,0,0,0,0,0c-0.3,0.1-0.6-0.1-0.8-0.4
	c-0.2,0-0.5-0.1-0.8-0.1c-0.4,0-1.1,0.4-1.1,0.4S81.1,40.3,80.6,40.8z"/>
<path fill="#C9A96A" d="M84,41.1c-0.2,0.1-0.3,0.3-0.4,0.4c-0.2,0.3-0.2,0.6-0.2,1c0,0,0,0.1,0,0.1c0.8-0.2,1.7,0,2.3,0.5
	c-0.2-0.6-0.6-1.1-1.2-1.4c0,0,0-0.1,0,0c0.7,0.2,1.3,0.8,1.6,1.5c0-0.4,0-0.7-0.2-1.1c0,0,0,0,0,0s0,0,0,0c0,0,0,0,0,0c0,0,0,0,0,0
	c0.4,0.5,0.5,1.2,0.3,1.8c0.2,0.4,0.4,0.8,0.5,1.2c0,0,0,0,0,0c0.3-0.9,0.4-1.9,0-2.8c-0.4-0.8-1.2-1.5-2.1-1.4
	C84.4,40.9,84.2,41,84,41.1z"/>
<path fill-rule="evenodd" clip-rule="evenodd" fill="#C9A96A" d="M85.2,73.5C85.2,73.5,85.2,73.5,85.2,73.5
	C85.3,73.5,85.3,73.5,85.2,73.5c0.4,0.2,0.8,0.4,1.2,0.5c0.1,0,0.2,0.1,0.2,0.1c0,0,0.5,0,1.1,0.1C87,73.7,86.2,73.5,85.2,73.5z
	 M85.5,77.1L85.5,77.1C85.5,77.1,85.5,77.1,85.5,77.1C85.5,77.1,85.5,77.1,85.5,77.1z"/>
<path fill-rule="evenodd" clip-rule="evenodd" fill="#C9A96A" d="M87.7,74.1c-0.7-0.4-1.6-0.7-2.5-0.7c0,0,0,0,0,0l0,0
	c0.4,0.2,0.7,0.4,1.1,0.5c0.1,0,0.2,0.1,0.2,0.1C86.6,74.1,87.1,74.1,87.7,74.1z"/>
<path fill-rule="evenodd" clip-rule="evenodd" fill="#C9A96A" d="M87.9,67.2C87.9,67.2,87.9,67.2,87.9,67.2
	C87.9,67.2,87.9,67.2,87.9,67.2C87.9,67.2,87.9,67.2,87.9,67.2z"/>
<path fill-rule="evenodd" clip-rule="evenodd" fill="#C9A96A" d="M85.1,51.6c0,0.1,0,0.2,0,0.3c0,0.1,0,0.1,0,0.2c-0.1,0,0.1,0,0,0
	L85.1,51.6C85.1,51.6,85,51.6,85.1,51.6z"/>
<path fill-rule="evenodd" clip-rule="evenodd" fill="#C9A96A" d="M83.6,43.6C83.6,43.6,83.6,43.6,83.6,43.6
	C83.7,43.7,83.7,43.7,83.6,43.6L83.6,43.6C83.6,43.7,83.6,43.7,83.6,43.6L83.6,43.6C83.6,43.7,83.6,43.7,83.6,43.6
	C83.6,43.6,83.6,43.6,83.6,43.6z M87.3,45.1c0,0.1-0.1,0.2-0.1,0.3C87.2,45.3,87.2,45.2,87.3,45.1z"/>
<path fill="#C9A96A" d="M90,47.5c0.1,0.4,0.1,0.5,0,1c0.4,0.5,0.5,1.2,0.3,1.8c0,0,0,0,0,0c0,0,0,0,0,0c0,0,0,0,0,0c0,0,0,0,0,0
	c0-0.4,0-0.8-0.2-1.1c0,0.8-0.4,1.5-1,2c0,0-0.1,0,0,0c0.5-0.5,0.7-1.1,0.7-1.8c-0.4,0.7-1.2,1.2-2.1,1.3c0,0,0,0,0,0
	c0.1,0.4,0.2,0.7,0.6,1c0.2,0.1,0.4,0.2,0.6,0.3c0.2,0,0.4,0,0.6,0c1-0.2,1.5-1.1,1.6-2.1C91.1,48.8,90.7,48.2,90,47.5z"/>
<path fill="#C9A96A" d="M87.8,50c0.3-0.1,0.6-0.2,0.9-0.4c0.3-0.2,0.5-0.5,0.6-0.8c0.4-0.6,0.2-1.6-0.3-1.6c-0.9,1-2,1.7-3.2,2.3
	C86.3,50,87.1,50.2,87.8,50z"/>
<path fill="#C9A96A" d="M70.5,83.3c-0.2,0.1-1.3,0.7-1.3,0.7c-1.8,0.6-2.8,0.9-4.8,0.8v1l0.7,0.9l0,0c0.3,0.6,0.5,1.1,1.1,1.4
	c0.4,0.2,0.9,0.3,1.4,0.3c-0.2-0.2-0.4-0.5-0.6-0.7c-0.3-0.3-0.6-0.6-0.9-0.8c0,0,0,0,0,0c0.4,0.2,0.7,0.5,1,0.7
	c0.3,0.2,0.5,0.4,0.7,0.6c0-0.2-0.1-0.3-0.1-0.5c-0.1-0.3-0.3-0.6-0.5-0.8c-0.4-0.4-0.9-0.7-1.3-1c0,0,0,0,0,0
	c0.6,0,1.2,0.3,1.7,0.8c0,0,0,0,0,0c0.6,0.4,1.3,0.7,2,0.6c0.5-0.1,1-0.3,1.4-0.6c-0.4,0-0.8,0-1.1-0.1c-0.3-0.1-0.6-0.2-0.8-0.3
	c-0.2-0.2-0.4-0.4-0.6-0.6c0,0,0,0,0,0c0.2,0.1,0.5,0.2,0.7,0.3c0.2,0.1,0.3,0.2,0.6,0.2c1,0.2,1.5-0.9,2.2-1.3
	c0.3-0.2,0.7-0.3,1.1-0.2c-0.4-0.3-1.1-0.2-1.6,0c-0.8,0.3-1.4,0.9-2.3,0.8c0,0,0,0,0,0c0,0,0,0,0,0s0,0,0,0c0,0,0,0,0,0
	c1-0.1,1.7-1,2.7-1.3c0.5-0.1,1.1,0,1.5,0.3c-0.1-0.3-0.4-0.5-0.6-0.6C72,83.2,71.2,83,70.5,83.3z"/>
<path fill="#C9A96A" stroke="#C9A96A" d="M12.1,40.7l-2-1.1l-1.7-3.8l3.5,2.3l0.7,2.2L12.1,40.7z M29.9,61.8L17.7,47L30,61.6
	L29.9,61.8z M59.1,102l4.1-4.2l0.4-0.4l0.8-0.8l0,0l9.6-9.7L74,87l-9.2,9.4l-0.4,0.4l-0.8,0.8l-0.3,0.3l-4.1,4.2L59.1,102z
	 M63.2,96.3l-8.8-9.1l0.1-0.1l8.8,9.1L63.2,96.3z M68.8,102l-0.1,0.1l-4-4.2l0.1-0.1L68.8,102z"/>
<path fill-rule="evenodd" clip-rule="evenodd" fill="#C9A96A" d="M55.5,61.8c1.1-0.2,1.7-0.4,2.4-1.2c5.1,4,7.9,3.9,12.7,0
	c0.8,0.8,1.3,1,2.4,1.2c-2,2.7-1.3,5.4-0.1,9.3c0.2,0.7,0.4,1.4,0.6,2.1c-1.1,1-1.5,1.5-2.2,3.7l-1-0.5c-1.3-1-1.5-0.1-2.1,1
	l-0.1,0.1c-0.6,0.7-1.1,1-2.2,1.2c-0.8-0.1-1.1,0-1.7,0.5c-0.7-0.4-1.1-0.5-2-0.5c-1-0.2-1.4-0.5-2-1.2c-0.7-1.7-1-2.3-2.2-1.2
	l-1.2,0.5c-0.3-1.6-0.7-2.1-1.8-3.5L55,73.1C57,66.9,57.7,63.8,55.5,61.8z M62.8,64.5h2.7v4.2h3.3v2.6h-3.3v6.3h-2.7v-2.2l-1.2,0.5
	v-2.5l1.2-0.7v-1.4h-3.2v-2.6h3.2V64.5z"/>
<path fill="#C9A96A" d="M63.8,65.7h0.6v3.9v0.8v5.8h-0.6v-2.4v-0.6v-2.8v-0.8V65.7z"/>
<path fill="#C9A96A" d="M63.8,69.6h-3v0.8h3V69.6z"/>
<path fill="#C9A96A" d="M64.4,69.6v0.8h3.2v-0.8H64.4z"/>
<path fill="#C9A96A" d="M63.8,73.2l-1.2,0.6v0.6l1.2-0.6V73.2z"/>
<path fill="none" stroke="#C9A96A" stroke-width="0.75" d="M69.5,60.2c-0.4,0.3-0.8,0.6-1.2,0.9c-0.6,0.4-1.3,0.8-2,1.1
	c-0.7,0.3-1.4,0.5-2.1,0.5c-1.4,0-2.9-0.8-4.1-1.6c-0.5-0.3-0.9-0.6-1.3-0.9c-0.1-0.1-0.3-0.2-0.4-0.3c-0.2-0.2-0.7-0.4-0.9-0.5
	c-0.1,0.2-0.2,0.3-0.4,0.5c-0.3,0.3-0.7,0.5-1.2,0.7c-0.5,0.2-1,0.3-1.4,0.2c-0.2,0-0.5-0.1-0.7-0.1c0,0.2-0.1,0.3-0.1,0.5
	c0,0.1-0.1,0.2-0.1,0.3c1.1,0.6,1.9,1.9,2,3.3c0.2,1.6-0.2,3.3-0.7,4.9l0,0l0,0.1 M69.5,60.2L69.5,60.2 M69.5,60.2
	C69.5,60.2,69.5,60.2,69.5,60.2 M73.7,70.1L73.7,70.1 M73.7,70.1L73.7,70.1 M73.7,70.1C73.7,70.1,73.7,70.2,73.7,70.1 M73.7,70.1
	C73.7,70.1,73.7,70.1,73.7,70.1 M59.4,77.6c0,0.2,0,0.5,0,0.7c0.1,0.3,0.2,0.6,0.6,0.8l0,0c0.8,0.4,1.6,0.6,2.5,0.7h0
	c0.3,0,0.6,0.1,0.9,0.1c0.2,0,0.5,0.1,0.6,0.3c0.1,0.1,0.1,0.1,0.2,0.2c0.1-0.1,0.1-0.1,0.2-0.2c0.2-0.1,0.4-0.2,0.6-0.3l0.4-0.2
	l0.1,0l0.1,0l0,0c0.2,0,0.4,0,0.6,0h0c0.2,0,0.6-0.1,1.1-0.2c0.5-0.1,0.9-0.3,1.3-0.6c0.3-0.3,0.4-0.6,0.4-0.9c0-0.1,0-0.3,0-0.4
	c0,0,0-0.1,0-0.1c0-0.1,0-0.1,0-0.2c0,0,0-0.1,0.1-0.2c0,0,0.1-0.1,0.1-0.1c0,0,0.1,0,0.1,0c0,0,0.1,0,0.1,0c0,0,0.1,0,0.2,0
	c0.1,0,0.3,0,0.5,0.2l0,0l0,0c0.1,0.1,0.2,0.2,0.2,0.3c0,0,0.1,0.1,0.1,0.1l0,0c0.4,0.2,1.2,0.4,2.1,0.2c-0.1-0.8,0.2-1.6,0.6-2.4
	c0.4-0.8,1-1.4,1.5-1.8c-0.1-0.8-0.2-1.6-0.5-2.4c-0.1-0.4-0.2-0.7-0.3-1.1 M59.4,77.6L59.4,77.6 M59.4,77.6
	C59.4,77.6,59.4,77.6,59.4,77.6 M55,69.6c-0.5,1.6-1,3.1-1,4.6c0.3,0.3,0.8,0.8,1.2,1.5c0.4,0.6,0.7,1.4,0.9,2.2
	c0.9,0.3,1.7,0.1,2.1-0.1l0,0c0,0,0.1-0.1,0.1-0.1c0.1-0.1,0.1-0.2,0.2-0.3l0,0l0,0c0.1-0.1,0.3-0.2,0.5-0.2c0.1,0,0.1,0,0.2,0
	c0,0,0.1,0,0.1,0c0,0,0,0,0.1,0c0,0,0,0,0.1,0c0,0,0.1,0.1,0.1,0.2v0c0,0.1,0,0.2,0,0.2 M55,69.6l-0.2-0.1 M55,73.1
	c2.1-6.3,2.7-9.3,0.5-11.4c1.1-0.2,1.7-0.4,2.4-1.2c5.1,4,7.9,3.9,12.7,0c0.8,0.8,1.3,1,2.4,1.2c-2,2.7-1.3,5.4-0.1,9.3
	c0.2,0.7,0.4,1.4,0.6,2.1c-1.1,1-1.5,1.5-2.2,3.7l-1-0.5c-1.3-1-1.5-0.1-2.1,1 M55,73.1l0.1,0.2 M55,73.1c0,0.1,0.1,0.1,0.1,0.2
	 M68.2,77.6c-0.6,0.7-1.1,1-2.2,1.2c-0.8-0.1-1.1,0-1.7,0.5c-0.7-0.4-1.1-0.5-2-0.5c-1-0.2-1.4-0.5-2-1.2c-0.7-1.7-1-2.3-2.2-1.2
	l-1.2,0.5c-0.3-1.6-0.7-2.1-1.8-3.5 M68.2,77.6l0.1-0.1 M68.2,77.6c0,0,0-0.1,0.1-0.1 M69.5,60.2c0.2-0.1,0.3-0.2,0.4-0.3
	c0.2-0.2,0.5-0.3,0.6-0.4c0.1-0.1,0.2-0.1,0.2-0.1c0.1,0.2,0.2,0.4,0.4,0.5c0.3,0.3,0.7,0.5,1.2,0.7c0.5,0.2,1,0.3,1.4,0.2
	c0.2,0,0.4,0,0.6-0.1c0,0,0.1,0,0.1,0c0,0.1,0,0.2,0.1,0.4c0,0.1,0.1,0.3,0.2,0.4c-0.4,0.2-0.7,0.5-1,0.8c-0.4,0.4-0.6,0.9-0.8,1.3
	c-0.5,1.4-0.3,3.3,0.2,5.1c0.1,0.5,0.3,1,0.4,1.5 M63.8,69.6v-3.9h0.6v3.9 M63.8,69.6h-3v0.8h3 M63.8,69.6v0.8 M63.8,69.6h0.6
	 M63.8,70.4h0.6 M63.8,70.4v2.8 M64.4,69.6v0.8 M64.4,69.6h3.2v0.8h-3.2 M64.4,70.4v5.8h-0.6v-2.4 M63.8,73.2l-1.2,0.6v0.6l1.2-0.6
	 M63.8,73.2v0.6 M65.5,64.5h-2.7v4.2h-3.2v2.6h3.2v1.4l-1.2,0.7v2.5l1.2-0.5v2.2h2.7v-6.3h3.3v-2.6h-3.3V64.5z"/>
<path fill="#C9A96A" stroke="#C9A96A" d="M6.4,60.6l-1.6,1l0.5-1.9v0l0-0.1l0.1-0.3l-0.2-0.2L5,59v0l-1.4-1.2l1.9-0.1l0,0l0.1,0
	l0.3,0l0.1-0.3l0.1-0.1l0,0l0.7-1.8l0.7,1.8l0,0l0.1,0.1l0.1,0.3l0.3,0l0.1,0l0,0l1.9,0.1L8.6,59l0,0l-0.1,0.1l-0.2,0.2l0.1,0.3
	l0,0.1v0l0.5,1.9l-1.6-1v0l-0.1-0.1l-0.3-0.2l-0.3,0.2L6.4,60.6L6.4,60.6z"/>
<path fill="#C9A96A" stroke="#C9A96A" d="M123.3,57.7l1.9,0.1l-1.4,1.2l0,0l-0.1,0.1l-0.2,0.2l0.1,0.3l0,0.1v0l0.5,1.9l-1.6-1v0
	l-0.1-0.1l-0.3-0.2l-0.3,0.2l-0.1,0.1l0,0l-1.6,1l0.5-1.9v0l0-0.1l0.1-0.3l-0.2-0.2l-0.1-0.1v0l-1.4-1.2l1.9-0.1l0,0l0.1,0l0.3,0
	l0.1-0.3l0.1-0.1v0l0.7-1.8l0.7,1.8v0l0.1,0.1l0.1,0.3l0.3,0L123.3,57.7L123.3,57.7z"/>
<path fill="#C9A96A" stroke="#C9A96A" d="M18.1,72.4L18.1,72.4l0.1,0.1l0.1,0.3l0.3,0l0.1,0h0l1.9,0.1l-1.4,1.2v0L19,74.3l-0.2,0.2
	l0.1,0.3l0,0.1v0l0.5,1.9l-1.6-1v0l-0.1-0.1l-0.3-0.2l-0.3,0.2L17,75.8v0l-1.6,1l0.5-1.9v0l0-0.1l0.1-0.3l-0.2-0.2l-0.1-0.1v0
	L14.1,73l1.9-0.1l0,0l0.1,0l0.3,0l0.1-0.3l0.1-0.1v0l0.7-1.8L18.1,72.4z"/>
<path fill="#C9A96A" stroke="#C9A96A" d="M112.7,72.9l1.9,0.1l-1.4,1.2v0l-0.1,0.1l-0.2,0.2l0.1,0.3l0,0.1v0l0.5,1.9l-1.6-1l0,0
	l-0.1-0.1l-0.3-0.2l-0.3,0.2l-0.1,0.1v0l-1.6,1l0.5-1.9v0l0-0.1l0.1-0.3l-0.2-0.2l-0.1-0.1v0l-1.4-1.2l1.9-0.1l0,0l0.1,0l0.3,0
	l0.1-0.3l0.1-0.1v0l0.7-1.8l0.7,1.8l0,0l0.1,0.1l0.1,0.3l0.3,0L112.7,72.9L112.7,72.9z"/>
<path fill="#C9A96A" d="M76.2,42.7c0.3-0.1,0.9-0.3,1.5-0.5c1.1-0.5,2.3-1.1,2.3-1.1c1.1,0.3,1.8,0.8,2.3,1.5c0.3,0.3,0.5,0.6,0.6,1
	c0.1,0.3,0.2,0.5,0.2,0.9c-0.5-0.4-1-0.7-1.6-0.8c-0.1,0-0.1,0.1,0,0.1c0.5,0.1,0.9,0.4,1.3,0.8c-0.7-0.2-1.5,0-2.2,0.1
	c-0.1,0-0.1,0-0.2,0c-1.2,0.3-2.4,0.2-3.6,0c-0.4-0.1-0.8-0.2-1.2-0.3c-0.7-0.2-1.4-0.4-2.3-0.4c0.1,0,0.3-0.1,0.4-0.1
	c0.4-0.1,0.9-0.1,1.3-0.2c0.9-0.1,1.4,0,2.3,0.1c0,0,0,0,0,0c0,0,0,0,0,0c0,0,0,0,0,0c0,0,0,0,0,0l0,0c-0.9-0.2-1.4-0.3-2.3-0.3
	c-0.1,0-0.2,0-0.3,0c0.5-0.1,1-0.2,1.4-0.3c0,0,0.1,0,0.1,0c0.1,0,0.2,0,0.3,0c0.6-0.1,1-0.1,1.7-0.1c0.4,0,0.9,0,1.3,0
	c0.1,0,0.2,0,0.3,0c0.3,0,0.5,0.1,0.8,0.1c0,0,0,0,0,0s0,0,0,0c0,0,0,0,0,0c0,0,0,0,0,0c-0.3-0.1-0.7-0.2-1.1-0.2c0,0-0.1,0-0.1,0
	c0,0-0.1,0-0.1,0c-0.4,0-0.8-0.1-1.2-0.1C77.4,42.6,77.1,42.6,76.2,42.7z"/>
<path fill="#C9A96A" d="M73.8,84.7c0.7-1.2,1-1.8,1.9-2.5c0.6-0.5,1.5-0.7,2.2-0.4c0,0,0,0,0-0.1c0,0,0,0,0,0c-0.1,0-0.1,0-0.2-0.1
	c-0.2,0-0.3-0.1-0.5-0.1c-0.2,0-0.5,0-0.7,0.1c0,0,0,0,0,0c0.3-0.2,0.7-0.2,1-0.2c-0.1,0-0.2,0-0.4,0c-0.4,0-0.7,0-1.1,0.2
	c0,0,0,0,0,0c0.6-0.3,1.3-0.5,1.9-0.3c0-0.1,0.1-0.1,0.1-0.2c0.1-0.2,0.3-0.3,0.5-0.3c0,0,0.1,0,0,0.1c-0.4,0.3-0.5,1-0.3,1.4
	c0.1,0.1,0.1,0.2,0.2,0.3c0.5,0.3,1.1,0,1.4-0.6c0.3-0.7-0.2-1.5-0.7-1.9c0,0,0,0,0,0c0.8,0.4,1.3,1.3,0.9,2.2
	c-0.1,0.2-0.2,0.3-0.3,0.4c0.4-0.2,0.6-0.6,0.7-1c0.1-0.6-0.2-1.1-0.6-1.4c-0.9-0.8-2.3-0.7-3.3-0.2c-1,0.5-1.8,1.3-2.3,2.3
	C73.8,83.1,73.7,83.5,73.8,84.7z"/>
<path fill="#C9A96A" d="M85.2,50.7c-0.1,0-0.2,0-0.3,0c-0.4,0-0.9-0.1-1.3-0.3c-0.7-0.3-1.3-1-1.4-1.8c0,0,0,0-0.1,0c0,0,0,0,0,0
	c0,0.1,0,0.1,0.1,0.2v0l0,0c0,0.2,0.1,0.3,0.1,0.5c0.1,0.2,0.2,0.4,0.4,0.6c0,0,0,0,0,0c-0.3-0.2-0.5-0.5-0.7-0.8
	c0,0.1,0.1,0.2,0.1,0.3c0.2,0.3,0.4,0.6,0.7,0.8c0,0,0,0,0,0c-0.5-0.4-1.1-0.9-1.2-1.6c-0.1,0-0.2,0-0.2,0c-0.2,0-0.4-0.1-0.5-0.2
	c0,0,0-0.1,0-0.1c0.5,0.2,1.1,0,1.4-0.4c0.1-0.1,0.1-0.2,0.1-0.3c0-0.6-0.5-1-1.1-1c-0.8,0.1-1.2,0.8-1.3,1.6c0,0,0,0,0,0
	c0-0.9,0.5-1.8,1.5-1.8c0.2,0,0.4,0,0.5,0.1c-0.4-0.3-0.8-0.3-1.2-0.1c-0.5,0.2-0.9,0.7-1,1.2c-0.3,1.2,0.5,2.3,1.4,3
	c0.9,0.7,2,1,3.2,1c0.2,0,0.5-0.1,0.8-0.1C85.1,51.3,85.1,51,85.2,50.7z"/>
<path fill="#C9A96A" d="M78.1,41.6c1.3-0.6,2.1-1.1,2.6-1.4c-0.4,0.1-0.5,0.1-1.1,0.2c-0.4,0.1-0.9,0.2-1.5,0.2c-0.5,0-0.9,0-1.3,0
	c-0.8,0-1.6-0.4-2-1.1c0,0,0,0,0,0c0,0,0,0,0,0c0,0.1,0.1,0.1,0.1,0.2c0.1,0.1,0.2,0.3,0.3,0.4c0.2,0.2,0.4,0.3,0.6,0.4c0,0,0,0,0,0
	c-0.3-0.1-0.7-0.3-0.9-0.5c0.1,0.1,0.2,0.2,0.2,0.3c0.3,0.2,0.6,0.4,0.9,0.5c0,0,0,0,0,0c-0.6-0.1-1.4-0.5-1.7-1.1
	c-0.1,0-0.1,0.1-0.2,0.1c-0.2,0-0.4,0-0.6,0c0,0,0-0.1,0-0.1c0.5,0.1,1-0.4,1.1-0.9c0-0.1,0-0.2,0-0.3c-0.2-0.5-0.9-0.7-1.4-0.5
	c-0.7,0.3-0.9,1.2-0.7,1.9c0,0,0,0,0,0c-0.3-0.8-0.1-1.8,0.7-2.3c0.2-0.1,0.3-0.1,0.5-0.1c-0.4-0.1-0.9,0.1-1.2,0.3
	c-0.4,0.4-0.6,0.9-0.5,1.5c0.1,1.2,1.3,2,2.4,2.3c1.1,0.3,2.3,0.4,3.3-0.1C77.9,41.6,78,41.6,78.1,41.6z"/>
<path fill="#C9A96A" d="M91.9,40.6c-0.1,1.2-0.4,2.3-0.8,3.4c0.3,0.1,0.6,0.3,0.8,0.4c0.9,0.5,1.7,1.1,2.3,1.7
	c0.6-0.1,1.1-0.2,1.5-0.6c0.4-0.4,0.7-0.9,0.8-1.4c-0.2,0.1-0.4,0.1-0.5,0.2c-0.2,0.1-0.3,0.1-0.5,0.2c-0.3,0.1-0.6,0.3-0.8,0.4
	c-0.1,0.1-0.3,0.2-0.4,0.2c0,0,0,0,0,0c0.2-0.2,0.5-0.4,0.8-0.6c0.1-0.1,0.2-0.1,0.3-0.2c0.3-0.2,0.6-0.4,1-0.5
	c-0.2,0-0.4-0.1-0.6-0.1c-0.4,0-0.7,0.1-1,0.2c-0.6,0.2-1.1,0.6-1.6,1.1c0,0-0.1,0,0,0c0.3-0.7,0.8-1.2,1.5-1.5c0,0,0,0,0,0l0,0
	c0,0,0,0,0,0c0,0,0,0,0,0c0.7-0.5,1.2-1.1,1.4-1.9c0.1-0.6,0.1-1.2-0.1-1.7c-0.1,0.4-0.3,0.8-0.5,1.2c-0.2,0.3-0.4,0.5-0.7,0.8
	c-0.2,0.2-0.5,0.3-0.8,0.3c0,0-0.1,0-0.1,0c0,0,0,0,0,0c0.2-0.1,0.3-0.3,0.5-0.5c0-0.1,0.1-0.1,0.1-0.2c0,0,0,0,0-0.1
	c0.1-0.2,0.3-0.3,0.4-0.5c0.2-0.6,0-1.2-0.2-1.9c-0.1-0.4-0.2-0.7-0.3-1.1c-0.1-0.4,0-0.9,0.2-1.2c-0.5,0.3-0.7,1.1-0.7,1.7
	c0,0.3,0,0.6,0.1,0.8c0.1,0.7,0.2,1.3-0.1,2l0,0l0,0c0,0,0,0,0,0l0,0c0,0,0,0,0,0c0,0,0,0,0,0c0.1-0.6,0-1.3-0.1-1.9
	c-0.1-0.5-0.2-1-0.2-1.6c0-0.6,0.4-1.2,0.9-1.5c-0.3,0.1-0.6,0.2-0.9,0.4c-0.7,0.6-1.3,1.4-1.2,2.2c0,0.7-0.1,1-0.3,1.3
	C92,40.5,92,40.5,91.9,40.6z"/>
<path fill="#C9A96A" d="M89.6,46.5c0.7,0.3,1.4,0.9,1.8,2c0.2,0.6,0.2,1.2,0.1,1.8c0.3,0.5,0.4,1.1,0.4,1.6c0,0,0,0,0,0c0,0,0,0,0,0
	l0,0l0,0c0,0,0,0,0,0c0,0,0,0,0,0c-0.1-0.3-0.2-0.5-0.3-0.8c0,0.4,0,0.9-0.1,1.3c-0.1,0.4-0.3,0.8-0.6,1.1c0,0,0,0,0,0
	c0.4-0.8,0.6-1.6,0.4-2.5l0,0c-0.1,0.5-0.2,0.9-0.3,1.3c0,0-0.1,0-0.1,0c0-0.3,0-0.6,0.1-0.8c-0.2,0.3-0.5,0.5-0.8,0.7
	c-0.3,0.2-0.6,0.3-1,0.3c-0.6,0.1-1.1-0.2-1.5-0.6c-0.3-0.3-0.6-0.9-0.5-1.3c-0.2,0-0.4,0-0.6-0.1c-0.2,0.6-0.2,1.1,0.1,1.7
	c0.3,0.5,0.8,0.8,1.3,0.9c0,0,0,0,0,0c-1.3-0.2-2.3-1.5-1.7-2.7c-0.1,0-0.2-0.1-0.3-0.1c-0.1,0.2-0.2,0.4-0.3,0.6
	c-0.1,0.3-0.1,0.6-0.1,0.9c0,0.6,0.3,1.1,0.7,1.5c0.4,0.4,1,0.6,1.6,0.6c0.3,0,0.6-0.1,0.8-0.2c0.2-0.1,0.5-0.3,0.7-0.4
	c0.1-0.3,0.3-0.6,0.7-0.7c0,0,0,0,0,0h0c0,0,0,0,0,0c0,0,0,0,0,0c0,0,0,0,0,0c0,0,0,0,0,0c-0.5,0.3-0.3,0.9-0.1,1.3
	c0.2,0.3,0.4,0.7,0.5,1c0.8-0.5,1.4-1.2,1.8-2.1c0.2-0.5,0.3-1,0.3-1.6c0-0.5-0.2-1.1-0.4-1.5c0,0,0,0,0-0.1
	c-0.3-0.3-0.4-0.8-0.2-1.2c0,0,0.1,0,0.1,0c0.1,0.6,0.6,0.9,1.1,1.1c0.3,0.1,0.6,0.3,0.8,0.5c0.1-0.4,0.1-0.7,0.1-1.1
	c-0.5-0.8-1.1-1.4-1.9-1.9c0,0,0,0,0,0c0,0,0,0,0,0c0,0,0,0,0,0c0,0,0,0,0,0c1.7,0.4,2.8,1.9,3,3.6c0.1,0.9-0.1,1.9-0.5,2.7
	c-0.2,0.4-0.6,0.8-0.8,1.3c-0.1,0.4,0,1,0.5,0.9c0,0,0,0,0,0c0,0,0.1,0,0.1,0c0,0,0.1,0,0.1,0c0.3-0.1,0.6-0.2,0.9-0.3
	c0.3-0.2,0.5-0.6,0.7-0.9c0,0,0.1,0,0.1,0c0,0.8-0.7,1.5-1.4,1.8c0,0,0,0,0,0c-0.2,0.1-0.4,0.2-0.6,0.2c-0.2,0-0.5,0.1-0.7,0.1
	c-0.3,0.1-0.5,0.2-0.7,0.5c-0.3,0.4-0.6,0.7-1.1,0.7c-0.3,0-0.5-0.1-0.7-0.3c0,0.6,0.4,1.1,0.9,1.3c0,0,0.1,0,0.1,0
	c1.5,0.3,3.3-0.2,4.2-1.6c0,0,0,0,0,0c0,0,0,0,0,0c0,0,0,0,0,0c0,0,0,0,0,0c-0.3,0.8-0.8,1.4-1.6,1.8c0,0-0.1,0.1-0.1,0.1
	c-0.1,0-0.2,0-0.2,0.1c-0.2,0.1-0.4,0.1-0.5,0.1c0.3,0.3,0.8,0.3,1.2,0.2c0.6-0.2,1.1-0.6,1.5-1c0,0,0,0,0,0c0,0,0,0,0,0
	c0,0,0,0,0,0c0,0,0,0,0,0c-0.4,0.6-1,1.2-1.7,1.4c-0.1,0-0.1,0-0.2,0c-0.2,0.4-0.4,0.7-0.7,1c-0.4,0.3-0.8,0.6-1.3,0.7
	c-1,0.3-2.1,0.2-3-0.2c-0.5-0.2-0.9-0.6-1.3-1c-0.4-0.3-1-0.7-1.5-0.3c-0.2,0.2-0.3,0.5-0.2,0.8c0.1,0.3,0.3,0.6,0.5,0.9
	c0.2,0.2,0.3,0.3,0.5,0.4c0.2,0.1,0.4,0.3,0.7,0.4c0.9,0.5,1.9,0.7,3,0.8c0,0,0,0,0,0c-0.8,0.2-1.7,0.1-2.6-0.1
	c-0.4,0-0.8,0-1.1-0.1c-0.6-0.1-1.2-0.2-1.7-0.5c-1-0.4-1.8-1.1-2.2-2.1c-0.4-0.9-0.2-2,0.4-2.7c0.3-0.4,0.8-0.6,1.3-0.6
	c-0.3-0.1-0.7-0.1-1,0c-0.7,0.2-1.3,0.8-1.5,1.5c0,0-0.1,0-0.1,0c0-0.4,0.2-0.8,0.5-1.1c0.3-0.3,0.6-0.6,1-0.8
	c0.2-0.1,0.4-0.1,0.6-0.1c0.4-0.2,0.9-0.3,1.3-0.2c0.3,0,0.6,0.1,0.9,0.2c0.3,0.1,0.6,0.2,0.8-0.1c0,0,0-0.1,0-0.1c0,0,0-0.1,0-0.1
	c0,0,0.1-0.1,0.1-0.1c0,0,0.1,0,0.1,0c0.4,0.1,0.7,0.3,1,0.6c0.3,0.3,0.4,0.6,0.4,1c0,0,0,0,0,0.1c0.1-0.2,0.1-0.4,0.1-0.7
	c0-0.9-0.5-1.8-1.3-2.3c-0.8-0.6-1.9-0.7-2.9-0.5c0,0,0,0,0,0c0,0-0.1,0-0.1,0c0,0-0.1,0-0.1,0c-0.4,0.1-0.9,0.3-1.3,0.5
	c-0.6,0.4-1.1,0.9-1.4,1.6c0.3-0.4,0.6-0.7,1.1-0.9c0,0,0,0,0,0c0,0,0,0,0,0c0,0,0,0,0,0c0,0,0,0,0,0c-0.5,0.4-0.8,0.8-1.1,1.4
	c0.1-0.2,0.3-0.4,0.5-0.5c0.5-0.5,1.2-0.9,1.9-1c0.7-0.2,1.4-0.2,2.1,0c0,0,0,0.1,0,0.1c-1.4-0.2-2.8,0.2-3.8,1.2
	c-0.6,0.6-1,1.5-1.1,2.3c0.1,1.1,0.5,2.1,1.2,2.9c0.9,1.1,2.2,1.9,3.6,2.3c1.4,0.4,2.8,0.3,4.2-0.1c0,0,0,0,0,0l0,0
	c0.1,0,0.2-0.1,0.4-0.1c0.9-0.3,1.7-0.8,2.4-1.4c-0.5,0.3-1,0.4-1.6,0.5c0,0,0,0,0,0c0.9-0.2,1.7-0.7,2.4-1.2
	c-0.3,0.2-0.6,0.4-1,0.5c-1.4,0.6-3,0.4-4.4-0.2c0,0,0-0.1,0-0.1c1.3,0.5,2.8,0.6,4.2,0c0.4-0.2,0.8-0.4,1.2-0.6
	c-0.3,0.2-0.6,0.3-1,0.4c0,0,0,0,0,0c0.8-0.4,1.5-0.8,2.1-1.5c0,0,0,0,0-0.1c0.7-1.1,1.1-2.3,1.4-3.6c0.1-0.6,0.2-1.3,0.2-1.9
	c-0.2,0.6-0.5,1.1-0.8,1.7c0,0,0,0,0,0c0,0,0,0,0,0c0,0,0,0,0,0c0,0,0,0,0,0c0.3-0.5,0.5-1,0.6-1.6c-0.1,0.1-0.1,0.3-0.2,0.4
	c-0.5,0.9-1.3,1.6-2.1,2.1c0,0,0,0,0,0c0,0,0,0,0,0s0,0,0,0c0,0,0,0,0,0c0,0,0,0,0,0c0.9-0.5,1.5-1.2,1.9-2.1
	c0.4-0.9,0.5-1.7,0.5-2.7c-0.2-0.9-0.4-1.7-0.8-2.6c0.1,0.8,0.1,1.6-0.1,2.2c0,0-0.1,0-0.1,0c0.1-0.6,0.1-1.2,0-1.8
	c0-0.1,0-0.1,0-0.2c0.1,1.4-0.2,2.8-1,4c0,0,0,0,0,0c0,0,0,0,0,0c0,0,0,0,0,0c0,0,0,0,0,0c1.5-2.8,0.8-6.4-1.7-8.3
	c-0.7-0.6-1.5-1.1-2.4-1.5C90.5,45.2,90.1,45.9,89.6,46.5z"/>
<path fill="#C9A96A" d="M95.4,62.1c-1.7,1-2.7,1.6-3.3,2.5c-0.2,0.4-0.4,0.8-0.4,1.3c0,0,0,0-0.1,0c0-0.4,0-0.8,0.1-1.2
	c-0.2,0.5-0.3,1.1-0.2,1.7c0.2,0.8,0.7,1.6,1.5,1.8c0.8,0.2,1.7-0.1,2.1-0.7c0,0,0.1,0,0.1,0c-0.2,0.4-0.5,0.7-0.9,0.9
	c-0.4,0.2-0.8,0.2-1.3,0.2c-0.9-0.2-1.6-1-1.9-1.9c-0.1-0.3-0.1-0.5-0.1-0.8c0,0,0,0.1,0,0.1c-0.1,0.9,0.3,1.7,0.8,2.4c0,0,0,0,0,0
	c-0.7-0.5-1.1-1.4-1.1-2.2c0,0.4,0,0.8,0.2,1.2c0.4,1.1,1.4,2,2.7,1.8c1.2-0.2,2.4-1.2,2.3-2.5c0-0.6-0.4-1.2-0.9-1.5
	c-0.5-0.3-1.2-0.2-1.6,0.3c-0.4,0.4-0.4,1.2,0,1.6c0.1,0.1,0.3,0.2,0.5,0.3c0.2,0,0.4,0,0.6-0.1c0.3-0.2,0.6-0.6,0.3-0.9
	c0,0,0-0.1,0,0c0.4,0.2,0.5,0.7,0.2,1c-0.3,0.4-0.8,0.5-1.3,0.4c-0.2,0-0.4-0.2-0.6-0.3c-0.2-0.2-0.3-0.4-0.4-0.6
	c-0.3-0.6-0.3-1.3,0-1.8c0.2-0.3,0.8-0.9,0.8-0.9s0.6-0.7,1.7-0.9c2.6-0.2,3.7,2,3.2,4.5c-0.2,1.2-1.4,2.6-2.6,3.1
	c-0.3,0.1-0.7,0.2-1,0.3c-0.9,0.2-1.9,0.1-2.7-0.4c0,0,0,0,0,0c0,0,0,0,0,0c0,0,0,0,0,0c0,0,0,0,0,0c0.5,0.2,1,0.3,1.5,0.3
	c-0.3-0.1-0.6-0.2-0.8-0.4c-0.1-0.1-0.2-0.2-0.3-0.2c0,0-0.1-0.1-0.1-0.1c-0.2-0.2-0.5-0.3-0.7-0.3c-0.7,0-0.7,0.8-0.3,1.1
	c0.4,0.4,0.8,0.4,1.3,0.4l0,0c0.1,0,0.2,0,0.4,0c0.1,0,0.1,0,0.2-0.1l0,0l0,0l0,0c0,0,0,0,0,0c0,0,0,0,0,0l0,0c0,0,0,0,0,0
	c-0.4,0.5-1,0.6-1.6,0.5c-0.6-0.1-1.1-0.3-1.6-0.5c-0.1,0-0.1-0.1-0.2-0.1l0,0l-0.2-0.1c-0.7-0.3-1.4-0.5-2.1-0.4
	c-0.4,0.1-0.8,0.3-1.2,0.5c1,0,1.8,0.6,2.7,1l0.1,0.1c0.8,0.5,1.9,1,2.8,0.8c0.2-0.1,0.3-0.1,0.4-0.2c0,0,0,0,0,0l0,0l0,0l0,0
	c0,0,0,0,0.1,0c0.1,0,0.1-0.1,0.2-0.1c0.2-0.1,0.4-0.1,0.6-0.2c0,0,0,0,0,0c0,0-0.1,0-0.1,0.1c0,0-0.1,0.1-0.1,0.1
	c-0.5,0.4-1.1,0.7-1.7,0.9c0.2,0,0.4,0,0.6-0.1l0,0c0.3,0,0.7-0.1,1-0.1c0.3-0.1,0.5-0.1,0.8-0.2c0.3-0.1,0.7-0.2,1-0.3
	c1.3-0.5,2.3-0.8,3.1-1.7c0.3-0.4,0.8-1.2,1-1.7c-0.3,0.5-0.7,1-1,1.5c0,0-0.1,0,0,0c0.3-0.3,0.5-0.7,0.7-1.1
	c-0.5,0.6-1.1,1.1-1.7,1.6c0,0,0,0,0,0c0.5-0.4,0.9-0.8,1.3-1.4c-1.2,1.3-2.8,1.9-4.5,1.9c0,0,0,0,0,0c0,0,0,0,0,0c0,0,0,0,0,0
	c0,0,0,0,0,0c1.7,0,3.2-1,4.5-2.3c0.5-0.5,0.9-0.9,1.1-1.7C100.4,64.3,98.5,61.5,95.4,62.1z"/>
<path fill="#C9A96A" d="M91.1,69.2c-0.2,0-0.4,0-0.5,0c-0.4,0-0.9-0.1-1.3-0.3c-0.7-0.3-1.3-1-1.4-1.8c0,0,0,0,0,0c0,0,0,0,0,0
	c0,0,0,0,0,0c0,0,0,0,0,0c0,0.1,0,0.1,0.1,0.2l0,0c0,0.2,0.1,0.3,0.1,0.5c0.1,0.2,0.2,0.4,0.4,0.6c0,0,0,0,0,0
	c-0.3-0.2-0.5-0.5-0.7-0.8c0,0.1,0.1,0.2,0.1,0.3c0.2,0.3,0.4,0.6,0.7,0.8c0,0,0,0,0,0c-0.5-0.4-1.1-0.9-1.2-1.6c-0.1,0-0.2,0-0.2,0
	c-0.2,0-0.4-0.1-0.5-0.2c0,0,0-0.1,0-0.1c0.5,0.2,1.1,0,1.4-0.4c0.1-0.1,0.1-0.2,0.1-0.3c0-0.6-0.5-1-1.1-1
	c-0.8,0.1-1.2,0.8-1.3,1.6c0,0,0,0,0,0c0-0.9,0.5-1.8,1.4-2c-0.1,0-0.4,0-0.4,0c-0.1,0-0.2,0-0.2,0.1c-0.5,0.2-0.9,0.7-1,1.2
	c-0.3,1.2,0.5,2.3,1.4,3c0.9,0.7,2,1,3.2,1c0.2,0,0.4,0,0.7-0.1c0-0.2,0.1-0.4,0.3-0.5c0.6-0.5,1.3-0.2,1.8,0.2l0,0
	c0.1,0,0.1,0,0.1,0.1c0.3,0.3,0.7,0.5,1.1,0.6c1.2,0.3,2.4-0.4,3-1.5c1.3-1.9,0.5-5.1-1.7-5.1c-0.8,0-1.3,0.4-1.5,0.7
	c0.1,0,0.1,0,0.2,0c1.2-0.2,2.3,0.8,2.3,2c0.1,1.3-0.8,2.4-1.9,2.9c-0.5,0.2-1.1,0.3-1.7,0.1C92.2,69.5,91.9,69.1,91.1,69.2z"/>
<path fill="#C9A96A" d="M84,73.6C83.9,73.6,84,73.6,84,73.6c0.4-0.1,0.9-0.1,1.2-0.1c-1.3-0.2-2.5-1-3.4-2.1c0,0,0-0.1,0,0
	c0.7,0.8,1.7,1.4,2.7,1.7c0,0,0,0-0.1,0l0,0c-0.4-0.1-0.8-0.4-1.1-0.7c-0.4-0.3-0.7-0.8-1-1.2c0,0,0,0,0,0c0.3,0.4,0.7,0.8,1.1,1.1
	c0.1,0,0.1,0.1,0.2,0.1c-0.6-0.6-1-1.4-1.3-2.2c-1.2-0.6-1.8-2.1-1.9-3.4c0,0,0.1-0.1,0.1,0c0.1,0.7,0.4,1.3,0.7,1.9
	c0.3,0.4,0.7,0.8,1,1.2c-0.3-1-0.3-2-0.1-3c0,0,0.1,0,0.1,0c-0.3,1.9,0.5,4,1.9,5.4c0.7,0.7,1.5,1.2,2.5,1.5c0.1,0,0.1,0,0.2,0.1
	c-0.5-0.2-0.9-0.5-1.2-0.9c-0.8-0.9-1.3-2.2-1-3.4c0-0.1,0.1-0.2,0.1-0.3l0,0c0.1-0.2,0.2-0.5,0.2-0.7c0-0.2,0-0.6-0.3-0.7
	c-0.7-0.4-1.1,0.6-1.2,1.1c0,0,0,0.1,0,0.1c0,0.3,0.1,0.6,0.1,0.9c0,0.2,0.1,0.3,0.1,0.5l0,0c0,0.1,0.1,0.3,0.1,0.4c0,0,0,0,0,0
	c0,0,0,0,0,0l0,0c0,0,0,0,0,0c0,0,0,0,0,0c-0.2-0.3-0.4-0.6-0.5-1c-0.1-0.3-0.3-0.7-0.3-1c-0.1-0.7-0.2-1.3-0.2-2
	c0-0.3,0.1-1.2,0.7-1.4c0.4-0.1,0.9,0,1.3,0.2c-0.2-0.5-0.5-0.8-1-0.9c-0.7-0.1-1.1,0.3-1.4,0.9c-0.1,0.2-0.1,0.8-0.1,1
	c0,0.1-0.1,0.1-0.1,0c0-0.1,0-0.2-0.1-0.3l0,0c0-0.1-0.1-0.2-0.1-0.3c0,0,0,0,0,0c-0.2-0.6-0.5-1.2-0.4-1.8c0.1-0.4,0.1-0.6,0.1-1
	c0-0.1-0.2-0.7-0.6-0.4c-0.4,0.3-0.4,0.8-0.3,1.3c0.1,0.2,0.2,0.5,0.3,0.7l0,0c0.1,0.3,0.2,0.5,0.3,0.8c0.1,0.2,0.1,0.5,0,0.7
	c0,0.2-0.1,0.4-0.2,0.6l0,0c0,0.1-0.1,0-0.1,0c0.1-0.4,0-0.9-0.2-1.3c0,0-0.1,0-0.1,0c-0.2,0-0.4,0-0.6,0.1
	c-0.2,0.1-0.4,0.4-0.5,0.6c-0.2,0.6-0.1,1.2,0.1,1.7c0.4,1.1,1.2,1.9,2.2,2.4c0,0,0,0,0,0c0,0,0,0,0,0c0,0,0,0,0,0s0,0,0,0
	c-0.4-0.1-0.7-0.2-1-0.4c-0.8,1-0.2,2.3,0.7,3c0.5,0.4,1.1,0.6,1.7,0.7C83.5,73.6,83.8,73.6,84,73.6z"/>
<path fill="#C9A96A" d="M80.7,83.7c-0.4-0.2-0.8-0.5-1.1-0.8c-0.2,0-0.3,0-0.5,0c-0.5,0-0.9-0.3-1.1-0.7c0-0.1-0.1-0.2-0.1-0.2
	c-0.7-0.2-1.5,0-2.1,0.5c0.8,0.6,1.3,1.5,1.9,2.3c0.3,0.5,0.6,1,1.1,1.4c0,0,0,0,0,0c-0.4-0.6-0.7-1.3-1-2c0,0,0.1-0.1,0.1,0
	c0.3,0.6,0.6,1.1,1,1.7c-0.1-0.8-0.1-0.9-0.3-1.4l-0.2-0.9c0.7,0.3,1.7,0.6,1.7,0.6c0.1,0,0.2,0.1,0.4,0.1c0.7,0.2,1.5,0.4,2.2,0.4
	c1.7,0,3.3-0.4,4.7-1.3c0,0,0,0,0,0c-1.4,1.1-3.1,1.7-4.9,1.6c-0.7,0-1.5-0.2-2.2-0.4c0.3,0.1,0.6,0.2,0.9,0.3c1,0.3,2,0.3,3,0.2
	c0,0,0,0,0,0c0,0,0,0,0,0c0,0,0,0,0,0c0,0,0,0,0,0c-1,0.3-2.1,0.3-3.1,0.2c-0.1,0-0.3-0.1-0.4-0.1c0.8,0.3,1.7,0.4,2.5,0.3
	c1.6-0.2,3.1-0.8,4.4-1.7c1.2-0.9,2.2-2.2,2.6-3.6c0.3-1.1,0.3-2.3-0.1-3.3c-0.1,0.7-0.2,1.3-0.4,2c0,0,0,0,0,0c0,0,0,0,0,0
	c0,0,0,0,0,0c0,0,0,0,0,0c0.2-0.8,0.2-1.7,0.1-2.5l0,0c-0.7,0.4-1,1.3-0.8,2c0,0,0,0,0,0c0,0,0,0,0,0c0,0,0,0,0,0c0,0,0,0,0,0
	c-0.4-0.6-0.3-1.3,0-1.8c-1-2-2.3-2.8-4.6-2.4c-0.6,0.2-1.2,0.5-1.6,1c-0.3,0.5-0.5,1.1-0.3,1.7c0.1,0.3,0.3,0.5,0.5,0.7
	c0,0,0.1,0.1,0.1,0.1c0.2,0.1,0.6,0,0.6,0s-0.4-0.3-0.5-0.4c-0.1-0.2-0.2-0.4-0.3-0.6c-0.1-0.5,0-1,0.4-1.4c0.3-0.3,0.8-0.5,1.3-0.5
	c0,0,0,0,0,0c-0.9,0.1-1.6,0.9-1.4,1.8c0.2,0.7,1.1,1.6,1.7,1.1c0.1,0,0.1-0.1,0.1-0.1c0,0,0.1-0.1,0.1-0.1s-0.4,0.1-0.6,0
	c-0.2,0-0.4-0.2-0.5-0.3c-0.5-0.6-0.1-1.6,0.6-1.8c1.3-0.4,2.7,0.3,3.3,1.4c0.6,0.8,0.9,1.9,0.8,2.9c-0.1,1.4-0.8,2.7-1.9,3.5
	c-1.1,0.9-2.6,1.3-4,1.1C82,84.2,81.3,84,80.7,83.7z"/>
<path fill="#C9A96A" d="M90.9,76.4C90.9,76.4,90.9,76.4,90.9,76.4C90.9,76.4,90.9,76.4,90.9,76.4L90.9,76.4c0.1-0.4,0.3-1,0.5-1.3
	c0.4-0.5,0.8-0.9,1.4-1.1c0.1,0,1.5-0.3,1.5-0.3c0.6-0.2,2.5-1,3.1-1.3c-1.6,2.5-3.6,3-4.6,3C91.7,75.5,90.9,76.2,90.9,76.4z"/>
<path fill="#C9A96A" d="M81.8,81.9c-0.3,0.1-0.7,0.2-1.1,0.1c-0.1,0.2-0.3,0.4-0.5,0.6l-0.4,0.2c0,0-0.1,0-0.1,0
	c0.4,0.2,0.8,0.4,1.4,0.4c1.2,0.1,2.1-0.2,2.9-0.9c0.8-0.7,1.3-1.7,1-2.7c-0.2-0.9-1-1.7-2-1.7c-0.4,0-0.9,0.2-1.2,0.5
	c0.4-0.3,0.9-0.4,1.4-0.2c0.3,0.1,0.6,0.3,0.8,0.6c0.2,0.3,0.4,0.6,0.4,0.9c0,0.4,0,0.7-0.1,1c-0.1,0.3-0.3,0.6-0.6,0.9
	c-0.6,0.6-1.4,0.8-2.3,0.7c0,0,0,0,0,0c0,0,0,0,0,0c0,0,0,0,0,0c0,0,0,0,0,0c1.2-0.1,2.6-1,2.6-2.3c0-0.6-0.3-1.2-0.9-1.4
	c-0.2-0.1-0.5-0.1-0.7-0.1c0.8,0.1,1.4,0.9,1.2,1.8C83.5,81.3,82.6,81.7,81.8,81.9z"/>
<path fill="#C9A96A" d="M80.6,40.8c0.8,0.3,1.4,0.6,2.2,1.5c-0.1-0.3,0-0.7,0.2-1c0.2-0.5,0.7-0.9,1.2-1c0.3-0.1,0.7-0.1,1,0
	c0.3,0.1,0.6,0.2,0.9,0.4c-0.1-0.2-0.2-0.5-0.3-0.7c0,0,0-0.1,0.1,0c0.3,0.4,0.5,0.7,0.7,1.1l0,0c-0.1-0.8-0.5-1.6-1.2-2.1
	c0,0,0,0,0,0c0.4,0.2,0.7,0.5,0.9,0.8c0.2,0.3,0.4,0.7,0.5,1.1c0-0.3,0-0.5,0-0.8c0,0,0,0,0,0c0,0,0,0,0,0c0,0,0,0,0,0c0,0,0,0,0,0
	c0.2,0.5,0.3,1.1,0.2,1.6c0.3,0.5,0.5,1.1,0.5,1.7c0,0.6-0.1,1.2-0.3,1.7c0,0-0.3,2.6-1.1,3.3c-0.1,0.1-0.3,0.2-0.4,0.4
	c0.8-0.5,1.5-1.2,2.1-1.9c0.4-0.5,0.8-1,1.1-1.6c0.3-0.5,0.5-1,0.8-1.5c0,0,0,0,0,0c0,0,0,0,0,0c0,0,0,0,0,0c0,0,0,0,0,0
	c-0.1,0.6-0.4,1.2-0.7,1.7c-0.3,0.5-0.6,1-1,1.5c-0.4,0.4-0.8,0.9-1.2,1.2c1.2-0.8,2.2-1.9,3-3.1c0,0,0-0.1,0-0.1
	c1.7-2.6,1.2-6.1-1.1-8.2c0,0,0,0,0,0c0,0,0,0,0,0c0,0,0,0,0,0c0,0,0,0,0,0c1.1,0.9,1.9,2,2.2,3.4c0-0.1,0-0.1,0-0.2
	c-0.1-0.6-0.3-1.1-0.6-1.7c0,0,0,0,0,0c0.4,0.5,0.7,1.3,0.8,2c0.1-0.9,0-1.7-0.1-2.6c-0.3-0.9-0.7-1.6-1.3-2.3
	c-0.7-0.7-1.5-1.2-2.4-1.3c0,0,0,0,0,0c0,0,0,0,0,0c0,0,0,0,0,0c0,0,0,0,0,0c0.9,0.2,1.9,0.6,2.6,1.3c0.1,0.1,0.2,0.2,0.3,0.3
	c-0.3-0.5-0.7-0.9-1.1-1.3c0,0,0,0,0,0c0,0,0,0,0,0c0,0,0,0,0,0c0,0,0,0,0,0c0.5,0.4,0.9,0.8,1.3,1.3c-0.2-0.6-0.5-1.1-0.8-1.7
	c-0.6-1.1-1.4-2-2.4-2.8c0,0,0,0-0.1,0c-0.7-0.4-1.6-0.6-2.4-0.7c0,0,0,0,0,0c0.3,0,0.7,0,1,0c-0.4-0.1-0.8-0.2-1.3-0.2
	c-1.4,0-2.8,0.4-3.8,1.4c0,0-0.1,0,0,0c1-1,2.5-1.7,3.9-1.6c0.4,0,0.7,0.1,1.1,0.2c-0.8-0.3-1.7-0.4-2.6-0.4c0,0,0,0,0,0
	c0.5-0.1,1.1-0.1,1.6-0.1c-0.8-0.3-1.7-0.5-2.6-0.5c-1.5,0-3,0.3-4.2,1.2c-1.1,0.8-2,2-2.5,3.3c-0.3,1-0.4,2-0.2,3.1
	c0.4,0.8,1,1.4,1.8,1.8c1.2,0.6,2.7,0.5,3.8-0.1c0,0,0.1,0,0,0.1c-0.6,0.4-1.3,0.6-2,0.7c-0.7,0.1-1.4-0.1-2-0.4
	c-0.2-0.1-0.4-0.2-0.6-0.3c0.4,0.4,0.8,0.8,1.4,0.9c0,0,0,0,0,0c0,0,0,0,0,0c0,0,0,0,0,0c0,0,0,0,0,0c-0.5,0-0.9-0.2-1.3-0.5
	c0.5,0.5,1.1,0.8,1.8,1c0.4,0.1,0.9,0.1,1.3,0c0,0,0,0,0.1,0c0,0,0.1,0,0.1,0c0,0,0,0,0,0c0.9-0.1,1.9-0.6,2.4-1.3
	c0.5-0.7,0.8-1.7,0.4-2.5c-0.1-0.2-0.2-0.4-0.3-0.6c0,0,0,0,0,0.1c0.1,0.4,0.1,0.7-0.1,1.1c-0.1,0.3-0.4,0.6-0.7,0.8
	c0,0-0.1,0-0.1,0c0,0-0.1,0-0.1,0c0,0-0.1-0.1-0.1-0.1c0,0,0-0.1,0-0.1c-0.3-0.2-0.5,0-0.8,0.2c-0.2,0.2-0.5,0.4-0.8,0.5
	c-0.4,0.2-0.8,0.2-1.3,0.2c-0.2,0-0.4,0.1-0.6,0.1c-0.4,0-0.8-0.2-1.1-0.4c-0.3-0.2-0.6-0.5-0.8-0.9c0,0,0-0.1,0.1,0
	c0.4,0.6,1.1,1,1.9,0.9c0.3,0,0.7-0.1,1-0.3c-0.5,0.1-1,0-1.4-0.2c-0.8-0.5-1.3-1.4-1.3-2.4c0-1,0.5-1.9,1.3-2.6
	c0.4-0.4,0.9-0.7,1.4-1c0.3-0.2,0.7-0.3,1-0.4c0.7-0.5,1.5-0.8,2.3-0.9c0,0,0,0,0,0c-0.9,0.4-1.8,0.9-2.4,1.7
	c-0.2,0.2-0.3,0.4-0.5,0.6c-0.1,0.2-0.2,0.4-0.3,0.6C79,32.9,79,33.2,79,33.5c0,0.3,0.2,0.6,0.5,0.7c0.6,0.2,1-0.4,1.3-0.8
	c0.3-0.5,0.5-0.9,0.9-1.3c0.7-0.7,1.7-1.2,2.7-1.2c0.5,0,0.9,0.1,1.4,0.3c0.4,0.2,0.7,0.4,1,0.7c0.1,0,0.1,0,0.2,0
	c0.7,0,1.5,0.3,2,0.8c0,0,0,0,0,0c0,0,0,0,0,0c0,0,0,0,0,0c0,0,0,0,0,0c-0.5-0.2-1.1-0.4-1.7-0.4c-0.4,0-0.9,0.1-1.1,0.5
	c0.2,0,0.4,0,0.5,0c0.1,0,0.2,0,0.2,0c0,0,0.1,0,0.1,0c0.8,0.1,1.5,0.5,2,1.1c0,0,0,0,0,0c0,0,0,0,0,0c0,0,0,0,0,0c0,0,0,0,0,0
	c-1.2-1-3-0.9-4.3-0.1c0,0-0.1,0-0.1,0.1c-0.4,0.4-0.7,1-0.4,1.5c0.1-0.2,0.3-0.4,0.6-0.5c0.5-0.2,0.9,0,1.2,0.3
	c0.2,0.2,0.5,0.3,0.8,0.2c0.2,0,0.5-0.1,0.7-0.1c0.2,0,0.4,0,0.6,0c0,0,0,0,0,0c0.8,0,1.6,0.4,1.9,1.2c0,0,0,0.1-0.1,0
	c-0.3-0.3-0.6-0.5-0.9-0.7c-0.3,0-0.6,0-0.9,0c0,0-0.1,0-0.1,0c0,0-0.1,0-0.1,0c0,0,0,0,0,0c-0.5,0.1-0.3,0.7-0.1,1
	c0.3,0.4,0.8,0.6,1.1,0.9c0.6,0.6,1.1,1.4,1.3,2.3c0.3,1.6-0.2,3.3-1.6,4.2c0,0,0,0,0,0c0,0,0,0,0,0c0,0,0,0,0,0c0,0,0,0,0,0
	c0.6-0.7,1-1.5,1.1-2.3c-0.1-0.4-0.2-0.7-0.4-1c-0.1,0.3-0.3,0.5-0.6,0.7c-0.4,0.3-0.7,0.8-0.6,1.4c0,0,0,0.1-0.1,0
	c-0.3-0.4-0.4-0.8-0.2-1.2c0,0,0,0,0-0.1c0.1-0.5,0.1-1-0.1-1.5c-0.2-0.5-0.4-1-0.8-1.3c-0.6-0.7-1.4-1.1-2.3-1.4
	c0,0.4-0.1,0.7-0.1,1.1c-0.1,0.5-0.1,1.1,0.5,1.2c0,0,0,0,0,0c0,0,0,0,0,0c0,0,0,0,0,0c0,0,0,0,0,0c-0.3,0.1-0.5-0.3-0.8-0.4
	c-0.3-0.1-0.5-0.1-0.8-0.1c-0.4,0-1.1,0.4-1.1,0.4S81.1,40.3,80.6,40.8z"/>
<path fill="#C9A96A" d="M84,41.1c-0.2,0.1-0.3,0.3-0.4,0.4c-0.2,0.3-0.2,0.6-0.2,1c0,0,0,0.1,0,0.1c0.8-0.2,1.7,0,2.3,0.5
	c-0.2-0.6-0.6-1.1-1.2-1.4c0,0,0-0.1,0,0c0.7,0.2,1.3,0.8,1.6,1.5c0-0.4,0-0.7-0.2-1.1c0,0,0,0,0,0s0,0,0,0c0,0,0,0,0,0c0,0,0,0,0,0
	c0.4,0.5,0.5,1.2,0.3,1.8c0.2,0.4,0.4,0.8,0.5,1.2c0,0,0,0,0,0c0.3-0.9,0.4-1.9,0-2.8c-0.4-0.8-1.2-1.5-2.1-1.4
	C84.4,40.9,84.2,41,84,41.1z"/>
<path fill-rule="evenodd" clip-rule="evenodd" fill="#C9A96A" d="M85.2,73.5C85.2,73.5,85.2,73.5,85.2,73.5
	C85.3,73.5,85.3,73.5,85.2,73.5c0.4,0.2,0.8,0.4,1.2,0.5c0.1,0,0.2,0.1,0.2,0.1c0,0,0.5,0,1.1,0.1C87,73.7,86.2,73.5,85.2,73.5z
	 M85.5,77.1L85.5,77.1C85.5,77.1,85.5,77.1,85.5,77.1C85.5,77.1,85.5,77.1,85.5,77.1z"/>
<path fill-rule="evenodd" clip-rule="evenodd" fill="#C9A96A" d="M87.7,74.1c-0.7-0.4-1.6-0.7-2.5-0.7c0,0,0,0,0,0l0,0
	c0.4,0.2,0.7,0.4,1.1,0.5c0.1,0,0.2,0.1,0.2,0.1C86.6,74.1,87.1,74.1,87.7,74.1z"/>
<path fill-rule="evenodd" clip-rule="evenodd" fill="#C9A96A" d="M87.9,67.2C87.9,67.2,87.9,67.2,87.9,67.2
	C87.9,67.2,87.9,67.2,87.9,67.2C87.9,67.2,87.9,67.2,87.9,67.2z"/>
<path fill-rule="evenodd" clip-rule="evenodd" fill="#C9A96A" d="M85.1,51.6c0,0.1,0,0.2,0,0.3c0,0.1,0,0.1,0,0.2c-0.1,0,0.1,0,0,0
	L85.1,51.6C85.1,51.6,85,51.6,85.1,51.6z"/>
<path fill-rule="evenodd" clip-rule="evenodd" fill="#C9A96A" d="M83.6,43.6C83.6,43.6,83.6,43.6,83.6,43.6
	C83.7,43.7,83.7,43.7,83.6,43.6L83.6,43.6C83.6,43.7,83.6,43.7,83.6,43.6L83.6,43.6C83.6,43.7,83.6,43.7,83.6,43.6
	C83.6,43.6,83.6,43.6,83.6,43.6z M87.3,45.1c0,0.1-0.1,0.2-0.1,0.3C87.2,45.3,87.2,45.2,87.3,45.1z"/>
<path fill="#C9A96A" d="M90,47.5c0.1,0.4,0.1,0.5,0,1c0.4,0.5,0.5,1.2,0.3,1.8c0,0,0,0,0,0c0,0,0,0,0,0c0,0,0,0,0,0c0,0,0,0,0,0
	c0-0.4,0-0.8-0.2-1.1c0,0.8-0.4,1.5-1,2c0,0-0.1,0,0,0c0.5-0.5,0.7-1.1,0.7-1.8c-0.4,0.7-1.2,1.2-2.1,1.3c0,0,0,0,0,0
	c0.1,0.4,0.2,0.7,0.6,1c0.2,0.1,0.4,0.2,0.6,0.3c0.2,0,0.4,0,0.6,0c1-0.2,1.5-1.1,1.6-2.1C91.1,48.8,90.7,48.2,90,47.5z"/>
<path fill="#C9A96A" d="M87.8,50c0.3-0.1,0.6-0.2,0.9-0.4c0.3-0.2,0.5-0.5,0.6-0.8c0.4-0.6,0.2-1.6-0.3-1.6c-0.9,1-2,1.7-3.2,2.3
	C86.3,50,87.1,50.2,87.8,50z"/>
<path fill="#C9A96A" d="M70.5,83.3c-0.2,0.1-1.3,0.7-1.3,0.7c-1.8,0.6-2.8,0.9-4.8,0.8v1l0.7,0.9l0,0c0.3,0.6,0.5,1.1,1.1,1.4
	c0.4,0.2,0.9,0.3,1.4,0.3c-0.2-0.2-0.4-0.5-0.6-0.7c-0.3-0.3-0.6-0.6-0.9-0.8c0,0,0,0,0,0c0.4,0.2,0.7,0.5,1,0.7
	c0.3,0.2,0.5,0.4,0.7,0.6c0-0.2-0.1-0.3-0.1-0.5c-0.1-0.3-0.3-0.6-0.5-0.8c-0.4-0.4-0.9-0.7-1.3-1c0,0,0,0,0,0
	c0.6,0,1.2,0.3,1.7,0.8c0,0,0,0,0,0c0.6,0.4,1.3,0.7,2,0.6c0.5-0.1,1-0.3,1.4-0.6c-0.4,0-0.8,0-1.1-0.1c-0.3-0.1-0.6-0.2-0.8-0.3
	c-0.2-0.2-0.4-0.4-0.6-0.6c0,0,0,0,0,0c0.2,0.1,0.5,0.2,0.7,0.3c0.2,0.1,0.3,0.2,0.6,0.2c1,0.2,1.5-0.9,2.2-1.3
	c0.3-0.2,0.7-0.3,1.1-0.2c-0.4-0.3-1.1-0.2-1.6,0c-0.8,0.3-1.4,0.9-2.3,0.8c0,0,0,0,0,0c0,0,0,0,0,0s0,0,0,0c0,0,0,0,0,0
	c1-0.1,1.7-1,2.7-1.3c0.5-0.1,1.1,0,1.5,0.3c-0.1-0.3-0.4-0.5-0.6-0.6C72,83.2,71.2,83,70.5,83.3z"/>
<path fill="#C9A96A" d="M52.4,42.7c-0.3-0.1-0.9-0.3-1.5-0.5c-1.1-0.5-2.3-1.1-2.3-1.1c-1.1,0.3-1.8,0.8-2.3,1.5
	c-0.3,0.3-0.5,0.6-0.6,1c-0.1,0.3-0.2,0.5-0.2,0.9c0.5-0.4,1-0.7,1.6-0.8c0.1,0,0.1,0.1,0,0.1c-0.5,0.1-0.9,0.4-1.3,0.8
	c0.7-0.2,1.5,0,2.2,0.1c0.1,0,0.1,0,0.2,0c1.2,0.3,2.4,0.2,3.6,0c0.4-0.1,0.8-0.2,1.2-0.3c0.7-0.2,1.4-0.4,2.3-0.4
	c-0.1,0-0.3-0.1-0.4-0.1c-0.4-0.1-0.9-0.1-1.3-0.2c-0.9-0.1-1.4,0-2.3,0.1c0,0,0,0,0,0c0,0,0,0,0,0c0,0,0,0,0,0c0,0,0,0,0,0l0,0
	c0.9-0.2,1.4-0.3,2.3-0.3c0.1,0,0.2,0,0.3,0c-0.5-0.1-1-0.2-1.4-0.3c0,0-0.1,0-0.1,0c-0.1,0-0.2,0-0.3,0c-0.6-0.1-1-0.1-1.7-0.1
	c-0.4,0-0.9,0-1.3,0c-0.1,0-0.2,0-0.3,0c-0.3,0-0.5,0.1-0.8,0.1c0,0,0,0,0,0c0,0,0,0,0,0c0,0,0,0,0,0c0,0,0,0,0,0
	c0.3-0.1,0.7-0.2,1.1-0.2c0,0,0.1,0,0.1,0c0,0,0.1,0,0.1,0c0.4,0,0.8-0.1,1.2-0.1C51.2,42.6,51.6,42.6,52.4,42.7z"/>
<path fill="#C9A96A" d="M54.9,84.7c-0.7-1.2-1-1.8-1.9-2.5c-0.6-0.5-1.5-0.7-2.2-0.4c0,0,0,0,0-0.1c0,0,0,0,0,0c0.1,0,0.1,0,0.2-0.1
	c0.2,0,0.3-0.1,0.5-0.1c0.2,0,0.5,0,0.7,0.1c0,0,0,0,0,0c-0.3-0.2-0.7-0.2-1-0.2c0.1,0,0.2,0,0.4,0c0.4,0,0.7,0,1.1,0.2c0,0,0,0,0,0
	c-0.6-0.3-1.3-0.5-1.9-0.3c0-0.1-0.1-0.1-0.1-0.2c-0.1-0.2-0.3-0.3-0.5-0.3c0,0-0.1,0,0,0.1c0.4,0.3,0.5,1,0.3,1.4
	c-0.1,0.1-0.1,0.2-0.2,0.3c-0.5,0.3-1.1,0-1.4-0.6c-0.3-0.7,0.2-1.5,0.7-1.9c0,0,0,0,0,0c-0.8,0.4-1.3,1.3-0.9,2.2
	c0.1,0.2,0.2,0.3,0.3,0.4c-0.4-0.2-0.6-0.6-0.7-1c-0.1-0.6,0.2-1.1,0.6-1.4c0.9-0.8,2.3-0.7,3.3-0.2c1,0.5,1.8,1.3,2.3,2.3
	C54.9,83.1,54.9,83.5,54.9,84.7z"/>
<path fill="#C9A96A" d="M43.4,50.7c0.1,0,0.2,0,0.3,0c0.4,0,0.9-0.1,1.3-0.3c0.7-0.3,1.3-1,1.4-1.8c0,0,0,0,0.1,0c0,0,0,0,0,0
	c0,0.1,0,0.1-0.1,0.2l0,0l0,0c0,0.2-0.1,0.3-0.1,0.5c-0.1,0.2-0.2,0.4-0.4,0.6c0,0,0,0,0,0c0.3-0.2,0.5-0.5,0.7-0.8
	c0,0.1-0.1,0.2-0.1,0.3c-0.2,0.3-0.4,0.6-0.7,0.8c0,0,0,0,0,0c0.5-0.4,1.1-0.9,1.2-1.6c0.1,0,0.2,0,0.2,0c0.2,0,0.4-0.1,0.5-0.2
	c0,0,0-0.1,0-0.1c-0.5,0.2-1.1,0-1.4-0.4c-0.1-0.1-0.1-0.2-0.1-0.3c0-0.6,0.5-1,1.1-1c0.8,0.1,1.2,0.8,1.3,1.6c0,0,0,0,0,0
	c0-0.9-0.5-1.8-1.5-1.8c-0.2,0-0.4,0-0.5,0.1c0.4-0.3,0.8-0.3,1.2-0.1c0.5,0.2,0.9,0.7,1,1.2c0.3,1.2-0.5,2.3-1.4,3
	c-0.9,0.7-2,1-3.2,1c-0.2,0-0.5-0.1-0.8-0.1C43.6,51.3,43.5,51,43.4,50.7z"/>
<path fill="#C9A96A" d="M50.5,41.6c-1.3-0.6-2.1-1.1-2.6-1.4c0.4,0.1,0.5,0.1,1.1,0.2c0.4,0.1,0.9,0.2,1.5,0.2c0.5,0,0.9,0,1.3,0
	c0.8,0,1.6-0.4,2-1.1c0,0,0,0,0,0c0,0,0,0,0,0c0,0.1-0.1,0.1-0.1,0.2c-0.1,0.1-0.2,0.3-0.3,0.4c-0.2,0.2-0.4,0.3-0.6,0.4
	c0,0,0,0,0,0c0.3-0.1,0.7-0.3,0.9-0.5c-0.1,0.1-0.2,0.2-0.2,0.3c-0.3,0.2-0.6,0.4-0.9,0.5c0,0,0,0,0,0c0.6-0.1,1.4-0.5,1.7-1.1
	c0.1,0,0.1,0.1,0.2,0.1c0.2,0,0.4,0,0.6,0c0,0,0-0.1,0-0.1c-0.5,0.1-1-0.4-1.1-0.9c0-0.1,0-0.2,0-0.3c0.2-0.5,0.9-0.7,1.4-0.5
	c0.7,0.3,0.9,1.2,0.7,1.9c0,0,0,0,0,0c0.3-0.8,0.1-1.8-0.7-2.3c-0.2-0.1-0.3-0.1-0.5-0.1c0.4-0.1,0.9,0.1,1.2,0.3
	c0.4,0.4,0.6,0.9,0.5,1.5c-0.1,1.2-1.3,2-2.4,2.3c-1.1,0.3-2.3,0.4-3.3-0.1C50.7,41.6,50.6,41.6,50.5,41.6z"/>
<path fill="#C9A96A" d="M36.7,40.6c0.1,1.2,0.4,2.3,0.8,3.4c-0.3,0.1-0.6,0.3-0.8,0.4c-0.9,0.5-1.7,1.1-2.3,1.7
	c-0.6-0.1-1.1-0.2-1.5-0.6c-0.4-0.4-0.7-0.9-0.8-1.4c0.2,0.1,0.4,0.1,0.5,0.2c0.2,0.1,0.3,0.1,0.5,0.2c0.3,0.1,0.6,0.3,0.8,0.4
	c0.1,0.1,0.3,0.2,0.4,0.2c0,0,0,0,0,0c-0.2-0.2-0.5-0.4-0.8-0.6c-0.1-0.1-0.2-0.1-0.3-0.2c-0.3-0.2-0.6-0.4-1-0.5
	c0.2,0,0.4-0.1,0.6-0.1c0.4,0,0.7,0.1,1,0.2c0.6,0.2,1.1,0.6,1.6,1.1c0,0,0.1,0,0,0c-0.3-0.7-0.8-1.2-1.5-1.5c0,0,0,0,0,0l0,0
	c0,0,0,0,0,0c0,0,0,0,0,0c-0.7-0.5-1.2-1.1-1.4-1.9c-0.1-0.6-0.1-1.2,0.1-1.7c0.1,0.4,0.3,0.8,0.5,1.2c0.2,0.3,0.4,0.5,0.7,0.8
	c0.2,0.2,0.5,0.3,0.8,0.3c0,0,0.1,0,0.1,0c0,0,0,0,0,0c-0.2-0.1-0.3-0.3-0.5-0.5c0-0.1-0.1-0.1-0.1-0.2c0,0,0,0,0-0.1
	c-0.1-0.2-0.3-0.3-0.4-0.5c-0.2-0.6,0-1.2,0.2-1.9c0.1-0.4,0.2-0.7,0.3-1.1c0.1-0.4,0-0.9-0.2-1.2c0.5,0.3,0.7,1.1,0.7,1.7
	c0,0.3-0.1,0.6-0.1,0.8c-0.1,0.7-0.2,1.3,0.1,2l0,0l0,0c0,0,0,0,0,0v0c0,0,0,0,0,0c0,0,0,0,0,0c-0.1-0.6,0-1.3,0.1-1.9
	c0.1-0.5,0.2-1,0.2-1.6c0-0.6-0.4-1.2-0.9-1.5c0.3,0.1,0.6,0.2,0.9,0.4c0.7,0.6,1.3,1.4,1.2,2.2c0,0.7,0.1,1,0.3,1.3
	C36.6,40.5,36.7,40.5,36.7,40.6z"/>
<path fill="#C9A96A" d="M39,46.5c-0.7,0.3-1.4,0.9-1.8,2c-0.2,0.6-0.2,1.2-0.1,1.8c-0.3,0.5-0.4,1.1-0.4,1.6c0,0,0,0,0,0
	c0,0,0,0,0,0l0,0l0,0c0,0,0,0,0,0c0,0,0,0,0,0c0.1-0.3,0.2-0.5,0.3-0.8c0,0.4,0,0.9,0.1,1.3c0.1,0.4,0.3,0.8,0.6,1.1c0,0,0,0,0,0
	c-0.4-0.8-0.6-1.6-0.4-2.5l0,0c0.1,0.5,0.2,0.9,0.3,1.3c0,0,0.1,0,0.1,0c0-0.3,0-0.6-0.1-0.8c0.2,0.3,0.5,0.5,0.8,0.7
	c0.3,0.2,0.6,0.3,1,0.3c0.6,0.1,1.1-0.2,1.5-0.6c0.3-0.3,0.6-0.9,0.5-1.3c0.2,0,0.4,0,0.6-0.1c0.1,0.6,0.2,1.1-0.1,1.7
	c-0.3,0.5-0.8,0.8-1.3,0.9c0,0,0,0,0,0c1.3-0.2,2.3-1.5,1.7-2.7c0.1,0,0.2-0.1,0.3-0.1c0.1,0.2,0.2,0.4,0.3,0.6
	c0.1,0.3,0.1,0.6,0.1,0.9c0,0.6-0.3,1.1-0.7,1.5c-0.4,0.4-1,0.6-1.6,0.6c-0.3,0-0.6-0.1-0.8-0.2c-0.2-0.1-0.5-0.3-0.7-0.4
	c-0.1-0.3-0.3-0.6-0.7-0.7c0,0,0,0,0,0h0c0,0,0,0,0,0c0,0,0,0,0,0c0,0,0,0,0,0c0,0,0,0,0,0c0.5,0.3,0.3,0.9,0.1,1.3
	c-0.2,0.3-0.4,0.7-0.5,1c-0.8-0.5-1.4-1.2-1.8-2.1c-0.2-0.5-0.3-1-0.3-1.6c0-0.5,0.2-1.1,0.4-1.5c0,0,0,0,0-0.1
	c0.3-0.3,0.4-0.8,0.2-1.2c0,0-0.1,0-0.1,0c-0.1,0.6-0.6,0.9-1.1,1.1c-0.3,0.1-0.6,0.3-0.8,0.5c-0.1-0.4-0.1-0.7-0.1-1.1
	c0.5-0.8,1.1-1.4,1.9-1.9c0,0,0,0,0,0c0,0,0,0,0,0c0,0,0,0,0,0c0,0,0,0,0,0c-1.7,0.4-2.8,1.9-3,3.6c-0.1,0.9,0.1,1.9,0.5,2.7
	c0.2,0.4,0.6,0.8,0.8,1.3c0.1,0.4,0,1-0.5,0.9c0,0,0,0,0,0c0,0-0.1,0-0.1,0c0,0-0.1,0-0.1,0c-0.3-0.1-0.6-0.2-0.9-0.3
	c-0.3-0.2-0.5-0.6-0.7-0.9c0,0-0.1,0-0.1,0c0,0.8,0.7,1.5,1.4,1.8c0,0,0,0,0,0c0.2,0.1,0.4,0.2,0.6,0.2c0.2,0,0.5,0.1,0.7,0.1
	c0.3,0.1,0.5,0.2,0.7,0.5c0.3,0.4,0.6,0.7,1.1,0.7c0.3,0,0.5-0.1,0.7-0.3c0,0.6-0.4,1.1-0.9,1.3c0,0-0.1,0-0.1,0
	c-1.5,0.3-3.3-0.2-4.2-1.6c0,0,0,0,0,0c0,0,0,0,0,0c0,0,0,0,0,0s0,0,0,0c0.3,0.8,0.8,1.4,1.6,1.8c0,0,0.1,0.1,0.1,0.1
	c0.1,0,0.2,0,0.2,0.1c0.2,0.1,0.4,0.1,0.5,0.1c-0.3,0.3-0.8,0.3-1.2,0.2c-0.6-0.2-1.1-0.6-1.5-1c0,0,0,0,0,0c0,0,0,0,0,0
	c0,0,0,0,0,0c0,0,0,0,0,0c0.4,0.6,1,1.2,1.7,1.4c0.1,0,0.1,0,0.2,0c0.2,0.4,0.4,0.7,0.7,1c0.4,0.3,0.8,0.6,1.3,0.7
	c1,0.3,2.1,0.2,3-0.2c0.5-0.2,0.9-0.6,1.3-1c0.4-0.3,1-0.7,1.5-0.3c0.2,0.2,0.3,0.5,0.2,0.8c-0.1,0.3-0.3,0.6-0.5,0.9
	c-0.2,0.2-0.3,0.3-0.5,0.4c-0.2,0.1-0.4,0.3-0.7,0.4c-0.9,0.5-1.9,0.7-2.9,0.8c0,0,0,0,0,0c0.8,0.2,1.7,0.1,2.6-0.1
	c0.4,0,0.8,0,1.1-0.1c0.6-0.1,1.2-0.2,1.7-0.5c1-0.4,1.8-1.1,2.2-2.1c0.4-0.9,0.2-2-0.4-2.7c-0.3-0.4-0.8-0.6-1.3-0.6
	c0.3-0.1,0.7-0.1,1,0c0.7,0.2,1.3,0.8,1.5,1.5c0,0,0.1,0,0.1,0c0-0.4-0.2-0.8-0.5-1.1c-0.3-0.3-0.6-0.6-1-0.8
	c-0.2-0.1-0.4-0.1-0.6-0.1c-0.4-0.2-0.9-0.3-1.3-0.2c-0.3,0-0.6,0.1-0.9,0.2c-0.3,0.1-0.6,0.2-0.8-0.1c0,0,0-0.1,0-0.1
	c0,0,0-0.1,0-0.1c0,0-0.1-0.1-0.1-0.1c0,0-0.1,0-0.1,0c-0.4,0.1-0.7,0.3-1,0.6c-0.3,0.3-0.4,0.6-0.4,1c0,0,0,0,0,0.1
	c-0.1-0.2-0.1-0.4-0.1-0.7c0-0.9,0.5-1.8,1.3-2.3c0.8-0.6,1.9-0.7,2.9-0.5c0,0,0,0,0,0c0,0,0.1,0,0.1,0c0,0,0.1,0,0.1,0
	c0.4,0.1,0.9,0.3,1.3,0.5c0.6,0.4,1.1,0.9,1.4,1.6c-0.3-0.4-0.6-0.7-1.1-0.9c0,0,0,0,0,0c0,0,0,0,0,0c0,0,0,0,0,0c0,0,0,0,0,0
	c0.5,0.4,0.8,0.8,1.1,1.4c-0.1-0.2-0.3-0.4-0.5-0.5c-0.5-0.5-1.2-0.9-1.9-1c-0.7-0.2-1.4-0.2-2.1,0c0,0,0,0.1,0,0.1
	c1.4-0.2,2.8,0.2,3.8,1.2c0.6,0.6,1,1.5,1.1,2.3c-0.1,1.1-0.5,2.1-1.2,2.9c-0.9,1.1-2.2,1.9-3.6,2.3c-1.4,0.4-2.8,0.3-4.2-0.1
	c0,0,0,0,0,0l0,0c-0.1,0-0.2-0.1-0.4-0.1c-0.9-0.3-1.7-0.8-2.4-1.4c0.5,0.3,1,0.4,1.6,0.5c0,0,0,0,0,0c-0.9-0.2-1.7-0.7-2.4-1.2
	c0.3,0.2,0.6,0.4,1,0.5c1.4,0.6,3,0.4,4.4-0.2c0,0,0-0.1,0-0.1c-1.3,0.5-2.8,0.6-4.2,0c-0.4-0.2-0.8-0.4-1.2-0.6
	c0.3,0.2,0.6,0.3,1,0.4c0,0,0,0,0,0c-0.8-0.4-1.5-0.8-2.1-1.5c0,0,0,0,0-0.1c-0.7-1.1-1.1-2.3-1.4-3.6c-0.1-0.6-0.2-1.3-0.2-1.9
	c0.2,0.6,0.5,1.1,0.8,1.7c0,0,0,0,0,0c0,0,0,0,0,0c0,0,0,0,0,0c0,0,0,0,0,0c-0.3-0.5-0.5-1-0.6-1.6c0.1,0.1,0.1,0.3,0.2,0.4
	c0.5,0.9,1.3,1.6,2.1,2.1c0,0,0,0,0,0c0,0,0,0,0,0s0,0,0,0c0,0,0,0,0,0c0,0,0,0,0,0c-0.9-0.5-1.5-1.2-1.9-2.1
	c-0.4-0.9-0.5-1.7-0.5-2.7c0.2-0.9,0.4-1.7,0.8-2.6c-0.1,0.8-0.1,1.6,0.1,2.2c0,0,0.1,0,0.1,0c-0.1-0.6-0.1-1.2,0-1.8
	c0-0.1,0-0.1,0-0.2c-0.1,1.4,0.2,2.8,1,4c0,0,0,0,0,0c0,0,0,0,0,0c0,0,0,0,0,0c0,0,0,0,0,0c-1.5-2.8-0.8-6.4,1.7-8.3
	c0.7-0.6,1.5-1.1,2.4-1.5C38.1,45.2,38.5,45.9,39,46.5z"/>
<path fill="#C9A96A" d="M33.2,62.1c1.7,1,2.7,1.6,3.3,2.5c0.2,0.4,0.4,0.8,0.4,1.3c0,0,0,0,0.1,0c0-0.4,0-0.8-0.1-1.2
	c0.2,0.5,0.3,1.1,0.2,1.7c-0.2,0.8-0.7,1.6-1.5,1.8c-0.8,0.2-1.7-0.1-2.1-0.7c0,0-0.1,0-0.1,0c0.2,0.4,0.5,0.7,0.9,0.9
	c0.4,0.2,0.8,0.2,1.3,0.2c0.9-0.2,1.6-1,1.9-1.9c0.1-0.3,0.1-0.5,0.1-0.8c0,0,0,0.1,0,0.1c0.1,0.9-0.3,1.7-0.8,2.4c0,0,0,0,0,0
	c0.7-0.5,1.1-1.4,1.1-2.2c0,0.4,0,0.8-0.2,1.2c-0.4,1.1-1.4,2-2.7,1.8c-1.2-0.2-2.4-1.2-2.3-2.5c0-0.6,0.4-1.2,0.9-1.5
	c0.5-0.3,1.2-0.2,1.6,0.3c0.4,0.4,0.4,1.2,0,1.6c-0.1,0.1-0.3,0.2-0.5,0.3c-0.2,0-0.4,0-0.6-0.1c-0.3-0.2-0.6-0.6-0.3-0.9
	c0,0,0-0.1,0,0c-0.4,0.2-0.5,0.7-0.2,1c0.3,0.4,0.8,0.5,1.3,0.4c0.2,0,0.4-0.2,0.6-0.3c0.2-0.2,0.3-0.4,0.4-0.6
	c0.3-0.6,0.3-1.3,0-1.8c-0.2-0.3-0.8-0.9-0.8-0.9s-0.6-0.7-1.7-0.9c-2.6-0.2-3.7,2-3.2,4.5c0.2,1.2,1.4,2.6,2.6,3.1
	c0.3,0.1,0.7,0.2,1,0.3c0.9,0.2,1.9,0.1,2.7-0.4c0,0,0,0,0,0c0,0,0,0,0,0c0,0,0,0,0,0c0,0,0,0,0,0c-0.5,0.2-1,0.3-1.5,0.3
	c0.3-0.1,0.6-0.2,0.8-0.4c0.1-0.1,0.2-0.2,0.3-0.2c0,0,0.1-0.1,0.1-0.1c0.2-0.2,0.5-0.3,0.7-0.3c0.7,0,0.7,0.8,0.3,1.1
	c-0.4,0.4-0.8,0.4-1.3,0.4l0,0c-0.1,0-0.2,0-0.4,0c-0.1,0-0.1,0-0.2-0.1l0,0l0,0l0,0c0,0,0,0,0,0c0,0,0,0,0,0v0c0,0,0,0,0,0
	c0.4,0.5,1,0.6,1.6,0.5c0.6-0.1,1.1-0.3,1.6-0.5c0.1,0,0.1-0.1,0.2-0.1l0,0l0.2-0.1c0.7-0.3,1.4-0.5,2.1-0.4
	c0.4,0.1,0.8,0.3,1.2,0.5c-1,0-1.8,0.6-2.7,1l-0.1,0.1c-0.8,0.5-1.9,1-2.8,0.8c-0.1-0.1-0.3-0.1-0.4-0.2c0,0,0,0,0,0l0,0l0,0l0,0
	c0,0,0,0-0.1,0c-0.1,0-0.1-0.1-0.2-0.1c-0.2-0.1-0.4-0.1-0.6-0.2c0,0,0,0,0,0c0,0,0,0,0.1,0.1c0,0,0.1,0.1,0.1,0.1
	c0.5,0.4,1.1,0.7,1.7,0.9c-0.2,0-0.4,0-0.6-0.1l0,0c-0.4,0-0.7-0.1-1-0.1c-0.3-0.1-0.5-0.1-0.8-0.2c-0.3-0.1-0.7-0.2-1-0.3
	c-1.3-0.5-2.3-0.8-3.1-1.7c-0.3-0.4-0.8-1.2-1-1.7c0.3,0.5,0.7,1,1,1.5c0,0,0.1,0,0,0c-0.3-0.3-0.5-0.7-0.7-1.1
	c0.5,0.6,1.1,1.1,1.7,1.6c0,0,0,0,0,0c-0.5-0.4-0.9-0.8-1.3-1.4c1.2,1.3,2.8,1.9,4.5,1.9c0,0,0,0,0,0c0,0,0,0,0,0c0,0,0,0,0,0
	c0,0,0,0,0,0c-1.7,0-3.2-1-4.5-2.3c-0.5-0.5-0.9-0.9-1.1-1.7C28.3,64.3,30.2,61.5,33.2,62.1z"/>
<path fill="#C9A96A" d="M37.5,69.2c0.2,0,0.4,0,0.5,0c0.4,0,0.9-0.1,1.3-0.3c0.7-0.3,1.3-1,1.4-1.8c0,0,0,0,0,0c0,0,0,0,0,0
	c0,0,0,0,0,0c0,0,0,0,0,0c0,0.1,0,0.1-0.1,0.2l0,0c0,0.2-0.1,0.3-0.1,0.5c-0.1,0.2-0.2,0.4-0.4,0.6c0,0,0,0,0,0
	c0.3-0.2,0.5-0.5,0.7-0.8c0,0.1-0.1,0.2-0.1,0.3c-0.2,0.3-0.4,0.6-0.7,0.8c0,0,0,0,0,0c0.5-0.4,1.1-0.9,1.2-1.6c0.1,0,0.2,0,0.2,0
	c0.2,0,0.4-0.1,0.5-0.2c0,0,0-0.1,0-0.1c-0.5,0.2-1.1,0-1.4-0.4c-0.1-0.1-0.1-0.2-0.1-0.3c0-0.6,0.5-1,1.1-1
	c0.8,0.1,1.2,0.8,1.3,1.6c0,0,0,0,0,0c0-0.9-0.5-1.8-1.4-2c0.1,0,0.4,0,0.4,0c0.1,0,0.2,0,0.2,0.1c0.5,0.2,0.9,0.7,1,1.2
	c0.3,1.2-0.5,2.3-1.4,3c-0.9,0.7-2,1-3.2,1c-0.2,0-0.4,0-0.7-0.1c0-0.2-0.1-0.4-0.3-0.5c-0.6-0.5-1.3-0.2-1.8,0.2l0,0
	c-0.1,0-0.1,0-0.1,0.1c-0.3,0.3-0.7,0.5-1.1,0.6c-1.2,0.3-2.4-0.4-3-1.5c-1.3-1.9-0.5-5.1,1.7-5.1c0.8,0,1.3,0.4,1.5,0.7
	c-0.1,0-0.1,0-0.2,0c-1.2-0.2-2.3,0.8-2.3,2c-0.1,1.3,0.8,2.4,1.9,2.9c0.5,0.2,1.1,0.3,1.7,0.1C36.4,69.5,36.7,69.1,37.5,69.2z"/>
<path fill="#C9A96A" d="M44.7,73.6C44.7,73.6,44.6,73.6,44.7,73.6c-0.4-0.1-0.8-0.1-1.2-0.1c1.3-0.2,2.5-1,3.4-2.1c0,0,0-0.1,0,0
	c-0.7,0.8-1.7,1.4-2.7,1.7c0,0,0,0,0.1,0l0,0c0.4-0.1,0.8-0.4,1.1-0.7c0.4-0.3,0.7-0.8,1-1.2c0,0,0,0,0,0c-0.3,0.4-0.7,0.8-1.1,1.1
	c-0.1,0-0.1,0.1-0.2,0.1c0.6-0.6,1-1.4,1.3-2.2c1.2-0.6,1.8-2.1,1.9-3.4c0,0-0.1-0.1-0.1,0c-0.1,0.7-0.4,1.3-0.7,1.9
	c-0.3,0.4-0.7,0.8-1,1.2c0.3-1,0.3-2,0.1-3c0,0-0.1,0-0.1,0c0.3,1.9-0.5,4-1.9,5.4c-0.7,0.7-1.5,1.2-2.5,1.5c-0.1,0-0.1,0-0.2,0.1
	c0.5-0.2,0.9-0.5,1.2-0.9c0.8-0.9,1.3-2.2,1-3.4c0-0.1-0.1-0.2-0.1-0.3l0,0c-0.1-0.2-0.2-0.5-0.2-0.7c0-0.2,0-0.6,0.3-0.7
	c0.7-0.4,1.1,0.6,1.2,1.1c0,0,0,0.1,0,0.1c0,0.3-0.1,0.6-0.1,0.9c0,0.2-0.1,0.3-0.1,0.5l0,0c0,0.1-0.1,0.3-0.1,0.4c0,0,0,0,0,0
	c0,0,0,0,0,0l0,0c0,0,0,0,0,0c0,0,0,0,0,0c0.2-0.3,0.4-0.6,0.5-1c0.1-0.3,0.3-0.7,0.3-1c0.1-0.7,0.2-1.3,0.2-2
	c0-0.3-0.1-1.2-0.7-1.4c-0.4-0.1-0.9,0-1.3,0.2c0.2-0.5,0.5-0.8,1-0.9c0.7-0.1,1.1,0.3,1.4,0.9c0.1,0.2,0.1,0.8,0.1,1
	c0,0.1,0.1,0.1,0.1,0c0-0.1,0-0.2,0.1-0.3l0,0c0-0.1,0.1-0.2,0.1-0.3c0,0,0,0,0,0c0.2-0.6,0.5-1.2,0.4-1.8C47,63.6,47,63.4,47,63
	c0-0.1,0.2-0.7,0.6-0.4c0.4,0.3,0.4,0.8,0.3,1.3c-0.1,0.2-0.2,0.5-0.3,0.7l0,0c-0.1,0.3-0.2,0.5-0.3,0.8c-0.1,0.2-0.1,0.5,0,0.7
	c0,0.2,0.1,0.4,0.2,0.6l0,0c0,0.1,0.1,0,0.1,0c-0.1-0.4,0-0.9,0.2-1.3c0,0,0.1,0,0.1,0c0.2,0,0.4,0,0.6,0.1c0.2,0.1,0.4,0.4,0.5,0.6
	c0.2,0.6,0.1,1.2-0.1,1.7c-0.4,1.1-1.2,1.9-2.2,2.4c0,0,0,0,0,0c0,0,0,0,0,0c0,0,0,0,0,0c0,0,0,0,0,0c0.4-0.1,0.7-0.2,1-0.4
	c0.8,1,0.2,2.3-0.7,3c-0.5,0.4-1.1,0.6-1.7,0.7C45.2,73.6,44.8,73.6,44.7,73.6z"/>
<path fill="#C9A96A" d="M48,83.7c0.4-0.2,0.8-0.5,1.1-0.8c0.2,0,0.3,0,0.5,0c0.5,0,0.9-0.3,1.1-0.7c0-0.1,0.1-0.2,0.1-0.2
	c0.7-0.2,1.5,0,2.1,0.5c-0.8,0.6-1.3,1.5-1.9,2.3c-0.3,0.5-0.6,1-1.1,1.4c0,0,0,0,0,0c0.4-0.6,0.7-1.3,1-2c0,0-0.1-0.1-0.1,0
	c-0.3,0.6-0.6,1.1-1,1.7c0.1-0.8,0.1-0.9,0.3-1.4l0.2-0.9c-0.7,0.3-1.7,0.6-1.7,0.6c-0.1,0-0.2,0.1-0.4,0.1
	c-0.7,0.2-1.5,0.4-2.2,0.4c-1.7,0-3.3-0.4-4.7-1.3c0,0,0,0,0,0c1.4,1.1,3.1,1.7,4.9,1.6c0.7,0,1.5-0.2,2.2-0.4
	c-0.3,0.1-0.6,0.2-0.9,0.3c-1,0.3-2,0.3-3,0.2c0,0,0,0,0,0c0,0,0,0,0,0c0,0,0,0,0,0c0,0,0,0,0,0c1,0.3,2.1,0.3,3.1,0.2
	c0.1,0,0.3-0.1,0.4-0.1c-0.8,0.3-1.7,0.4-2.5,0.3c-1.6-0.2-3.1-0.8-4.4-1.7c-1.2-0.9-2.2-2.2-2.6-3.6c-0.3-1.1-0.3-2.3,0.1-3.3
	c0.1,0.7,0.3,1.3,0.4,2c0,0,0,0,0,0c0,0,0,0,0,0c0,0,0,0,0,0c0,0,0,0,0,0c-0.2-0.8-0.2-1.7-0.1-2.5l0,0c0.7,0.4,1,1.3,0.9,2
	c0,0,0,0,0,0c0,0,0,0,0,0c0,0,0,0,0,0c0,0,0,0,0,0c0.4-0.6,0.3-1.3,0-1.8c1-2,2.3-2.8,4.6-2.4c0.6,0.2,1.2,0.5,1.6,1
	c0.3,0.5,0.5,1.1,0.3,1.7c-0.1,0.3-0.3,0.5-0.5,0.7c0,0-0.1,0.1-0.1,0.1c-0.2,0.1-0.6,0-0.6,0s0.4-0.3,0.5-0.4s0.2-0.4,0.3-0.6
	c0.1-0.5,0-1-0.4-1.4c-0.3-0.3-0.8-0.5-1.3-0.5c0,0,0,0,0,0c0.9,0.1,1.6,0.9,1.4,1.8c-0.2,0.7-1.1,1.6-1.7,1.1
	c-0.1,0-0.1-0.1-0.1-0.1c0,0-0.1-0.1-0.1-0.1s0.4,0.1,0.6,0c0.2,0,0.4-0.2,0.5-0.3c0.5-0.6,0.1-1.6-0.6-1.8
	c-1.3-0.4-2.7,0.3-3.3,1.4c-0.6,0.8-0.9,1.9-0.8,2.9c0.1,1.4,0.8,2.7,1.9,3.5c1.1,0.9,2.6,1.3,4,1.1C46.6,84.2,47.3,84,48,83.7z"/>
<path fill="#C9A96A" d="M37.8,76.4C37.8,76.4,37.8,76.4,37.8,76.4C37.8,76.4,37.8,76.4,37.8,76.4L37.8,76.4c-0.1-0.4-0.3-1-0.5-1.3
	c-0.4-0.5-0.8-0.9-1.4-1.1c-0.1,0-1.5-0.3-1.5-0.3c-0.6-0.2-2.5-1-3.1-1.3c1.6,2.5,3.6,3,4.6,3C36.9,75.5,37.7,76.2,37.8,76.4z"/>
<path fill="#C9A96A" d="M46.8,81.9c0.3,0.1,0.7,0.2,1.1,0.1c0.1,0.2,0.3,0.4,0.5,0.6l0.4,0.2c0,0,0.1,0,0.1,0
	c-0.4,0.2-0.8,0.4-1.4,0.4c-1.2,0.1-2.1-0.2-2.9-0.9c-0.8-0.7-1.3-1.7-1-2.7c0.2-0.9,1-1.7,2-1.7c0.4,0,0.9,0.2,1.2,0.5
	c-0.4-0.3-0.9-0.4-1.4-0.2c-0.3,0.1-0.6,0.3-0.8,0.6c-0.2,0.3-0.4,0.6-0.4,0.9c0,0.4,0,0.7,0.1,1c0.1,0.3,0.3,0.6,0.6,0.9
	c0.6,0.6,1.4,0.8,2.3,0.7c0,0,0,0,0,0c0,0,0,0,0,0c0,0,0,0,0,0c0,0,0,0,0,0c-1.2-0.1-2.6-1-2.6-2.3c0-0.6,0.3-1.2,0.9-1.4
	c0.2-0.1,0.5-0.1,0.7-0.1c-0.8,0.1-1.4,0.9-1.2,1.8C45.2,81.3,46,81.7,46.8,81.9z"/>
<path fill="#C9A96A" d="M48,40.8c-0.8,0.3-1.4,0.6-2.2,1.5c0.1-0.3,0-0.7-0.2-1c-0.2-0.5-0.7-0.9-1.2-1c-0.3-0.1-0.7-0.1-1,0
	c-0.3,0.1-0.6,0.2-0.9,0.4c0.1-0.2,0.2-0.5,0.3-0.7c0,0,0-0.1-0.1,0c-0.3,0.4-0.5,0.7-0.7,1.1l0,0c0.1-0.8,0.5-1.6,1.2-2.1
	c0,0,0,0,0,0c-0.4,0.2-0.7,0.5-0.9,0.8c-0.2,0.3-0.4,0.7-0.5,1.1c0-0.3,0-0.5,0-0.8c0,0,0,0,0,0c0,0,0,0,0,0s0,0,0,0c0,0,0,0,0,0
	c-0.2,0.5-0.3,1.1-0.2,1.6c-0.3,0.5-0.5,1.1-0.5,1.7c0,0.6,0.1,1.2,0.3,1.7c0,0,0.3,2.6,1.1,3.3c0.1,0.1,0.3,0.2,0.4,0.4
	c-0.8-0.5-1.5-1.2-2.1-1.9c-0.4-0.5-0.8-1-1.1-1.6c-0.3-0.5-0.5-1-0.8-1.5c0,0,0,0,0,0c0,0,0,0,0,0c0,0,0,0,0,0s0,0,0,0
	c0.1,0.6,0.4,1.2,0.7,1.7c0.3,0.5,0.6,1,1,1.5c0.4,0.4,0.8,0.9,1.2,1.2c-1.2-0.8-2.2-1.9-3-3.1c0,0,0-0.1,0-0.1
	c-1.7-2.6-1.2-6.1,1.1-8.2c0,0,0,0,0,0c0,0,0,0,0,0c0,0,0,0,0,0c0,0,0,0,0,0c-1.1,0.9-1.9,2-2.2,3.4c0-0.1,0-0.1,0-0.2
	c0.1-0.6,0.3-1.1,0.6-1.7c0,0,0,0,0,0c-0.4,0.5-0.7,1.3-0.8,2c-0.1-0.9,0-1.7,0.1-2.6c0.3-0.9,0.7-1.6,1.3-2.3
	c0.7-0.7,1.5-1.2,2.4-1.3c0,0,0,0,0,0c0,0,0,0,0,0c0,0,0,0,0,0c0,0,0,0,0,0c-0.9,0.2-1.9,0.6-2.6,1.3c-0.1,0.1-0.2,0.2-0.3,0.3
	c0.3-0.5,0.7-0.9,1.1-1.3c0,0,0,0,0,0c0,0,0,0,0,0c0,0,0,0,0,0c0,0,0,0,0,0c-0.5,0.4-0.9,0.8-1.3,1.3c0.2-0.6,0.5-1.1,0.8-1.7
	c0.6-1.1,1.4-2,2.4-2.8c0,0,0,0,0.1,0c0.7-0.4,1.6-0.6,2.4-0.7c0,0,0,0,0,0c-0.3,0-0.7,0-1,0c0.4-0.1,0.8-0.2,1.3-0.2
	c1.4,0,2.8,0.4,3.8,1.4c0,0,0.1,0,0,0c-1-1-2.5-1.7-3.9-1.6c-0.4,0-0.7,0.1-1.1,0.2c0.8-0.3,1.7-0.4,2.6-0.4c0,0,0,0,0,0
	c-0.5-0.1-1.1-0.1-1.6-0.1c0.8-0.3,1.7-0.5,2.6-0.5c1.5,0,3,0.3,4.2,1.2c1.1,0.8,2,2,2.5,3.3c0.3,1,0.4,2,0.2,3.1
	c-0.4,0.8-1,1.4-1.8,1.8c-1.2,0.6-2.7,0.5-3.8-0.1c0,0-0.1,0,0,0.1c0.6,0.4,1.3,0.6,2,0.7c0.7,0.1,1.4-0.1,2-0.4
	c0.2-0.1,0.4-0.2,0.6-0.3c-0.4,0.4-0.8,0.8-1.4,0.9c0,0,0,0,0,0c0,0,0,0,0,0c0,0,0,0,0,0c0,0,0,0,0,0c0.5,0,0.9-0.2,1.3-0.5
	c-0.5,0.5-1.1,0.8-1.8,1c-0.4,0.1-0.9,0.1-1.3,0c0,0,0,0-0.1,0c0,0-0.1,0-0.1,0c0,0,0,0,0,0c-0.9-0.1-1.9-0.6-2.4-1.3
	c-0.5-0.7-0.8-1.7-0.4-2.5c0.1-0.2,0.2-0.4,0.3-0.6c0,0,0,0,0,0.1c-0.1,0.4-0.1,0.7,0.1,1.1c0.1,0.3,0.4,0.6,0.7,0.8
	c0,0,0.1,0,0.1,0c0,0,0.1,0,0.1,0s0.1-0.1,0.1-0.1c0,0,0-0.1,0-0.1c0.2-0.2,0.5,0,0.8,0.2c0.2,0.2,0.5,0.4,0.8,0.5
	c0.4,0.2,0.8,0.2,1.3,0.2c0.2,0,0.4,0.1,0.6,0.1c0.4,0,0.8-0.2,1.1-0.4c0.3-0.2,0.6-0.5,0.8-0.9c0,0,0-0.1-0.1,0
	c-0.4,0.6-1.1,1-1.9,0.9c-0.3,0-0.7-0.1-1-0.3c0.5,0.1,1,0,1.4-0.2c0.8-0.5,1.3-1.4,1.3-2.4c0-1-0.5-1.9-1.3-2.6
	c-0.4-0.4-0.9-0.7-1.4-1c-0.3-0.2-0.7-0.3-1-0.4c-0.7-0.5-1.5-0.8-2.3-0.9c0,0,0,0,0,0c0.9,0.4,1.8,0.9,2.4,1.7
	c0.2,0.2,0.3,0.4,0.5,0.6c0.1,0.2,0.2,0.4,0.3,0.6c0.1,0.3,0.2,0.6,0.2,0.9c0,0.3-0.2,0.6-0.5,0.7c-0.6,0.2-1-0.4-1.3-0.8
	c-0.3-0.5-0.5-0.9-0.9-1.3c-0.7-0.7-1.7-1.2-2.7-1.2c-0.5,0-0.9,0.1-1.4,0.3c-0.4,0.2-0.7,0.4-1,0.7c-0.1,0-0.1,0-0.2,0
	c-0.7,0-1.5,0.3-2,0.8c0,0,0,0,0,0c0,0,0,0,0,0c0,0,0,0,0,0c0,0,0,0,0,0c0.5-0.2,1.1-0.4,1.7-0.4c0.4,0,0.9,0.1,1.1,0.5
	c-0.2,0-0.4,0-0.5,0c-0.1,0-0.2,0-0.2,0c0,0-0.1,0-0.1,0c-0.8,0.1-1.5,0.5-2,1.1c0,0,0,0,0,0c0,0,0,0,0,0c0,0,0,0,0,0c0,0,0,0,0,0
	c1.2-1,3-0.9,4.3-0.1c0,0,0.1,0,0.1,0.1c0.4,0.4,0.7,1,0.4,1.5c-0.1-0.2-0.3-0.4-0.6-0.5c-0.5-0.2-0.9,0-1.2,0.3
	c-0.2,0.2-0.5,0.3-0.8,0.2c-0.2,0-0.5-0.1-0.7-0.1c-0.2,0-0.4,0-0.6,0c0,0,0,0,0,0c-0.8,0-1.6,0.4-1.9,1.2c0,0,0,0.1,0.1,0
	c0.3-0.3,0.6-0.5,0.9-0.7c0.3,0,0.6,0,0.9,0c0,0,0.1,0,0.1,0c0,0,0.1,0,0.1,0c0,0,0,0,0,0c0.5,0.1,0.3,0.7,0.1,1
	c-0.3,0.4-0.8,0.6-1.1,0.9c-0.6,0.6-1.1,1.4-1.3,2.3c-0.3,1.6,0.2,3.3,1.6,4.2c0,0,0,0,0,0c0,0,0,0,0,0c0,0,0,0,0,0c0,0,0,0,0,0
	c-0.6-0.7-1-1.5-1.1-2.3c0.1-0.4,0.2-0.7,0.4-1c0.1,0.3,0.3,0.5,0.6,0.7c0.4,0.3,0.7,0.8,0.6,1.4c0,0,0,0.1,0.1,0
	c0.3-0.4,0.4-0.8,0.2-1.2c0,0,0,0,0-0.1c-0.1-0.5-0.1-1,0.1-1.5c0.2-0.5,0.4-1,0.8-1.3c0.6-0.7,1.4-1.1,2.3-1.4
	c0,0.4,0.1,0.7,0.1,1.1c0.1,0.5,0.1,1.1-0.5,1.2c0,0,0,0,0,0c0,0,0,0,0,0c0,0,0,0,0,0c0,0,0,0,0,0c0.3,0.1,0.5-0.3,0.8-0.4
	c0.3-0.1,0.5-0.1,0.8-0.1c0.4,0,1.1,0.4,1.1,0.4S47.5,40.3,48,40.8z"/>
<path fill="#C9A96A" d="M44.7,41.1c0.2,0.1,0.3,0.3,0.4,0.4c0.2,0.3,0.2,0.6,0.2,1c0,0,0,0.1,0,0.1c-0.8-0.2-1.7,0-2.3,0.5
	c0.2-0.6,0.6-1.1,1.2-1.4c0,0,0-0.1,0,0c-0.7,0.2-1.3,0.8-1.6,1.5c0-0.4,0-0.7,0.2-1.1c0,0,0,0,0,0c0,0,0,0,0,0c0,0,0,0,0,0
	c0,0,0,0,0,0c-0.4,0.5-0.5,1.2-0.3,1.8c-0.2,0.4-0.4,0.8-0.5,1.2c0,0,0,0,0,0c-0.3-0.9-0.4-1.9,0-2.8c0.4-0.8,1.2-1.5,2.1-1.4
	C44.3,40.9,44.5,41,44.7,41.1z"/>
<path fill-rule="evenodd" clip-rule="evenodd" fill="#C9A96A" d="M43.4,73.5C43.4,73.5,43.4,73.5,43.4,73.5
	C43.4,73.5,43.4,73.5,43.4,73.5c-0.4,0.2-0.8,0.4-1.2,0.5c-0.1,0-0.2,0.1-0.2,0.1c0,0-0.5,0-1.1,0.1C41.6,73.7,42.5,73.5,43.4,73.5z
	 M43.1,77.1L43.1,77.1C43.1,77.1,43.1,77.1,43.1,77.1C43.1,77.1,43.1,77.1,43.1,77.1z"/>
<path fill-rule="evenodd" clip-rule="evenodd" fill="#C9A96A" d="M40.9,74.1c0.7-0.4,1.6-0.7,2.5-0.7c0,0,0,0,0,0l0,0
	c-0.4,0.2-0.7,0.4-1.1,0.5c-0.1,0-0.2,0.1-0.2,0.1C42,74.1,41.5,74.1,40.9,74.1z"/>
<path fill-rule="evenodd" clip-rule="evenodd" fill="#C9A96A" d="M40.7,67.2C40.7,67.2,40.7,67.2,40.7,67.2
	C40.7,67.2,40.7,67.2,40.7,67.2C40.7,67.2,40.7,67.2,40.7,67.2z"/>
<path fill-rule="evenodd" clip-rule="evenodd" fill="#C9A96A" d="M43.6,51.6c0,0.1,0,0.2,0,0.3c0,0.1,0,0.1,0,0.2c0.1,0-0.1,0,0,0
	L43.6,51.6C43.5,51.6,43.6,51.6,43.6,51.6z"/>
<path fill-rule="evenodd" clip-rule="evenodd" fill="#C9A96A" d="M45,43.6C45,43.6,45,43.6,45,43.6C45,43.7,45,43.7,45,43.6L45,43.6
	C45,43.7,45,43.7,45,43.6L45,43.6C45,43.7,45,43.7,45,43.6C45,43.6,45,43.6,45,43.6z M41.3,45.1c0,0.1,0.1,0.2,0.1,0.3
	C41.4,45.3,41.4,45.2,41.3,45.1z"/>
<path fill="#C9A96A" d="M38.6,47.5c-0.1,0.4-0.1,0.5,0,1c-0.4,0.5-0.5,1.2-0.3,1.8c0,0,0,0,0,0c0,0,0,0,0,0c0,0,0,0,0,0c0,0,0,0,0,0
	c0-0.4,0-0.8,0.2-1.1c0,0.8,0.4,1.5,1,2c0,0,0.1,0,0,0c-0.5-0.5-0.7-1.1-0.7-1.8c0.4,0.7,1.2,1.2,2.1,1.3c0,0,0,0,0,0
	c-0.1,0.4-0.2,0.7-0.6,1c-0.2,0.1-0.4,0.2-0.6,0.3c-0.2,0-0.4,0-0.6,0c-1-0.2-1.5-1.1-1.6-2.1C37.5,48.8,38,48.2,38.6,47.5z"/>
<path fill="#C9A96A" d="M40.9,50c-0.3-0.1-0.6-0.2-0.9-0.4c-0.3-0.2-0.5-0.5-0.6-0.8c-0.4-0.6-0.2-1.6,0.3-1.6c0.9,1,2,1.7,3.2,2.3
	C42.4,50,41.5,50.2,40.9,50z"/>
<path fill="#C9A96A" d="M58.1,83.3c0.2,0.1,1.3,0.7,1.3,0.7c1.8,0.6,2.8,0.9,4.8,0.8v1l-0.7,0.9l0,0c-0.3,0.6-0.5,1.1-1.1,1.4
	c-0.4,0.2-0.9,0.3-1.4,0.3c0.2-0.2,0.4-0.5,0.6-0.7c0.3-0.3,0.6-0.6,0.9-0.8c0,0,0,0,0,0c-0.4,0.2-0.7,0.5-1,0.7
	c-0.3,0.2-0.5,0.4-0.7,0.6c0-0.2,0.1-0.3,0.1-0.5c0.1-0.3,0.3-0.6,0.5-0.8c0.4-0.4,0.9-0.7,1.3-1c0,0,0,0,0,0
	c-0.6,0-1.2,0.3-1.7,0.8c0,0,0,0,0,0c-0.6,0.4-1.3,0.7-2,0.6c-0.5-0.1-1-0.3-1.4-0.6c0.4,0,0.8,0,1.1-0.1c0.3-0.1,0.6-0.2,0.8-0.3
	c0.2-0.2,0.4-0.4,0.6-0.6c0,0,0,0,0,0c-0.2,0.1-0.5,0.2-0.7,0.3c-0.2,0.1-0.3,0.2-0.6,0.2c-1,0.2-1.5-0.9-2.2-1.3
	c-0.3-0.2-0.7-0.3-1.1-0.2c0.4-0.3,1.1-0.2,1.6,0c0.8,0.3,1.4,0.9,2.3,0.8c0,0,0,0,0,0c0,0,0,0,0,0c0,0,0,0,0,0c0,0,0,0,0,0
	c-1-0.1-1.7-1-2.7-1.3c-0.5-0.1-1.1,0-1.5,0.3c0.1-0.3,0.4-0.5,0.6-0.6C56.6,83.2,57.5,83,58.1,83.3z"/>
<path fill="#C9A96A" d="M53.9,56.5c-2.8,0.9,4.2,0.5,4.2,0.5c0.5,0.4,0.9,0.9,1.2,1.3c1.1,1.2,1.9,2,3.2,1.7
	c0.7,0.8,1.1,1.1,1.9,1.4c1-0.4,1.4-0.8,1.9-1.4c1.5,0.3,2.5-0.8,4-2.3c0.2-0.2,0.4-0.5,0.7-0.7c0,0,6.3,0.4,3.5-0.5
	c-2.2-0.7-3.2-1-4.9-2l-4.3,4.2c0,0.8-0.4,1.1-0.9,1.1c-0.4,0-0.9-0.3-0.9-1.1l-5-4.1C57.1,55.6,56.2,55.8,53.9,56.5z"/>
<path fill-rule="evenodd" clip-rule="evenodd" fill="#C9A96A" d="M68.3,53.7l-3.8,3.6l-4.5-3.5c-0.2,0.2-0.6,0.5-0.8,0.6l4.3,3.7
	c0.3-0.6,0.5-0.6,0.9-0.6c0.4,0,0.6,0,0.9,0.6l3.7-3.7C69,54.2,68.5,53.9,68.3,53.7z"/>
<path fill="#C9A96A" d="M68.6,45.7h-8.7c0.9,2.5,1.3,2.8,1.9,3.8c1.7,2.8,3.4,2.8,5.3,0C68,48,68.2,47.4,68.6,45.7z"/>
<path fill="#C9A96A" d="M60.7,53.2l3.9,3.1l3.1-3.1l-0.3-2.6c-1.5,2.8-4,2.8-5.9,0L60.7,53.2z"/>
<path fill-rule="evenodd" clip-rule="evenodd" fill="#C9A96A" d="M60.1,28.5l12.3-7.2c0,0,0.1,0,0.1-0.1l0,0
	c0.2-0.1,0.4-0.3,0.7-0.3c0.1,0,0.3-0.1,0.5-0.1c0.2,0,0.3,0.1,0.4,0.3c0.2,0.3,0.2,0.6,0,0.8c-0.1,0.2-0.3,0.4-0.6,0.5l-13,7.6
	c0,0.1,0,0.1-0.1,0.2l0,0l0,0c0,0.1-0.1,0.2-0.1,0.3c-0.1,0.2-0.1,0.4-0.1,0.5c0,0.1,0,0.3,0,0.3c0.1,0.2,0.3,0.4,0.4,0.6
	c0.3,0.4,0.7,0.9,1.1,1.4c0.4,0.5,0.9,1,1.3,1.5l-2.3,1.7c-0.4-0.7-0.8-1.5-1.1-2.2c-0.5-0.9-0.9-1.6-1-2l0,0c0,0,0,0,0-0.1v0l0,0
	c-0.1-0.1-0.1-0.2-0.2-0.3c-0.1-0.2-0.2-0.3-0.3-0.5l-0.2,0.1c-0.2,0.1-0.5,0.3-0.8,0.3c-0.1,0-0.3,0-0.4,0
	c-0.2-0.1-0.3-0.2-0.4-0.3c-0.1-0.3-0.2-0.5-0.1-0.7c0.1-0.1,0.1-0.2,0.2-0.2c0.1-0.1,0.2-0.1,0.3-0.2l0.6-0.3c0,0,0-0.1-0.1-0.1
	c-0.1-0.1-0.1-0.3-0.1-0.4c0-0.1,0-0.1,0-0.2c0-0.1,0.1-0.2,0.2-0.2c0.1,0,0.1,0,0.2-0.1c0,0,0.1-0.1,0.1-0.1c0,0,0,0,0,0l0,0v0
	c0.1-0.1,0.1-0.3,0.3-0.4c0.1-0.1,0.7-0.1,0.7-0.1s0.3-0.6,0.4-0.6c0.1,0,0.2-0.1,0.3,0c0.1,0,0.2,0.1,0.3,0.2l0,0l0,0
	C59.9,28.2,60,28.4,60.1,28.5z M61.2,37.2l2.3-1.8L64,35c0.2-0.1,0.4-0.1,0.6,0l0,0l0.6,0.5l2.5,1.9l1.5,1l1.7,0.9l0,0
	c0.2,0.1,0.3,0.4,0.2,0.6l0,0l-1.4,2.8v1.9c0,0.3-0.2,0.5-0.5,0.5h-9.9c-0.2,0-0.5-0.2-0.5-0.5v-1.9l-1.4-2.8
	c-0.1-0.2,0-0.5,0.2-0.6l1.7-0.9L61.2,37.2z M68.3,37l3.9-3l0-0.1c0.2-0.8-0.2-1.7-0.7-2.3c-0.5-0.6-1.3-0.9-2-0.6l0,0L65.6,35
	C66.7,35.9,67.3,36.4,68.3,37z M59.8,43v1.1h9V43H59.8z M64.3,35.7l-6,4l1.4,2.9h9.4l1.5-2.9L64.3,35.7z"/>
<path fill-rule="evenodd" clip-rule="evenodd" fill="#C9A96A" d="M64.3,36.4l-5.2,3.5l1,2.1h8.6l1-2.1L64.3,36.4z M64.3,40.1
	c0.7,0,1.2-0.6,1.2-1.2c0-0.7-0.6-1.2-1.2-1.2S63,38.1,63,38.8C63,39.5,63.6,40.1,64.3,40.1z M61.8,40.7c0,0.3-0.3,0.6-0.6,0.6
	c-0.3,0-0.6-0.3-0.6-0.6c0-0.3,0.3-0.6,0.6-0.6C61.5,40.1,61.8,40.3,61.8,40.7z M67.4,41.3c0.3,0,0.6-0.3,0.6-0.6
	c0-0.3-0.3-0.6-0.6-0.6c-0.3,0-0.6,0.3-0.6,0.6C66.7,41,67,41.3,67.4,41.3z"/>
</svg>
