<svg width="52" height="42" viewBox="0 0 52 42" fill="none" xmlns="http://www.w3.org/2000/svg">
<path d="M22.5 9.5L19 6" stroke="#27292A" stroke-linecap="round" stroke-linejoin="round"/>
<path d="M28.9433 5.74224L27.7402 0.940918" stroke="#27292A" stroke-linecap="round" stroke-linejoin="round"/>
<path d="M35.7182 5.76745L37.0492 1" stroke="#27292A" stroke-linecap="round" stroke-linejoin="round"/>
<path d="M42.0813 9.5803L45.4991 6" stroke="#27292A" stroke-linecap="round" stroke-linejoin="round"/>
<path d="M46 14.9976L50.8043 13.8066" stroke="#27292A" stroke-linecap="round" stroke-linejoin="round"/>
<path d="M46.039 22.7384L50.7982 24.0986" stroke="#27292A" stroke-linecap="round" stroke-linejoin="round"/>
<path d="M41.5753 24.0732C41.7598 24.2377 41.9376 24.4054 42.1087 24.5765C43.9735 26.4394 45.0193 28.9684 45.0147 31.6043C45.0052 37.0771 40.5609 41.5059 35.0881 41.4964H8.91807H8.89291C4.74244 41.4656 1.31379 38.2477 1.02025 34.1074C0.709611 29.7268 4.00905 25.9239 8.38964 25.6132C8.38964 25.4488 8.38964 25.2912 8.38964 25.1402C8.38637 24.0501 8.53345 22.9648 8.82673 21.9148C10.5891 15.605 17.1327 11.9185 23.4424 13.6807M41.5753 24.0732L41.7262 23.8015C41.9136 23.4571 42.0816 23.1026 42.2295 22.7396C44.3733 17.3854 41.7708 11.307 36.4166 9.16323C36.4066 9.15921 36.3966 9.15518 36.3865 9.15128C31.5461 7.22187 26.024 9.1543 23.4424 13.6807M41.5753 24.0732L40.0956 23.0315M23.4424 13.6807L25.1485 14.345C25.9304 14.7017 26.671 15.1422 27.3579 15.6586L28.7721 16.8865C30.2288 18.384 31.2636 20.2401 31.7716 22.2665C34.5234 21.2829 37.5691 21.5627 40.0956 23.0315M40.0956 22.9509V23.0315" stroke="#27292A"/>
</svg>
