<svg width="36" height="27" viewBox="0 0 36 27" fill="none" xmlns="http://www.w3.org/2000/svg">
<path d="M32.25 27H3.75C1.683 27 0 25.3185 0 23.25V3.75C0 1.6815 1.683 0 3.75 0H32.25C34.317 0 36 1.6815 36 3.75V23.25C36 25.3185 34.317 27 32.25 27ZM3.75 1.5C2.5095 1.5 1.5 2.5095 1.5 3.75V23.25C1.5 24.4905 2.5095 25.5 3.75 25.5H32.25C33.4905 25.5 34.5 24.4905 34.5 23.25V3.75C34.5 2.5095 33.4905 1.5 32.25 1.5H3.75Z" fill="#576470"/>
<path d="M21.8349 13.332C21.9214 13.4273 21.9214 13.5727 21.8349 13.668L15.9352 20.1708C15.7815 20.3401 15.5 20.2314 15.5 20.0028L15.5 6.99719C15.5 6.76856 15.7815 6.65988 15.9352 6.82921L21.8349 13.332Z" stroke="#576470" stroke-width="1.5"/>
</svg>
