<svg width="20" height="21" viewBox="0 0 20 21" fill="none" xmlns="http://www.w3.org/2000/svg">
<g clip-path="url(#clip0)">
<path d="M10 0.548828C5.86426 0.548828 2.5 3.91348 2.5 8.04883C2.5 13.5819 9.41977 20.1582 9.71438 20.4357C9.79492 20.511 9.89746 20.5488 10 20.5488C10.1025 20.5488 10.2051 20.511 10.2857 20.4357C10.5802 20.1582 17.5 13.5819 17.5 8.04883C17.5 3.91348 14.1357 0.548828 10 0.548828ZM10 12.2155C7.70262 12.2155 5.83332 10.3462 5.83332 8.04883C5.83332 5.75145 7.70266 3.88215 10 3.88215C12.2973 3.88215 14.1667 5.75148 14.1667 8.04883C14.1667 10.3462 12.2974 12.2155 10 12.2155Z" fill="#C9A96A"/>
</g>
<defs>
<clipPath id="clip0">
<rect width="20" height="20" fill="white" transform="translate(0 0.548828)"/>
</clipPath>
</defs>
</svg>
