<svg width="18" height="19" viewBox="0 0 18 19" fill="none" xmlns="http://www.w3.org/2000/svg">
<path d="M16.5557 12.3345C15.4537 12.3345 14.3716 12.1621 13.3462 11.8232C12.8438 11.6519 12.2261 11.8091 11.9194 12.124L9.8955 13.6519C7.54833 12.399 6.10252 10.9536 4.8667 8.62408L6.34959 6.65289C6.73486 6.26814 6.87305 5.70611 6.70748 5.17877C6.36717 4.14798 6.1943 3.06644 6.1943 1.96394C6.19434 1.16748 5.54639 0.519531 4.74998 0.519531H1.44436C0.647953 0.519531 0 1.16748 0 1.96389C0 11.0928 7.42678 18.5195 16.5557 18.5195C17.3521 18.5195 18 17.8716 18 17.0752V13.7788C18 12.9824 17.352 12.3345 16.5557 12.3345Z" fill="#C9A96A"/>
</svg>
