<svg width="20" height="21" viewBox="0 0 20 21" fill="none" xmlns="http://www.w3.org/2000/svg">
<g clip-path="url(#clip0)">
<path d="M14.9841 0.519531H5C2.25397 0.519531 0 2.7735 0 5.5354V15.5195C0 18.2656 2.25397 20.5195 5 20.5195H14.9841C17.746 20.5195 20 18.2656 20 15.5037V5.5354C20 2.7735 17.746 0.519531 14.9841 0.519531ZM9.46032 4.63064C9.49206 4.13858 9.95238 4.31318 10.1905 4.28144C13.1746 4.37667 15.746 7.05921 15.7143 9.9481C15.7143 10.2338 15.8095 10.6465 15.381 10.6465C14.9683 10.6465 15.0794 10.2179 15.0317 9.93223C14.6349 6.86874 13.2063 5.42429 10.0952 4.9481C9.84127 4.91636 9.44444 4.96398 9.46032 4.63064ZM13.9206 10.0751C13.4444 10.1386 13.5397 9.72588 13.4921 9.45604C13.1746 7.58302 12.5079 6.90048 10.5873 6.48779C10.3016 6.42429 9.85714 6.47191 9.93651 6.04334C10 5.63064 10.3968 5.7735 10.6984 5.80525C12.619 6.02747 14.1905 7.66239 14.1746 9.45604C14.1429 9.64652 14.2698 10.0116 13.9206 10.0751ZM12.7302 9.09096C12.7302 9.34493 12.6984 9.58302 12.4127 9.61477C12.2063 9.64652 12.0794 9.47191 12.0476 9.26556C11.9683 8.50366 11.5556 8.04334 10.7619 7.91636C10.5238 7.88461 10.3016 7.80525 10.4127 7.48779C10.4921 7.28144 10.6825 7.24969 10.8889 7.24969C11.746 7.23382 12.7302 8.23382 12.7302 9.09096ZM15.746 14.9481C15.4127 15.8529 14.2857 16.7735 13.3175 16.7576C13.1746 16.7259 12.9048 16.6783 12.6667 16.583C8.4127 14.7894 5.31746 11.837 3.57143 7.61477C2.98413 6.20207 3.60317 4.99572 5.07937 4.51953C5.34921 4.42429 5.60317 4.42429 5.87302 4.51953C6.50794 4.74175 8.11111 6.91636 8.14286 7.55128C8.1746 8.04334 7.8254 8.31318 7.49206 8.5354C6.84127 8.96398 6.84127 9.50366 7.12698 10.1227C7.74603 11.4878 8.80952 12.4402 10.1905 13.0433C10.6825 13.2656 11.1746 13.2497 11.5079 12.7418C12.1111 11.837 12.8571 11.8846 13.6667 12.4402C14.0794 12.7259 14.4921 12.9957 14.873 13.2973C15.3968 13.7259 16.0635 14.0751 15.746 14.9481Z" fill="#C9A96A"/>
</g>
<defs>
<clipPath id="clip0">
<rect width="20" height="20" fill="white" transform="translate(0 0.519531)"/>
</clipPath>
</defs>
</svg>
