<svg width="48" height="48" viewBox="0 0 48 48" fill="none" xmlns="http://www.w3.org/2000/svg">
<path fill-rule="evenodd" clip-rule="evenodd" d="M48 24C48 37.2548 37.2548 48 24 48C10.7452 48 0 37.2548 0 24C0 10.7452 10.7452 0 24 0C37.2548 0 48 10.7452 48 24ZM33.7709 32.6658L28.1282 27.0232C30.6991 23.8952 30.5242 19.2519 27.6028 16.3306C24.495 13.2228 19.4384 13.2228 16.3306 16.3306C13.2228 19.4384 13.2228 24.495 16.3306 27.6028C19.2511 30.5234 23.8939 30.7002 27.0232 28.1282L32.6658 33.7709C32.971 34.076 33.4657 34.076 33.7709 33.7709C34.076 33.4657 34.076 32.971 33.7709 32.6658ZM26.4978 26.4977C23.9993 28.9962 19.9341 28.9961 17.4357 26.4977C14.9372 23.9993 14.9372 19.9341 17.4357 17.4356C19.934 14.9373 23.9993 14.9371 26.4978 17.4356C28.9962 19.9341 28.9962 23.9993 26.4978 26.4977ZM22.7484 21.1847H25.793C26.2245 21.1847 26.5744 21.5345 26.5744 21.9661C26.5744 22.3976 26.2245 22.7475 25.793 22.7475H22.7484V25.792C22.7484 26.2236 22.3986 26.5734 21.967 26.5734C21.5355 26.5734 21.1856 26.2236 21.1856 25.792V22.7475H18.1411C17.7095 22.7475 17.3597 22.3976 17.3597 21.9661C17.3597 21.5345 17.7095 21.1847 18.1411 21.1847H21.1856V18.1401C21.1856 17.7086 21.5355 17.3587 21.967 17.3587C22.3986 17.3587 22.7484 17.7086 22.7484 18.1401V21.1847Z" fill="white" fill-opacity="0.6"/>
</svg>
