<svg width="20" height="21" viewBox="0 0 20 21" fill="none" xmlns="http://www.w3.org/2000/svg">
<path d="M18.2422 2.90234H1.75785C1.48726 2.90234 1.23394 2.96887 1.00476 3.07852L9.96097 12.0347L11.9684 10.1055C11.9684 10.1055 11.9685 10.1054 11.9685 10.1053C11.9686 10.1052 11.9687 10.1051 11.9687 10.1051L18.9956 3.07867C18.7664 2.96895 18.5129 2.90234 18.2422 2.90234Z" fill="#C9A96A"/>
<path d="M19.824 3.9082L13.2114 10.5205L19.8238 17.1329C19.9335 16.9037 20 16.6504 20 16.3798V4.66102C20 4.39059 19.9336 4.1373 19.824 3.9082Z" fill="#C9A96A"/>
<path d="M0.176172 3.90625C0.0665234 4.13543 0 4.38875 0 4.65934V16.3781C0 16.6485 0.0664453 16.9019 0.176016 17.131L6.78863 10.5187L0.176172 3.90625Z" fill="#C9A96A"/>
<path d="M12.3829 11.3477L10.3752 13.2771C10.2608 13.3916 10.1109 13.4488 9.96098 13.4488C9.8111 13.4488 9.66113 13.3916 9.54672 13.2771L7.61719 11.3477L1.00446 17.96C1.23367 18.0697 1.48715 18.1363 1.75781 18.1363H18.2422C18.5128 18.1363 18.7661 18.0698 18.9953 17.9601L12.3829 11.3477Z" fill="#C9A96A"/>
</svg>
