<svg width="20" height="21" viewBox="0 0 20 21" fill="none" xmlns="http://www.w3.org/2000/svg">
<g clip-path="url(#clip0)">
<path d="M14.5862 0.519531H5.41381C2.42858 0.519531 0 2.94812 0 5.93334V15.1058C0 18.0909 2.42858 20.5195 5.41381 20.5195H14.5863C17.5714 20.5195 20 18.0909 20 15.1058V5.93334C20 2.94812 17.5714 0.519531 14.5862 0.519531ZM9.99998 15.9881C6.98455 15.9881 4.53139 13.5349 4.53139 10.5195C4.53139 7.50408 6.98455 5.05093 9.99998 5.05093C13.0154 5.05093 15.4686 7.50408 15.4686 10.5195C15.4686 13.5349 13.0154 15.9881 9.99998 15.9881ZM15.5993 6.3406C14.7082 6.3406 13.9834 5.6158 13.9834 4.72469C13.9834 3.83358 14.7082 3.10864 15.5993 3.10864C16.4904 3.10864 17.2154 3.83358 17.2154 4.72469C17.2154 5.6158 16.4904 6.3406 15.5993 6.3406Z" fill="#C9A96A"/>
<path d="M9.99998 6.22343C7.63121 6.22343 5.70387 8.15061 5.70387 10.5195C5.70387 12.8883 7.63121 14.8156 9.99998 14.8156C12.3689 14.8156 14.2961 12.8883 14.2961 10.5195C14.2961 8.15061 12.3689 6.22343 9.99998 6.22343Z" fill="#C9A96A"/>
<path d="M15.5993 4.28126C15.3549 4.28126 15.1559 4.48024 15.1559 4.72468C15.1559 4.96913 15.3549 5.1681 15.5993 5.1681C15.8439 5.1681 16.0429 4.96928 16.0429 4.72468C16.0429 4.48008 15.8439 4.28126 15.5993 4.28126Z" fill="#C9A96A"/>
</g>
<defs>
<clipPath id="clip0">
<rect width="20" height="20" fill="white" transform="translate(0 0.519531)"/>
</clipPath>
</defs>
</svg>
