<svg width="36" height="27" viewBox="0 0 36 27" fill="none" xmlns="http://www.w3.org/2000/svg">
<path d="M32.25 27H3.75C1.683 27 0 25.3185 0 23.25V3.75C0 1.6815 1.683 0 3.75 0H32.25C34.317 0 36 1.6815 36 3.75V23.25C36 25.3185 34.317 27 32.25 27ZM3.75 1.5C2.5095 1.5 1.5 2.5095 1.5 3.75V23.25C1.5 24.4905 2.5095 25.5 3.75 25.5H32.25C33.4905 25.5 34.5 24.4905 34.5 23.25V3.75C34.5 2.5095 33.4905 1.5 32.25 1.5H3.75Z" fill="#C9A96A"/>
<path d="M7.5 10.5C5.8455 10.5 4.5 9.15449 4.5 7.5C4.5 5.8455 5.8455 4.5 7.5 4.5C9.1545 4.5 10.5 5.8455 10.5 7.5C10.5 9.15449 9.1545 10.5 7.5 10.5ZM7.5 6C6.6735 6 6 6.672 6 7.5C6 8.32799 6.6735 8.99999 7.5 8.99999C8.3265 8.99999 9 8.32799 9 7.5C9 6.672 8.3265 6 7.5 6Z" fill="#C9A96A"/>
<path d="M0.750375 23.999C0.558375 23.999 0.366375 23.9255 0.219375 23.78C-0.073125 23.4875 -0.073125 23.012 0.219375 22.7195L8.90888 14.03C9.78638 13.154 11.2129 13.154 12.0904 14.03L14.2504 16.1885L21.6589 8.78005C22.5364 7.90405 23.9629 7.90405 24.8404 8.78005L35.7799 19.7195C36.0724 20.012 36.0724 20.4875 35.7799 20.78C35.4874 21.0725 35.0119 21.0725 34.7194 20.78L23.7799 9.84055C23.4874 9.54805 23.0119 9.54805 22.7194 9.84055L14.7814 17.7785C14.4889 18.071 14.0134 18.071 13.7209 17.7785L11.0299 15.0905C10.7464 14.807 10.2529 14.807 9.96938 15.0905L1.27988 23.78C1.13438 23.9255 0.942375 23.999 0.750375 23.999Z" fill="#C9A96A"/>
</svg>
