<svg width="50" height="42" viewBox="0 0 50 42" fill="none" xmlns="http://www.w3.org/2000/svg">
<path d="M21.8383 8.30076L19.0854 5.51768C18.7608 5.12966 18.1832 5.07833 17.7951 5.40294C17.4071 5.72755 17.3558 6.30517 17.6804 6.69319C17.7129 6.73195 17.7485 6.76806 17.787 6.80102L20.5399 9.5841C20.924 9.91324 21.5022 9.86858 21.8314 9.48446C22.1225 9.14462 22.1255 8.64399 21.8383 8.30076Z" fill="#27292A"/>
<path d="M45.1791 5.66221C44.8545 5.27419 44.2769 5.22286 43.8889 5.54747C43.8501 5.57993 43.814 5.61554 43.781 5.65404L40.998 8.40692C40.6099 8.73153 40.5586 9.30916 40.8832 9.69718C41.2078 10.0852 41.7855 10.1365 42.1735 9.81193C42.2122 9.77947 42.2483 9.74386 42.2813 9.70536L45.0644 6.95247C45.4523 6.62786 45.5037 6.05024 45.1791 5.66221Z" fill="#27292A"/>
<path d="M28.5928 5.08866C28.5871 5.06199 28.5804 5.03569 28.5723 5.00965L27.5658 1.22506C27.4611 0.732986 26.9773 0.418946 26.4852 0.5235C25.9932 0.628054 25.6791 1.11195 25.7837 1.60402C25.7894 1.63069 25.7961 1.65699 25.8042 1.68303L26.8107 5.46762C26.9154 5.9597 27.3992 6.27374 27.8913 6.16918C28.3833 6.06463 28.6975 5.58073 28.5928 5.08866Z" fill="#27292A"/>
<path d="M41.1087 24.5765C40.9376 24.4054 40.7598 24.2377 40.5753 24.0732L40.7262 23.8015C40.9136 23.4571 41.0816 23.1026 41.2295 22.7396C43.3733 17.3854 40.7708 11.307 35.4166 9.16323C35.4066 9.15921 35.3966 9.15518 35.3865 9.15128C30.5461 7.22187 25.024 9.1543 22.4424 13.6807C16.1327 11.9185 9.58905 15.605 7.82673 21.9148C7.53345 22.9648 7.38637 24.0501 7.38964 25.1402C7.38964 25.2912 7.38964 25.4488 7.38964 25.6132C3.00905 25.9239 -0.290389 29.7268 0.020254 34.1074C0.313786 38.2477 3.74244 41.4656 7.89291 41.4964H7.91807H34.0881C39.5609 41.5059 44.0052 37.0771 44.0147 31.6043C44.0193 28.9684 42.9735 26.4394 41.1087 24.5765ZM28.3458 10.8523C30.3868 10.0407 32.6611 10.0407 34.7021 10.8523C39.1267 12.6177 41.2863 17.6325 39.5285 22.0602C39.4011 22.365 39.2567 22.6624 39.0956 22.9509V23.0315C36.5691 21.5627 33.5234 21.2829 30.7716 22.2665C30.2636 20.2401 29.2288 18.384 27.7721 16.8865C28.7898 14.997 31.0572 14.1635 33.0564 14.9439C33.5343 15.1011 34.0491 14.841 34.2063 14.3631C34.3504 13.9248 34.144 13.4478 33.7258 13.2529C31.0112 12.1652 27.9076 13.1786 26.3579 15.6586C25.671 15.1422 24.9304 14.7017 24.1485 14.345C25.1314 12.7561 26.6046 11.5301 28.3458 10.8523ZM35.9999 39.4432C35.377 39.5921 34.7386 39.6664 34.0982 39.6647H7.92814C4.54553 39.6617 1.80586 36.9169 1.80888 33.5343C1.81039 31.9132 2.45445 30.3588 3.60001 29.2118L3.58995 29.2168C4.73703 28.0678 6.29452 27.423 7.91807 27.4251H8.13951H8.33578C8.83767 27.4594 9.27237 27.0801 9.30647 26.5783C9.31188 26.4996 9.30697 26.4205 9.292 26.3431C9.27187 26.1686 9.25513 25.9791 9.24167 25.7744C9.24167 25.5832 9.24167 25.3718 9.24167 25.1353C9.31628 19.5935 13.8692 15.1615 19.4111 15.2361C24.2806 15.3016 28.4002 18.8538 29.1812 23.6607C29.2533 24.1585 29.7153 24.5038 30.2133 24.4317C30.3094 24.4177 30.4028 24.3885 30.4897 24.3451C31.047 24.0664 31.6347 23.8537 32.2411 23.711C36.5855 22.673 40.9487 25.3534 41.9867 29.6978C43.0247 34.042 40.3443 38.4052 35.9999 39.4432Z" fill="#27292A"/>
<path d="M49.9582 14.2935C49.8193 13.8429 49.3595 13.5729 48.8982 13.6709L45.1136 14.6775C44.6277 14.8033 44.3352 15.2984 44.4594 15.7847C44.5848 16.2718 45.0814 16.5651 45.5687 16.4397C45.5697 16.4394 45.5707 16.4392 45.5716 16.4389L49.3562 15.4324C49.8371 15.2842 50.1066 14.7742 49.9582 14.2935Z" fill="#27292A"/>
<path d="M49.3179 23.1982L45.5434 22.1665C45.0584 22.0274 44.5526 22.308 44.4136 22.793C44.2746 23.2781 44.5551 23.7838 45.0402 23.9229L48.8147 24.9546C49.2997 25.0936 49.8055 24.813 49.9445 24.328C50.0834 23.843 49.803 23.3372 49.3179 23.1982Z" fill="#27292A"/>
<path d="M36.4555 0.61372C35.9705 0.474692 35.4647 0.755265 35.3257 1.24029L34.294 5.01482C34.1501 5.49683 34.4241 6.00437 34.9061 6.14831C34.9167 6.15145 34.9274 6.15447 34.9382 6.15724C35.4208 6.29929 35.9272 6.02325 36.0693 5.54061C36.0716 5.53319 36.0736 5.52564 36.0756 5.51809L37.0821 1.74356C37.221 1.25854 36.9406 0.752749 36.4555 0.61372Z" fill="#27292A"/>
</svg>
