<svg width="23" height="21" viewBox="0 0 23 21" fill="none" xmlns="http://www.w3.org/2000/svg">
<g opacity="0.5">
<path d="M20 2H19V0H17V2H6V0H4V2H3C1.5138 2 0 2.64304 0 4V19C0 20.357 1.5138 21 3 21H20C21.4862 21 23 20.357 23 19V4C23 2.64304 21.4862 2 20 2ZM21 19C21 19.4523 20.4954 19 20 19H3C2.5046 19 2 19.4523 2 19V8H21V19ZM21 6H2V4C2 3.54768 2.5046 3 3 3H4V5H6V3H17V5H19V3H20C20.4954 3 21 3.54768 21 4V6Z" fill="#576470"/>
<path d="M5 9H3V11H5V9Z" fill="#576470"/>
<path d="M9 9H7V11H9V9Z" fill="#576470"/>
<path d="M13 9H11V11H13V9Z" fill="#576470"/>
<path d="M16 9H14V11H16V9Z" fill="#576470"/>
<path d="M20 9H18V11H20V9Z" fill="#576470"/>
<path d="M5 13H3V15H5V13Z" fill="#576470"/>
<path d="M9 13H7V15H9V13Z" fill="#576470"/>
<path d="M13 13H11V15H13V13Z" fill="#576470"/>
<path d="M16 13H14V15H16V13Z" fill="#576470"/>
<path d="M5 16H3V18H5V16Z" fill="#576470"/>
<path d="M9 16H7V18H9V16Z" fill="#576470"/>
<path d="M13 16H11V18H13V16Z" fill="#576470"/>
<path d="M16 16H14V18H16V16Z" fill="#576470"/>
<path d="M20 13H18V15H20V13Z" fill="#576470"/>
</g>
</svg>
