<svg width="40" height="643" viewBox="0 0 40 643" fill="none" xmlns="http://www.w3.org/2000/svg">
<path d="M16.9959 18.2052C16.5445 18.1184 16.1224 17.9215 15.7683 17.6325C15.4142 17.3435 15.1394 16.9717 14.9692 16.551C14.5674 15.5198 14.9369 14.3368 15.7366 13.6031C15.8057 13.5428 15.8544 13.4631 15.8762 13.3748C16.4923 13.2332 17.1325 13.2275 17.7511 13.3581C17.7729 13.3634 17.7959 13.3608 17.816 13.3509C17.8361 13.3409 17.852 13.3243 17.8607 13.3039C17.8694 13.2835 17.8705 13.2607 17.8637 13.2396C17.8569 13.2185 17.8426 13.2005 17.8235 13.1888C16.9086 12.6262 15.85 12.4201 14.7975 12.7374C13.7333 13.0607 12.8326 13.7681 12.2759 14.7178C11.4017 16.213 11.6682 18.105 12.666 19.4588C12.0721 19.3227 11.5117 19.0714 11.0176 18.7194C10.5236 18.3675 10.1058 17.9221 9.78875 17.4093C8.85462 15.8906 9.09624 13.8874 10.1405 12.4937C10.307 12.4846 10.4725 12.4629 10.6356 12.4289C11.5229 12.2408 12.3854 11.4587 12.4887 10.55C12.4994 10.456 12.3748 10.4289 12.3163 10.4797C11.7709 10.9508 11.255 11.3569 10.5322 11.524C9.76813 11.7008 9.05648 11.46 8.45693 11.0113C8.91557 10.6892 9.41515 10.4277 9.94288 10.2335C9.99722 10.2142 9.99289 10.1253 9.92852 10.129C9.34915 10.154 8.77669 10.2631 8.22966 10.4527C7.6704 10.6454 7.15236 10.9387 6.7019 11.3176C5.753 12.1053 5.06119 13.1511 4.71311 14.3241C4.16767 16.1208 4.55215 18.1263 5.59028 19.6881C4.39383 19.1398 3.35032 18.3139 2.54923 17.2813C1.31242 15.6853 0.825762 13.7091 1.02273 11.7258C1.22482 9.68874 2.29508 7.82733 3.88379 6.53155C5.36336 5.3246 7.26523 4.7509 9.16037 4.68091C9.7458 4.78657 10.3586 4.82493 10.9065 4.89469C12.0381 5.0254 13.1487 5.29429 14.2128 5.69517C14.29 5.72489 14.3318 5.60858 14.2671 5.56832C12.85 4.68596 11.3181 4.01277 9.65694 3.76782C8.92456 3.65981 7.94703 3.4799 7.68616 2.68312C7.41423 1.85223 8.44109 1.27697 9.08074 1.09101C11.5349 0.377443 14.2946 1.54313 15.958 3.39948C16.1554 3.67308 16.3618 3.94001 16.5769 4.2003C16.5924 4.22363 16.6087 4.24663 16.6238 4.27018C16.646 4.30545 16.6749 4.33614 16.7089 4.36058C16.8456 4.5222 16.986 4.68181 17.1304 4.83771C18.1815 5.97468 19.4263 6.78929 20.7843 7.51957C20.8225 7.54009 20.8694 7.48648 20.8327 7.45777C19.7082 6.5772 18.719 5.48846 17.785 4.41823C16.9628 3.47612 16.2455 2.45002 15.6453 1.3575C17.8718 1.6727 19.9371 2.68184 21.5386 4.23698C22.0969 4.77836 22.5868 5.38406 22.9977 6.04096C22.5615 5.39043 22.0314 4.75785 21.3938 4.33389C21.3844 4.32876 21.3735 4.3268 21.3629 4.32829C21.3522 4.32978 21.3423 4.33465 21.3347 4.34216C21.3271 4.34966 21.3222 4.3594 21.3207 4.36991C21.3192 4.38042 21.3212 4.39112 21.3264 4.40039C21.8427 5.14884 22.4463 5.82012 22.9221 6.59952C23.1269 6.9406 23.3052 7.29645 23.4555 7.66403C23.1444 7.17539 22.7982 6.7092 22.4198 6.26898C21.3602 5.02872 20.0373 4.03232 18.5443 3.35002C18.5316 3.34486 18.5174 3.3444 18.5044 3.34873C18.4913 3.35305 18.4803 3.36187 18.4734 3.37356C18.4665 3.38524 18.4641 3.399 18.4666 3.4123C18.4692 3.4256 18.4765 3.43754 18.4873 3.44592C19.8021 4.28062 20.9704 5.32022 21.9463 6.52403C22.2603 6.91558 22.5502 7.3252 22.8146 7.75073C22.1399 7.02645 21.3633 6.40106 20.5085 5.89359C20.4523 5.85994 20.3852 5.94181 20.4373 5.98443C21.5999 6.93544 22.5034 8.0512 23.3248 9.27072C23.021 9.05709 22.7165 8.84466 22.4114 8.63343C22.1915 8.4819 21.8614 8.63612 21.7996 8.87849C21.7487 9.07867 21.7119 9.28204 21.6893 9.48719C18.847 6.98467 14.4207 6.20741 10.8271 7.22155C10.7853 7.23333 10.8043 7.29008 10.8447 7.28403C12.8214 6.99016 14.8396 7.12657 16.757 7.68365C18.579 8.20901 20.1766 9.14095 21.6703 10.2633C21.6734 10.3138 21.6772 10.3643 21.6817 10.4143C19.9561 9.19276 17.7835 8.73045 15.6648 8.86033C15.657 8.86079 15.6497 8.86417 15.6443 8.86977C15.639 8.87536 15.636 8.88276 15.636 8.89044C15.636 8.89812 15.639 8.90552 15.6443 8.91111C15.6497 8.91671 15.657 8.92009 15.6648 8.92056C17.9495 8.97473 20.0446 9.92237 21.8362 11.27C21.8908 11.474 21.9559 11.6751 22.0312 11.8726C21.0612 11.1835 19.9397 10.7294 18.7579 10.5472C16.8733 10.2525 14.3744 10.6834 12.9969 12.0879C12.9903 12.0948 12.9864 12.1037 12.9859 12.1131C12.9854 12.1226 12.9883 12.1318 12.9942 12.1393C13 12.1468 13.0084 12.1519 13.0178 12.1539C13.0272 12.1558 13.0369 12.1543 13.0453 12.1498C13.9025 11.7767 14.7 11.3702 15.6227 11.1668C16.601 10.9596 17.6115 10.947 18.5947 11.1297C19.7992 11.3484 20.8241 11.8741 21.7653 12.5486C20.8805 12.1995 19.9262 12.0546 18.9757 12.125C18.9656 12.1257 18.9562 12.1302 18.9494 12.1375C18.9425 12.1447 18.9387 12.1543 18.9387 12.1642C18.9387 12.1741 18.9425 12.1837 18.9494 12.191C18.9562 12.1983 18.9656 12.2027 18.9757 12.2035C20.4957 12.359 21.9349 12.954 23.112 13.9137C23.1346 13.9319 23.1599 13.9466 23.1871 13.9571C23.2664 14.0686 23.347 14.1787 23.4288 14.2875C23.4536 14.3205 23.4788 14.3534 23.5037 14.3862C22.1692 13.7021 20.636 13.4918 19.1624 13.7907C19.1506 13.7941 19.1404 13.8016 19.1337 13.8119C19.1269 13.8221 19.1242 13.8343 19.1258 13.8464C19.1275 13.8584 19.1334 13.8695 19.1427 13.8776C19.1519 13.8857 19.1637 13.8903 19.1761 13.8906C21.2468 13.8696 23.0389 14.5466 24.6025 15.785C25.1188 16.42 25.5727 17.1018 25.9581 17.8212C24.9803 16.8203 23.6719 16.1955 22.2682 16.0592C22.1861 16.0513 22.1689 16.1837 22.2488 16.2001C23.9462 16.5492 25.2344 17.6591 26.0346 19.1387C26.483 19.9677 26.618 20.9171 26.6187 21.8445C26.6121 22.3006 26.574 22.7557 26.5048 23.2067C26.0825 21.8781 25.4793 20.6119 24.7116 19.4428C23.7212 17.9331 22.3159 16.5103 20.4132 16.3097C19.035 16.1654 17.5096 16.925 16.9959 18.2052Z" fill="#C9A96A"/>
<path d="M26.068 5.03175C26.9479 5.68845 27.5922 6.60424 27.9073 7.64608C27.9141 7.66766 27.9284 7.68618 27.9477 7.69834C27.967 7.71051 27.9901 7.71554 28.0128 7.71252C28.0356 7.70951 28.0565 7.69865 28.0718 7.68188C28.0872 7.66511 28.096 7.64353 28.0967 7.62096C28.1104 6.90237 27.9238 6.19383 27.5574 5.57224C27.5628 5.55779 27.5662 5.54271 27.5676 5.52738C27.6571 4.14781 28.0754 2.7669 29.2378 1.88353C30.3903 1.00778 31.7717 1.05904 33.0789 1.46001C32.8114 1.65403 32.5691 1.8797 32.3576 2.13196C31.8049 2.79539 31.6269 3.60193 31.6453 4.44336C31.6456 4.45106 31.6486 4.45843 31.6538 4.46415C31.659 4.46988 31.6662 4.4736 31.6739 4.47463C31.6817 4.47567 31.6896 4.47397 31.6962 4.46982C31.7027 4.46567 31.7076 4.45935 31.7099 4.45199C32.1551 3.19793 33.3869 2.00006 34.6875 1.63678C35.2588 1.48203 35.8607 1.47295 36.4365 1.61041C37.1319 1.83192 37.759 2.22323 38.2592 2.74783C38.9391 3.47687 39.2047 4.49562 39.0958 5.46816C38.8864 5.1731 38.6159 4.92509 38.3021 4.74047C37.4266 4.2261 36.3035 4.49652 35.5752 5.12035C35.207 5.43634 35.0327 5.89861 34.8676 6.33626L34.8531 6.37475C34.6138 7.00778 34.1732 7.13116 33.5511 7.27831C32.8515 7.44363 31.9157 8.26094 32.6675 8.93334C32.6778 8.94282 32.6911 8.9484 32.7051 8.94908C32.7191 8.94976 32.7329 8.9455 32.744 8.93705C32.7552 8.92861 32.7629 8.91654 32.7658 8.90301C32.7686 8.88948 32.7665 8.87538 32.7598 8.86324C32.3137 7.94577 34.1893 8.00904 34.6464 7.84203C34.7721 7.79636 34.8903 7.73308 34.9976 7.65416C35.3177 7.98211 35.2468 8.4893 35.0024 8.88152C34.6676 9.41888 33.971 9.68649 33.4172 9.93268C32.4513 10.3623 31.3078 11.0064 31.1512 12.155C31.1362 12.2639 31.298 12.2882 31.3482 12.2076C31.7865 11.5054 32.4252 11.2418 33.1703 10.9653C33.2056 10.9886 33.2444 11.0064 33.2853 11.0179C33.9094 11.1894 34.0665 11.7993 33.8816 12.3576C33.65 13.057 32.83 13.53 32.2538 13.9192C31.7028 14.2914 31.0733 14.724 30.8133 15.3572C30.6008 15.8749 30.4536 16.5537 30.7617 17.0628C30.774 17.0825 30.7925 17.0977 30.8143 17.1062C30.8361 17.1147 30.8601 17.116 30.8828 17.1099C30.9054 17.1039 30.9255 17.0908 30.94 17.0727C30.9545 17.0545 30.9626 17.0322 30.9632 17.0091C30.9581 16.4785 31.0361 16.1024 31.4106 15.6995C31.6187 15.4786 31.846 15.2759 32.0899 15.0938C32.12 15.1244 32.1542 15.1508 32.1916 15.1723C32.784 15.5187 32.9259 16.2298 32.814 16.859C32.6743 17.6451 32.0736 18.3034 31.5642 18.8876C30.5087 20.0829 29.6246 21.4151 28.9367 22.8469C28.248 24.2938 27.7669 25.8226 27.3743 27.3699C27.333 27.5326 27.2931 27.696 27.2547 27.8599C27.2403 26.9357 27.1467 26.0143 26.9748 25.1056C26.9693 25.0752 26.9634 25.045 26.9573 25.0146C27.2642 24.0997 27.3888 23.0464 27.4035 22.0648C27.8621 20.9278 28.1474 19.7447 28.4611 18.5616C28.4717 18.5219 28.4119 18.4943 28.3927 18.533C28.0291 19.253 27.6523 19.9655 27.32 20.6977C27.2896 20.512 27.2512 20.3284 27.2047 20.1468C27.2307 20.1148 27.2489 20.0774 27.258 20.0375C27.4871 19.0531 27.7137 18.0801 28.0824 17.1341C28.4756 16.1648 28.9827 15.2441 29.5933 14.3909C29.6405 14.3236 29.5347 14.2451 29.4794 14.3039C28.336 15.5209 27.3947 17.0461 26.9186 18.6695C27.0158 17.4606 27.2043 16.2606 27.4828 15.0794C27.7956 13.7018 28.2634 12.3629 28.8776 11.0874C30.1103 8.50624 31.848 6.12991 34.0358 4.25291C34.0479 4.24259 34.0319 4.22218 34.0187 4.23115C31.5665 5.87754 29.587 8.11893 28.2718 10.7387C27.6165 12.0619 27.1198 13.4556 26.7917 14.8918C26.5859 15.8032 26.4763 16.733 26.4647 17.6666C25.4189 14.9092 22.1333 12.747 22.4906 9.68885C23.2574 10.2213 24.0305 10.745 24.8032 11.2696C24.8106 11.2858 24.8171 11.3022 24.8247 11.3183C25.2057 12.1266 25.7816 13.0811 26.4803 13.6625C26.5137 13.6903 26.5834 13.6648 26.5629 13.6152C26.2676 12.903 25.8886 12.2536 25.6495 11.5136C25.4982 11.0452 25.3715 10.5659 25.261 10.084C25.2136 9.61971 25.1249 9.16041 24.996 8.71138C24.8059 7.38363 24.8244 5.72097 26.068 5.03175Z" fill="#C9A96A"/>
<line x1="27.4998" y1="643" x2="27.4998" y2="53" stroke="#C9A96A"/>
<rect x="21.6067" y="43.7754" width="8.38462" height="8.38462" transform="rotate(-45 21.6067 43.7754)" fill="#C9A96A"/>
</svg>
