<svg width="36" height="36" viewBox="0 0 36 36" fill="none" xmlns="http://www.w3.org/2000/svg">
<rect x="0.5" y="0.5" width="35" height="35" stroke="#C9A96A"/>
<path d="M4.00015 3.50039C3.724 3.50039 3.50015 3.72425 3.50015 4.00039L3.50015 8.50039C3.50015 8.77653 3.724 9.00039 4.00015 9.00039C4.27629 9.00039 4.50015 8.77653 4.50015 8.50039L4.50015 4.50039L8.50015 4.50039C8.77629 4.50039 9.00015 4.27653 9.00015 4.00039C9.00015 3.72425 8.77629 3.50039 8.50015 3.50039L4.00015 3.50039ZM12.7537 12.0468L4.3537 3.64684L3.64659 4.35394L12.0466 12.7539L12.7537 12.0468Z" fill="#C9A96A"/>
<path d="M32.5 32.0006C32.5 32.2767 32.2761 32.5006 32 32.5006L27.5 32.5006C27.2238 32.5006 27 32.2767 27 32.0006C27 31.7244 27.2238 31.5006 27.5 31.5006L31.5 31.5006L31.5 27.5006C31.5 27.2244 31.7238 27.0006 32 27.0006C32.2761 27.0006 32.5 27.2244 32.5 27.5006L32.5 32.0006ZM23.9535 23.247L32.3535 31.647L31.6464 32.3541L23.2464 23.9541L23.9535 23.247Z" fill="#C9A96A"/>
<path d="M3.50015 32.0006C3.50015 32.2767 3.72401 32.5006 4.00015 32.5006L8.50015 32.5006C8.77629 32.5006 9.00015 32.2767 9.00015 32.0006C9.00015 31.7244 8.77629 31.5006 8.50015 31.5006L4.50015 31.5006L4.50015 27.5006C4.50015 27.2244 4.27629 27.0006 4.00015 27.0006C3.724 27.0006 3.50015 27.2244 3.50015 27.5006L3.50015 32.0006ZM12.0466 23.247L3.64659 31.647L4.3537 32.3541L12.7537 23.9541L12.0466 23.247Z" fill="#C9A96A"/>
<path d="M32 3.50039C32.2761 3.50039 32.5 3.72425 32.5 4.00039L32.5 8.50039C32.5 8.77653 32.2761 9.00039 32 9.00039C31.7238 9.00039 31.5 8.77653 31.5 8.50039L31.5 4.50039L27.5 4.50039C27.2238 4.50039 27 4.27653 27 4.00039C27 3.72425 27.2238 3.50039 27.5 3.50039L32 3.50039ZM23.2464 12.0468L31.6464 3.64684L32.3535 4.35394L23.9535 12.7539L23.2464 12.0468Z" fill="#C9A96A"/>
</svg>
