<svg width="36" height="34" viewBox="0 0 36 34" fill="none" xmlns="http://www.w3.org/2000/svg">
<path d="M33.0084 26.2334L27.2766 23.3678C26.736 23.0972 26.4 22.5536 26.4 21.9488V19.9202C26.5374 19.7522 26.682 19.5608 26.8314 19.3496C27.5748 18.2996 28.1706 17.1308 28.6038 15.8702C29.4504 15.482 30 14.645 30 13.7V11.3C30 10.7222 29.784 10.1624 29.4 9.725V6.5336C29.4336 6.2036 29.5656 4.2392 28.1448 2.6186C26.9124 1.2128 24.9126 0.5 22.2 0.5C19.4874 0.5 17.4876 1.2128 16.2552 2.618C15.3942 3.6002 15.1044 4.7066 15.0168 5.501C13.9884 4.9694 12.7764 4.7 11.4 4.7C5.1666 4.7 4.8036 10.013 4.8 10.1V12.8474C4.4112 13.271 4.2 13.76 4.2 14.2454V16.3178C4.2 16.9652 4.4898 17.5688 4.9866 17.9768C5.4816 19.8428 6.699 21.2528 7.173 21.7478V23.3936C7.173 23.8658 6.9162 24.299 6.4704 24.5426L2.4786 27.0464C0.9498 27.8804 0 29.4806 0 31.2218V33.5H8.4H9.6H36V31.0742C36 29.0114 34.8534 27.1562 33.0084 26.2334ZM8.4 30.9572V32.3H1.2V31.2218C1.2 29.9198 1.9104 28.7234 3.0846 28.082L7.0758 25.5782C7.8756 25.142 8.3724 24.3056 8.3724 23.3936V21.239L8.1816 21.0608C8.166 21.0464 6.5718 19.5404 6.1008 17.4878L6.0462 17.2502L5.841 17.1182C5.565 16.9394 5.4 16.64 5.4 16.3178V14.2454C5.4 14.0294 5.547 13.7726 5.8026 13.541L6 13.3628L5.9988 10.1348C6.0096 9.9626 6.3222 5.9 11.4 5.9C12.8358 5.9 14.0448 6.2318 15 6.8864V9.725C14.616 10.1624 14.4 10.7222 14.4 11.3V13.7C14.4 13.8824 14.421 14.0618 14.4606 14.2358C14.4768 14.3054 14.5092 14.369 14.5314 14.4362C14.5644 14.537 14.5908 14.6408 14.637 14.7362C14.6376 14.7374 14.6382 14.738 14.6388 14.7392C14.7924 15.056 15.0162 15.3392 15.2982 15.5654C15.3012 15.5768 15.3048 15.587 15.3078 15.5978C15.3438 15.7352 15.3816 15.872 15.4224 16.0058L15.471 16.1624C15.4794 16.19 15.4896 16.2182 15.4986 16.2458C15.5196 16.3106 15.54 16.3748 15.5616 16.4384C15.5976 16.5434 15.6354 16.652 15.6792 16.7702C15.6978 16.8194 15.7182 16.8638 15.7374 16.9124C15.7866 17.0378 15.8358 17.159 15.8874 17.279C15.9 17.3078 15.9108 17.339 15.9234 17.3672L15.957 17.4428C15.9726 17.4776 15.9888 17.5088 16.0044 17.543C16.0632 17.6714 16.1208 17.7956 16.1808 17.9156C16.1904 17.9348 16.1994 17.9558 16.209 17.975C16.2468 18.05 16.2846 18.1208 16.3224 18.1928C16.3872 18.3164 16.4508 18.4328 16.5144 18.5456C16.5456 18.6008 16.5762 18.6548 16.6068 18.707C16.6932 18.8546 16.7754 18.9902 16.8552 19.1162C16.8726 19.1432 16.8894 19.1714 16.9062 19.1972C17.0514 19.4222 17.1774 19.6046 17.2818 19.7468C17.3094 19.7846 17.3334 19.817 17.3568 19.8488C17.37 19.8662 17.388 19.8914 17.3994 19.907V21.8924C17.3994 22.4732 17.0826 23.006 16.5732 23.2844L14.9856 24.1502L14.709 24.1256L14.5962 24.3626L11.2206 26.204C9.4806 27.1544 8.4 28.9748 8.4 30.9572ZM34.8 32.3H9.6V30.9572C9.6 29.4146 10.4412 27.9968 11.7954 27.2588L17.148 24.3392C18.0438 23.8502 18.6 22.9124 18.6 21.893V19.4822V19.4816L18.4836 19.3424L18.4608 19.3154C18.4596 19.3136 18.4224 19.2686 18.3618 19.1894C18.3582 19.1846 18.3546 19.1798 18.3504 19.175C18.3186 19.1336 18.2814 19.0838 18.2388 19.0244C18.2382 19.0232 18.2376 19.0226 18.237 19.0214C18.1476 18.8972 18.0354 18.7358 17.9106 18.5414C17.9076 18.5372 17.9052 18.5324 17.9022 18.5282C17.8434 18.4364 17.781 18.3362 17.7174 18.23C17.7126 18.2222 17.7078 18.2144 17.703 18.206C17.5674 17.9786 17.4234 17.7212 17.28 17.4362C17.28 17.4362 17.2794 17.4356 17.2794 17.435C17.2032 17.282 17.127 17.1212 17.0526 16.9538C17.0424 16.9304 17.0316 16.9076 17.0214 16.8842C16.9884 16.8092 16.9554 16.7306 16.9218 16.6496C16.9098 16.6202 16.8978 16.5896 16.8858 16.5596C16.8546 16.481 16.8228 16.4018 16.7892 16.3112C16.728 16.148 16.6704 15.9776 16.6152 15.8018L16.5822 15.695C16.5786 15.683 16.5744 15.671 16.5708 15.6584C16.5144 15.4688 16.4604 15.275 16.4148 15.0758L16.3602 14.8382L16.1556 14.7062C15.8076 14.4818 15.6 14.1056 15.6 13.7V11.3C15.6 10.9634 15.7428 10.6496 16.002 10.415L16.2 10.2368V6.5V6.2876L16.1838 6.275C16.1634 5.8418 16.1892 4.514 17.1576 3.4094C18.1518 2.2748 19.8486 1.7 22.2 1.7C24.543 1.7 26.2362 2.2706 27.2316 3.3968C28.3998 4.7174 28.2066 6.407 28.2054 6.4214L28.2 10.2368L28.398 10.4156C28.6572 10.6496 28.8 10.9634 28.8 11.3V13.7C28.8 14.2238 28.4568 14.6822 27.9468 14.8394L27.648 14.9312L27.552 15.2282C27.1506 16.4768 26.5788 17.63 25.8516 18.656C25.6734 18.9086 25.5 19.1324 25.3494 19.3034L25.2 19.4738V21.9488C25.2 23.0108 25.7898 23.9654 26.7396 24.4406L32.4714 27.3062C33.9078 28.0244 34.8 29.468 34.8 31.0742V32.3Z" fill="#C9A96A"/>
</svg>
