<svg width="63" height="63" viewBox="0 0 63 63" fill="none" xmlns="http://www.w3.org/2000/svg">
<g clip-path="url(#clip0)">
<path d="M31.3662 0.630859C18.5454 0.630859 8.11621 11.0613 8.11621 23.8809C8.11621 41.0333 29.5675 61.4199 30.4808 62.2802C30.7305 62.5135 31.0483 62.6309 31.3662 62.6309C31.6841 62.6309 32.002 62.5135 32.2518 62.2802C33.1649 61.4199 54.6162 41.0333 54.6162 23.8809C54.6162 11.0613 44.187 0.630859 31.3662 0.630859ZM31.3662 36.7976C24.2443 36.7976 18.4495 31.0027 18.4495 23.8809C18.4495 16.759 24.2444 10.9642 31.3662 10.9642C38.488 10.9642 44.2829 16.7591 44.2829 23.8809C44.2829 31.0026 38.4881 36.7976 31.3662 36.7976Z" fill="#C9A96A"/>
</g>
<defs>
<clipPath id="clip0">
<rect width="62" height="62" fill="white" transform="translate(0.366211 0.630859)"/>
</clipPath>
</defs>
</svg>
